<svg width="16" height="16" fill="none" xmlns="http://www.w3.org/2000/svg"><g clip-path="url(#clip0)"><path d="M14.752 8.896l-.53-.07a.542.542 0 00.086.369l.443-.299h.001zM7.104 1.248l-.299.443a.533.533 0 00.367.086l-.07-.529h.002zM1.248 7.104l.53.07a.533.533 0 00-.086-.369l-.444.299zm7.648 7.648l.298-.443a.533.533 0 00-.368-.085l.07.528zm6.384-5.785c.042-.309.07-.632.07-.967h-1.066c0 .274-.024.547-.061.826l1.056.141h.001zM15.35 8A7.352 7.352 0 008 .65v1.066A6.285 6.285 0 0114.284 8h1.066zM8 .65c-.336 0-.658.03-.965.069l.137 1.058c.282-.036.555-.06.828-.06V.65zm-.6.155A4.733 4.733 0 004.755 0v1.067c.76 0 1.466.23 2.051.624l.596-.886zM4.755 0A4.753 4.753 0 000 4.754h1.067a3.686 3.686 0 013.687-3.687V0zM0 4.754c0 .98.298 1.89.805 2.647l.886-.596a3.665 3.665 0 01-.624-2.05H0zm.72 2.28c-.045.32-.068.643-.07.966h1.066c0-.274.024-.547.061-.827L.72 7.033zM.65 8A7.35 7.35 0 008 15.35v-1.066A6.284 6.284 0 011.716 8H.65zM8 15.35c.335 0 .657-.028.966-.07l-.14-1.056c-.274.038-.55.058-.826.06v1.066zm.598-.155a4.732 4.732 0 002.648.805v-1.067a3.667 3.667 0 01-2.052-.624l-.596.886zm2.648.805A4.754 4.754 0 0016 11.246h-1.067a3.686 3.686 0 01-3.687 3.687V16zM16 11.246c0-.98-.299-1.89-.806-2.647l-.886.596a3.66 3.66 0 01.625 2.052H16v-.001zM7.467 8.533h1.066V7.467H7.467v1.066zm3.143-2.905a2.463 2.463 0 00-2.203-1.361v1.066c.53 0 1.013.299 1.248.773l.955-.478zM9.6 9.6a1.067 1.067 0 01-1.067 1.067v1.066A2.133 2.133 0 0010.667 9.6H9.6zM8.533 8.533A1.067 1.067 0 019.6 9.6h1.067a2.133 2.133 0 00-2.134-2.133v1.066zm-.94 2.134a1.39 1.39 0 01-1.248-.773l-.955.478a2.463 2.463 0 002.203 1.361v-1.066zM5.333 6.4a2.133 2.133 0 002.134 2.133V7.467A1.067 1.067 0 016.4 6.4H5.333zm1.067 0a1.067 1.067 0 011.067-1.067V4.267A2.133 2.133 0 005.333 6.4H6.4zm2.133 4.267h-.94v1.066h.94v-1.066zm-.126-6.4h-.94v1.066h.94V4.267z" fill="#000"/></g><defs><clipPath id="clip0"><path fill="#fff" d="M0 0h16v16H0z"/></clipPath></defs></svg>