<svg width="18" height="18" fill="none" xmlns="http://www.w3.org/2000/svg"><path d="M14.664 2.248c-.18.013-.357.055-.524.125h-.003c-.16.064-.922.385-2.08.87l-4.153 1.75c-2.98 1.254-5.909 2.489-5.909 2.489l.035-.014s-.202.067-.413.211c-.13.083-.242.192-.33.32a.934.934 0 00-.155.624c.05.406.314.65.503.784.19.136.373.2.373.2h.005l2.746.925c.124.395.837 2.742 1.009 3.283.101.322.2.524.323.679.06.078.13.144.213.197.044.025.09.045.138.06l-.028-.007c.009.002.015.009.022.011a.453.453 0 00.066.013c.435.132.784-.138.784-.138l.02-.016 1.621-1.477 2.719 2.086.061.026c.567.249 1.14.11 1.444-.134.305-.246.424-.56.424-.56l.02-.05 2.1-10.76c.06-.266.075-.515.009-.756a1.017 1.017 0 00-.44-.59 1.053 1.053 0 00-.6-.151zM14.608 3.4c-.003.035.004.032-.012.1v.006l-2.08 10.648c-.01.015-.024.048-.066.082-.044.034-.079.056-.262-.016l-3.324-2.549-2.008 1.83.422-2.694 5.431-5.062c.224-.209.15-.252.15-.252.015-.256-.339-.075-.339-.075L5.671 9.662 5.67 9.65 2.386 8.545v-.002l-.008-.002a.153.153 0 00.017-.007l.018-.009.017-.006 5.91-2.49c1.493-.628 2.995-1.26 4.152-1.749 1.155-.485 2.01-.841 2.058-.86.046-.018.024-.018.058-.018V3.4z" fill="#000"/></svg>