<svg width="24" height="13" fill="none" xmlns="http://www.w3.org/2000/svg"><path d="M21.072 5.11a1.432 1.432 0 010 2.408c-1.14.775-2.69 1.73-4.372 2.49-1.686.762-3.486 1.32-5.131 1.32-1.646 0-3.446-.558-5.131-1.32-1.683-.76-3.232-1.715-4.373-2.49a1.432 1.432 0 010-2.407c1.14-.775 2.69-1.73 4.373-2.49 1.685-.762 3.485-1.32 5.13-1.32 1.646 0 3.446.558 5.132 1.32 1.682.76 3.231 1.715 4.372 2.49z" stroke="#C4C4C4" stroke-width=".5"/><path d="M14.473 6.315c0 1.607-1.3 2.908-2.905 2.908a2.906 2.906 0 01-2.905-2.908 2.906 2.906 0 012.905-2.907 2.906 2.906 0 012.905 2.907z" stroke="#C4C4C4" stroke-width=".5"/></svg>