<svg width="56" height="20" viewBox="0 0 56 20" fill="none" xmlns="http://www.w3.org/2000/svg">
<g clip-path="url(#clip0)">
<path d="M26.456 12.5154C26.456 12.1277 26.5659 11.8579 26.7856 11.7062C27.0054 11.5544 27.393 11.4785 27.9485 11.4785H28.4716C29.0227 11.4785 29.4096 11.544 29.6323 11.6749C29.8549 11.8058 29.9662 12.0277 29.9662 12.3406V12.4722H29.455V12.3891C29.455 12.1604 29.3858 12.0039 29.2475 11.9198C29.1092 11.8356 28.8386 11.7936 28.4359 11.7936H28.0901C27.8924 11.7892 27.6948 11.8004 27.4989 11.827C27.3899 11.8427 27.2849 11.8794 27.1898 11.9349C27.1117 11.9815 27.0509 12.0524 27.0169 12.1367C26.9758 12.2851 26.959 12.4392 26.9672 12.593V13.4562C26.9591 13.6093 26.9758 13.7627 27.0169 13.9104C27.0509 13.9947 27.1117 14.0655 27.1898 14.1122C27.2819 14.1667 27.3835 14.2033 27.4892 14.2201C27.6882 14.2478 27.8892 14.2589 28.0901 14.2535H28.4359C28.8487 14.2535 29.1232 14.2096 29.2594 14.1219C29.3956 14.0334 29.4647 13.8651 29.4647 13.6159C29.4647 13.5781 29.4647 13.549 29.4647 13.5285C29.4647 13.508 29.4647 13.4885 29.4647 13.4713H29.9727V13.6784C29.9727 14.014 29.8646 14.247 29.6485 14.3787C29.4323 14.5103 29.0422 14.5761 28.477 14.5761H27.9539C27.3984 14.5761 27.0108 14.5002 26.791 14.3484C26.5713 14.1967 26.4614 13.9269 26.4614 13.5393L26.456 12.5154Z" fill="#DFDFDF"/>
<path d="M30.7635 11.5205H31.2628V13.5057C31.2551 13.6433 31.2708 13.7812 31.3093 13.9136C31.341 13.9921 31.3975 14.058 31.4703 14.1013C31.5591 14.1526 31.6566 14.1874 31.7578 14.2038C31.9488 14.2279 32.1414 14.2376 32.3339 14.2329H32.8029C32.9968 14.2376 33.1908 14.2278 33.3832 14.2038C33.4849 14.1875 33.5827 14.1528 33.6718 14.1013C33.7433 14.0586 33.7984 13.9933 33.8285 13.9157C33.866 13.7825 33.8813 13.6439 33.8739 13.5057V11.5205H34.3732V13.5456C34.3732 13.9319 34.2597 14.2016 34.0349 14.3538C33.8101 14.5059 33.4103 14.5825 32.8385 14.5825H32.2982C31.7276 14.5825 31.3291 14.5062 31.1029 14.3538C30.8767 14.2013 30.7639 13.9319 30.7646 13.5456L30.7635 11.5205Z" fill="#DFDFDF"/>
<path d="M35.4143 14.5415V11.5205H37.4353C37.9389 11.5205 38.2847 11.5712 38.4749 11.6716C38.6651 11.7719 38.7591 11.9532 38.7591 12.211V12.6685C38.763 12.7373 38.7521 12.8062 38.7274 12.8705C38.7026 12.9349 38.6644 12.9932 38.6154 13.0418C38.4927 13.1421 38.3414 13.2014 38.1831 13.2112C38.3484 13.2239 38.5054 13.2885 38.6316 13.3957C38.7279 13.5146 38.7744 13.6662 38.7613 13.8186V14.5415H38.2436V13.9179C38.2436 13.7021 38.1928 13.5554 38.0913 13.4777C37.9908 13.4011 37.7919 13.3633 37.4979 13.3633H35.9093V14.5415H35.4143ZM37.3358 11.8377H35.9071V13.0483H37.3358C37.709 13.0483 37.9533 13.017 38.0686 12.9544C38.1267 12.9213 38.174 12.8721 38.2047 12.8128C38.2354 12.7534 38.2482 12.6864 38.2415 12.6199V12.265C38.2485 12.1986 38.2365 12.1316 38.2068 12.0718C38.1772 12.012 38.1311 11.9619 38.074 11.9273C37.9659 11.8668 37.7199 11.8366 37.3358 11.8366V11.8377Z" fill="#DFDFDF"/>
<path d="M39.2486 14.5415L40.9032 11.5205H41.7181L43.3813 14.5415H42.8701L42.4432 13.7668H40.1813L39.7598 14.5415H39.2486ZM40.3434 13.469H42.2887L41.3949 11.8377H41.2361L40.3434 13.469Z" fill="#DFDFDF"/>
<path d="M43.8416 12.5154C43.8416 12.1277 43.9515 11.8579 44.1712 11.7062C44.391 11.5544 44.7786 11.4785 45.3341 11.4785H45.8572C46.4083 11.4785 46.7952 11.544 47.0179 11.6749C47.2405 11.8058 47.3518 12.0277 47.3518 12.3406V12.4722H46.8406V12.3891C46.8406 12.1604 46.7715 12.0039 46.6331 11.9198C46.4948 11.8356 46.2243 11.7936 45.8215 11.7936H45.4768C45.2791 11.7892 45.0815 11.8004 44.8856 11.827C44.7766 11.8427 44.6716 11.8794 44.5765 11.9349C44.4984 11.9815 44.4376 12.0524 44.4036 12.1367C44.3625 12.2851 44.3457 12.4392 44.3539 12.593V13.4562C44.3458 13.6093 44.3625 13.7627 44.4036 13.9104C44.4376 13.9947 44.4984 14.0655 44.5765 14.1122C44.6686 14.1667 44.7702 14.2033 44.8759 14.2201C45.0749 14.2478 45.2759 14.2589 45.4768 14.2535H45.8226C46.2354 14.2535 46.5099 14.2096 46.6461 14.1219C46.7823 14.0334 46.8514 13.8651 46.8514 13.6159C46.8514 13.5781 46.8514 13.549 46.8514 13.5285C46.8514 13.508 46.8514 13.4885 46.8514 13.4713H47.3594V13.6784C47.3594 14.014 47.2513 14.247 47.0352 14.3787C46.819 14.5103 46.4289 14.5761 45.8636 14.5761H45.3406C44.7851 14.5761 44.3975 14.5002 44.1777 14.3484C43.958 14.1967 43.8481 13.9269 43.8481 13.5393L43.8416 12.5154Z" fill="#DFDFDF"/>
<path d="M47.6112 14.5415L49.2647 11.5205H50.0807L51.745 14.5415H51.2338L50.8015 13.7668H48.5406L48.1224 14.5415H47.6112ZM48.706 13.469H50.6513L49.7575 11.8377H49.5987L48.706 13.469Z" fill="#DFDFDF"/>
<path d="M52.2042 12.5154C52.2042 12.1291 52.3223 11.8597 52.5586 11.7072C52.795 11.5548 53.215 11.4785 53.8188 11.4785H54.384C54.995 11.4785 55.4168 11.5537 55.6495 11.704C55.883 11.8551 55.9997 12.1248 55.9997 12.5154V13.5403C55.9997 13.928 55.8808 14.1978 55.643 14.3495C55.4053 14.5013 54.9856 14.5772 54.384 14.5772H53.8188C53.2157 14.5772 52.7957 14.5013 52.5586 14.3495C52.3216 14.1978 52.2034 13.928 52.2042 13.5403V12.5154ZM54.237 11.7936H53.9604C53.7372 11.7883 53.5139 11.7999 53.2925 11.8281C53.1744 11.8474 53.0604 11.8865 52.9553 11.9435C52.8719 11.9905 52.8066 12.0637 52.7694 12.1518C52.726 12.2968 52.7084 12.4484 52.7175 12.5995V13.4627C52.7086 13.6132 52.7269 13.7641 52.7715 13.9082C52.8093 13.9936 52.8738 14.0643 52.9553 14.11C53.0602 14.1675 53.1743 14.2066 53.2925 14.2255C53.5139 14.2537 53.7372 14.2652 53.9604 14.26H54.237C54.4613 14.2651 54.6856 14.2536 54.9082 14.2255C55.0272 14.2071 55.142 14.168 55.2475 14.11C55.329 14.0647 55.3932 13.9938 55.4301 13.9082C55.473 13.762 55.4906 13.6094 55.482 13.4573V12.5941C55.4906 12.4421 55.4723 12.2898 55.428 12.1442C55.3914 12.0558 55.3259 11.9824 55.2421 11.936C55.1378 11.8812 55.0248 11.8447 54.9082 11.8281C54.6856 11.8005 54.4613 11.789 54.237 11.7936Z" fill="#DFDFDF"/>
<path d="M26.4348 8.34607C26.4348 7.94759 26.5536 7.66959 26.7914 7.51207C27.0292 7.35454 27.4503 7.27614 28.0548 7.27686H28.6265C29.1798 7.27686 29.5894 7.3416 29.852 7.47215C29.9716 7.52292 30.0731 7.60838 30.1435 7.71746C30.2138 7.82655 30.2497 7.95421 30.2465 8.08389V8.2166H29.732V8.1756C29.7408 8.08587 29.7232 7.99552 29.6814 7.91562C29.6395 7.83572 29.5753 7.76972 29.4964 7.72569C29.3401 7.6401 29.04 7.59766 28.5962 7.59838H28.1996C27.9781 7.59397 27.7566 7.60659 27.5371 7.63614C27.4159 7.65505 27.2991 7.69562 27.1923 7.7559C27.1097 7.80143 27.0447 7.87319 27.0075 7.95982C26.9636 8.1118 26.9457 8.27012 26.9546 8.42807V9.3171C26.9457 9.47434 26.9636 9.63193 27.0075 9.7832C27.0435 9.87069 27.1078 9.94363 27.1902 9.99035C27.2949 10.05 27.4095 10.0905 27.5284 10.1101C27.7509 10.1395 27.9753 10.1514 28.1996 10.1457H28.5962C28.7992 10.1504 29.0022 10.14 29.2036 10.1144C29.3117 10.0963 29.4158 10.0598 29.5116 10.0065C29.5892 9.96288 29.6495 9.89395 29.6823 9.81125C29.7231 9.67379 29.7399 9.53037 29.732 9.38723V9.19411H28.4838V8.87798H30.2465V9.40018C30.2465 9.80046 30.1276 10.0777 29.8898 10.2353C29.6521 10.3928 29.2306 10.4694 28.6265 10.4694H28.0548C27.4496 10.4694 27.0284 10.3914 26.7914 10.2353C26.5536 10.0777 26.4348 9.8037 26.4348 9.40018V8.34607Z" fill="white"/>
<path d="M30.6711 10.4419L32.3387 7.31299H33.1568L34.8298 10.4419H34.3154L33.8831 9.64347H31.6103L31.1899 10.4419H30.6711ZM31.7713 9.33489H33.7166L32.8326 7.64638H32.6726L31.7713 9.33489Z" fill="white"/>
<path d="M35.434 10.4419V7.31299H36.2531L37.7953 10.0955L39.3224 7.31299H40.147V10.4419H39.652V7.60646L38.0979 10.4419H37.4798L35.9257 7.61077V10.4419H35.434Z" fill="white"/>
<path d="M41.235 10.4419V7.31299H41.7376V10.4419H41.235Z" fill="white"/>
<path d="M42.8263 10.4419V7.31299H43.5936L46.0339 10.0998V7.31299H46.5299V10.4419H45.7615L43.3223 7.65069V10.4419H42.8263Z" fill="white"/>
<path d="M47.4516 8.34607C47.4516 7.94759 47.5705 7.66959 47.8082 7.51207C48.046 7.35454 48.4671 7.27614 49.0716 7.27686H49.6433C50.1974 7.27686 50.6059 7.34196 50.8689 7.47215C50.9884 7.52292 51.09 7.60838 51.1603 7.71746C51.2307 7.82655 51.2665 7.95421 51.2633 8.08389V8.2166H50.75V8.1756C50.7585 8.0859 50.7407 7.99566 50.6989 7.91581C50.6571 7.83597 50.593 7.76993 50.5144 7.72569C50.3566 7.6401 50.0562 7.59766 49.6131 7.59838H49.2164C48.9943 7.59314 48.7721 7.60505 48.5518 7.63398C48.4306 7.65289 48.3138 7.69346 48.207 7.75374C48.1251 7.80098 48.0609 7.87375 48.0244 7.9609C47.9804 8.11288 47.9625 8.2712 47.9714 8.42915V9.31818C47.9626 9.47542 47.9805 9.63301 48.0244 9.78428C48.0609 9.87142 48.1251 9.9442 48.207 9.99143C48.3118 10.0511 48.4263 10.0916 48.5453 10.1112C48.7677 10.1405 48.9921 10.1524 49.2164 10.1468H49.6131C49.816 10.1515 50.019 10.1411 50.2204 10.1155C50.3288 10.0972 50.4333 10.0608 50.5295 10.0076C50.6066 9.96329 50.6667 9.89457 50.7003 9.81233C50.7404 9.67475 50.7572 9.53143 50.75 9.38831V9.19519H49.5007V8.87906H51.2633V9.40126C51.2633 9.80154 51.1444 10.0788 50.9067 10.2363C50.6689 10.3939 50.2474 10.4705 49.6433 10.4705H49.0716C48.4678 10.4705 48.0467 10.3924 47.8082 10.2363C47.5705 10.0788 47.4516 9.80478 47.4516 9.40126V8.34607Z" fill="white"/>
<path d="M0.0192261 10.6165C0.0192261 9.92386 0.689276 8.72626 3.77043 6.38284C7.50445 3.51169 11.7951 1.44616 16.3706 0.31713C18.7763 -0.293541 20.9378 -0.0497039 22.6507 1.28816C24.3637 2.62603 24.8522 5.60385 24.2815 9.27219C23.7109 12.9405 22.6507 14.8891 22.6507 14.8891C22.6507 14.8891 21.9374 16.3337 21.182 17.0469C20.4028 17.7784 19.4302 18.4733 17.5529 18.4733C15.6757 18.4733 13.3381 17.5087 10.9886 15.6681C9.07139 14.1576 7.84801 13.6332 6.62571 13.1865C5.4034 12.7399 3.89363 12.4129 2.38494 12.1281C1.69543 11.9922 0.0192261 11.7559 0.0192261 10.6165Z" fill="#FCBB17"/>
<path d="M17.6158 18.4935C15.1691 18.4935 12.9687 17.243 10.724 15.4812C8.87925 14.0311 7.6818 13.5564 6.56001 13.1464C5.34635 12.7019 3.8409 12.3911 2.52782 12.1408L2.40462 12.1182C1.65783 11.9811 0 11.9024 0 10.6368C0 8.57281 6.60648 4.40817 7.50348 3.87842C7.50348 3.87842 19.2834 9.21154 21.0407 17.1902C21.0634 17.2927 19.8638 18.4935 17.6158 18.4935Z" fill="url(#paint0_linear)"/>
<path d="M14.7845 17.9433C16.4153 11.4697 4.12094 7.54246 3.4282 6.68795C3.36768 6.6135 6.89409 4.20643 7.50578 3.91943C7.50578 3.91943 19.3311 9.21155 21.084 17.1902C21.1046 17.2927 18.7983 19.5519 14.7845 17.9433Z" fill="url(#paint1_linear)"/>
<path d="M21.0816 17.2314C19.2444 8.96788 7.30557 3.99836 7.50334 3.8786C9.38057 2.73926 11.662 1.84375 11.662 1.84375C11.662 1.84375 21.3064 2.71876 22.7329 14.8901C22.7448 14.9947 21.8975 16.4168 21.0816 17.2314Z" fill="url(#paint2_linear)"/>
<path d="M22.7126 14.9514C21.3671 2.81994 11.4525 1.93846 11.6622 1.84352C13.2714 1.11093 15.8013 0.440918 15.9645 0.440918C21.3876 0.440918 24.4915 7.7776 24.2418 9.55998C24.0181 11.1654 23.1611 14.0559 22.7126 14.9514Z" fill="url(#paint3_linear)"/>
<path opacity="0.74" d="M1.16742 10.4608C1.16742 9.81344 1.79316 8.68596 4.66789 6.48388C8.14717 3.78862 12.1516 1.84798 16.4251 0.786087C18.6752 0.2121 20.6864 0.44191 22.2837 1.70209C23.881 2.96228 24.3371 5.75561 23.8054 9.19737C23.2737 12.6391 22.2837 14.4744 22.2837 14.4744C22.2837 14.4744 21.618 15.8306 20.9145 16.5006C20.1914 17.189 19.2782 17.8395 17.5285 17.8395C15.7788 17.8395 13.5925 16.9333 11.403 15.2005C9.61546 13.786 8.47313 13.2908 7.32756 12.87C6.18199 12.4492 4.77921 12.1439 3.37102 11.8763C2.73231 11.7533 1.16742 11.5322 1.16742 10.4608Z" fill="url(#paint4_linear)"/>
<path d="M8.42517 9.17455C8.42517 8.41283 8.6161 7.88128 8.99796 7.5799C9.37981 7.27852 10.0553 7.12819 11.0243 7.12891H11.9397C12.8288 7.12891 13.4841 7.2537 13.9055 7.50329C14.327 7.75289 14.5381 8.14274 14.5388 8.67285V8.93071H13.7142V8.85842C13.7142 8.44627 13.5882 8.15856 13.336 7.99528C13.0838 7.83201 12.6022 7.75109 11.8911 7.75253H11.2567C10.8998 7.74251 10.5427 7.76526 10.19 7.8205C9.99216 7.85816 9.80419 7.93602 9.63775 8.04923C9.49994 8.14698 9.39696 8.28607 9.34379 8.44627C9.28759 8.61243 9.25949 8.91093 9.25949 9.34178V11.0432C9.25949 11.4748 9.28759 11.7719 9.34379 11.9344C9.39696 12.0946 9.49994 12.2337 9.63775 12.3315C9.8006 12.4433 9.9844 12.5211 10.1781 12.5602C10.5354 12.6164 10.8973 12.6392 11.2588 12.6282H11.8932C12.2186 12.6374 12.5441 12.6171 12.8659 12.5678C13.0428 12.5334 13.2111 12.4641 13.3608 12.3638C13.49 12.2721 13.5859 12.1412 13.6343 11.9905C13.6995 11.7253 13.7265 11.4521 13.7142 11.1792V10.808H11.7127V10.2017H14.5388V11.2018C14.5388 11.9664 14.3479 12.4987 13.9661 12.7987C13.5842 13.0986 12.9087 13.2478 11.9397 13.2464H11.0243C10.0538 13.2464 9.37837 13.0968 8.99796 12.7976C8.61754 12.4983 8.42661 11.9661 8.42517 11.2008V9.17455Z" fill="white"/>
<path d="M15.7568 9.17455C15.7568 8.40995 15.9337 7.87768 16.2874 7.57774C16.6412 7.2778 17.2658 7.12819 18.1614 7.12891H19.0044C19.8942 7.12891 20.5181 7.25766 20.8762 7.51516C21.2343 7.77267 21.4144 8.21071 21.4165 8.82929V9.09039H20.5919V8.93071C20.5919 8.47864 20.4839 8.16899 20.258 8.00392C20.0321 7.83884 19.5977 7.75468 18.9482 7.75468H18.3916C18.0725 7.74533 17.7532 7.76738 17.4384 7.8205C17.2579 7.85645 17.0879 7.93282 16.9413 8.04384C16.8094 8.14485 16.7123 8.28439 16.6635 8.44304C16.6095 8.60703 16.5824 8.90805 16.5824 9.34394V11.0454C16.5824 11.477 16.6095 11.7758 16.6635 11.942C16.7123 12.1006 16.8094 12.2402 16.9413 12.3412C17.0838 12.4503 17.2488 12.5266 17.4243 12.5645C17.7437 12.6188 18.0678 12.6409 18.3916 12.6303H18.9482C19.6139 12.6303 20.0566 12.5433 20.2764 12.3692C20.4961 12.1952 20.6042 11.8621 20.6006 11.3702C20.6006 11.2957 20.6006 11.2374 20.6006 11.1975C20.6006 11.1576 20.6006 11.1198 20.5941 11.0896H21.4133V11.4834C21.4133 12.1466 21.2393 12.608 20.8913 12.8677C20.5433 13.1274 19.9154 13.2536 19.0076 13.2464H18.1646C17.2691 13.2464 16.6444 13.0968 16.2907 12.7976C15.9369 12.4984 15.7589 11.9664 15.7568 11.2018V9.17455Z" fill="white"/>
<path d="M22.2642 7.34528V6.86084H22.4112L22.6857 7.29241L22.9581 6.86084H23.1061V7.34528H23.0175V6.90508L22.7408 7.34528H22.6327L22.3496 6.90508V7.34528H22.2642Z" fill="white"/>
<path d="M21.6934 6.91155V6.86084H22.2942V6.91155H22.0381V7.34312H21.9484V6.91155H21.6934Z" fill="white"/>
<path d="M18.3853 16.9538C18.3853 16.6863 18.6435 16.2212 19.8291 15.3128C21.2649 14.2009 22.9172 13.4002 24.6805 12.9618C25.6067 12.7255 26.4388 12.8205 27.0981 13.3405C27.7573 13.8605 27.9454 15.0128 27.726 16.4338C27.5066 17.8547 27.0981 18.6111 27.0981 18.6111C27.0981 18.6111 26.8236 19.171 26.5328 19.4472C26.3521 19.6324 26.1342 19.7774 25.8933 19.8726C25.6525 19.9678 25.3942 20.0111 25.1355 19.9996C24.4135 19.9996 23.5144 19.6252 22.6077 18.911C22.1096 18.493 21.5409 18.1671 20.9282 17.9486C20.3955 17.7692 19.8495 17.6318 19.2952 17.5375C19.0304 17.4879 18.3853 17.3962 18.3853 16.9538Z" fill="#4CC516"/>
<path d="M22.0877 15.5125C22.0877 15.5125 21.971 15.1058 22.6411 15.5988C22.9458 15.8243 23.3111 16.326 23.3111 16.326C23.3111 16.326 25.8725 13.4485 26.3674 13.8262C26.3674 13.8262 24.0093 16.558 23.5143 17.8085L22.0877 15.5125Z" fill="white"/>
</g>
<defs>
<linearGradient id="paint0_linear" x1="10.5209" y1="18.4935" x2="10.5209" y2="3.87842" gradientUnits="userSpaceOnUse">
<stop offset="0.03" stop-color="#91084A"/>
<stop offset="0.09" stop-color="#A00952"/>
<stop offset="0.2" stop-color="#BB0C60"/>
</linearGradient>
<linearGradient id="paint1_linear" x1="12.2534" y1="19.7408" x2="12.2534" y2="1.945" gradientUnits="userSpaceOnUse">
<stop offset="0.03" stop-color="#4E1444"/>
<stop offset="0.2" stop-color="#691A5B"/>
</linearGradient>
<linearGradient id="paint2_linear" x1="21.3096" y1="18.5196" x2="14.5396" y2="6.77435" gradientUnits="userSpaceOnUse">
<stop stop-color="#C90210"/>
<stop offset="0.07" stop-color="#D80211"/>
<stop offset="0.2" stop-color="#F30213"/>
</linearGradient>
<linearGradient id="paint3_linear" x1="13.6993" y1="-0.0176243" x2="25.2529" y2="12.6315" gradientUnits="userSpaceOnUse">
<stop offset="0.09" stop-color="#429FE2"/>
<stop offset="0.36" stop-color="#399AE1"/>
<stop offset="0.57" stop-color="#2E95DF"/>
<stop offset="0.99" stop-color="#2A93DE"/>
</linearGradient>
<linearGradient id="paint4_linear" x1="12.5939" y1="0.488304" x2="12.5939" y2="21.7496" gradientUnits="userSpaceOnUse">
<stop stop-color="white"/>
<stop offset="0.1" stop-color="white" stop-opacity="0.66"/>
<stop offset="0.19" stop-color="white" stop-opacity="0.4"/>
<stop offset="0.23" stop-color="white" stop-opacity="0.3"/>
<stop offset="0.6" stop-color="white" stop-opacity="0"/>
</linearGradient>
<clipPath id="clip0">
<rect width="56" height="20" fill="white"/>
</clipPath>
</defs>
</svg>
