<svg width="19" height="18" viewBox="0 0 19 18" fill="none" xmlns="http://www.w3.org/2000/svg">
<g clip-path="url(#clip0)">
<path d="M6.46238 12.0655V7.17858H5.33267V5.92627H8.02126V12.0655H6.46238Z" fill="white"/>
<path d="M13.8794 7.51115C13.8794 8.04535 13.5904 8.51825 13.1088 8.78103C13.783 9.06121 14.2035 9.64802 14.2035 10.3311C14.2035 11.4345 13.2226 12.1352 11.69 12.1352C10.1574 12.1352 9.17657 11.4433 9.17657 10.3574C9.17657 9.65677 9.63196 9.06121 10.3413 8.78103C9.82463 8.49198 9.49184 8.00162 9.49184 7.46741C9.49184 6.48647 10.3501 5.86475 11.6813 5.86475C13.0299 5.86475 13.8794 6.50404 13.8794 7.51115ZM10.6478 10.1998C10.6478 10.7165 11.0157 11.0055 11.69 11.0055C12.3643 11.0055 12.7409 10.7253 12.7409 10.1998C12.7409 9.69191 12.3643 9.40281 11.69 9.40281C11.0156 9.40281 10.6478 9.69186 10.6478 10.1998ZM10.8055 7.59872C10.8055 8.0367 11.1208 8.2818 11.69 8.2818C12.2593 8.2818 12.5745 8.03665 12.5745 7.59872C12.5745 7.14344 12.2593 6.88942 11.69 6.88942C11.1207 6.88942 10.8055 7.14344 10.8055 7.59872Z" fill="white"/>
<path d="M16.7986 6.6191C17.0578 7.384 17.1892 8.18405 17.1892 9.00003C17.1892 13.0915 13.8605 16.4202 9.76898 16.4202C5.67745 16.4202 2.34869 13.0915 2.34869 9.00003C2.34869 4.90844 5.6774 1.57984 9.76893 1.57984C10.585 1.57984 11.3851 1.7112 12.1499 1.97048V0.319209C11.3773 0.107443 10.5795 0 9.76898 0C4.80641 0 0.769012 4.0374 0.769012 9.00003C0.769012 13.9627 4.80641 18.0001 9.76898 18.0001C14.7316 18.0001 18.7689 13.9627 18.7689 9.00003C18.7689 8.18958 18.6615 7.39167 18.4497 6.6191H16.7986Z" fill="white"/>
<path d="M16.3488 2.41419V0.688477H15.1079V2.41419H13.3925V3.65501H15.1079V5.38066H16.3488V3.65501H18.0744V2.41419H16.3488Z" fill="white"/>
</g>
<defs>
<clipPath id="clip0">
<rect width="18" height="18" fill="white" transform="translate(0.768005)"/>
</clipPath>
</defs>
</svg>
