<svg width="41" height="18" viewBox="0 0 41 18" fill="none" xmlns="http://www.w3.org/2000/svg">
<path d="M16.7284 17.3693C16.6523 17.1497 16.5143 16.9999 16.4144 16.8053C16.1718 16.4708 15.8863 16.1813 15.6009 15.8918C15.501 15.8569 15.4581 15.7571 15.363 15.7172C15.3012 15.6323 15.2013 15.5874 15.1204 15.5225C14.9586 15.3927 14.7826 15.2829 14.6018 15.1731C14.2593 14.9435 13.8359 14.7987 13.4172 14.649C12.9653 14.5342 12.4895 14.4494 11.9948 14.3795C11.5048 14.3046 11.0148 14.2347 10.6437 14.0301C10.4296 13.9652 10.2726 13.8404 10.0871 13.7406C9.91581 13.6208 9.73027 13.521 9.58755 13.3712C9.41153 13.2614 9.30211 13.0767 9.16414 12.927C9.11657 12.8272 9.03569 12.7673 8.99764 12.6575C8.95006 12.6375 8.93579 12.5776 8.90725 12.5427C8.87394 12.5027 8.87394 12.4229 8.81686 12.4079C8.78831 12.6126 8.79783 12.8571 8.81686 13.0668C8.84064 13.1566 8.85016 13.2664 8.87394 13.3563C8.88822 13.4361 8.95958 13.5659 8.93103 13.6258C7.44673 13.5459 6.36205 13.0518 5.42009 12.4029C4.95387 12.0785 4.55425 11.6842 4.18317 11.2599C4.02142 11.0253 3.8454 10.8007 3.70268 10.5412C3.5552 10.2866 3.43151 9.99711 3.2983 9.72757C3.07946 9.14359 2.8749 8.54463 2.79878 7.81091C2.69887 7.1271 2.72266 6.25362 2.87014 5.61972C2.92247 5.27033 3.03189 4.97584 3.12704 4.67137C3.18888 4.53162 3.25549 4.39186 3.31257 4.24711C3.39345 4.12732 3.43627 3.96261 3.53617 3.85779C3.80734 3.32372 4.21172 2.92441 4.62561 2.54008C5.0728 2.19568 5.58184 1.91617 6.19554 1.74646C6.78546 1.60671 7.58945 1.58175 8.22694 1.7265C9.52095 2.00601 10.4962 2.61495 11.3145 3.3936C12.1423 4.15727 12.7797 5.12558 13.2174 6.30353C13.6694 7.42159 13.8264 9.16356 13.422 10.4313C13.2555 10.3315 13.089 10.2367 12.9225 10.1419C12.7227 10.082 12.5276 10.0121 12.2945 9.98712C12.0138 9.98213 11.7379 9.98712 11.5571 10.082C11.9234 10.042 12.2184 10.1468 12.4467 10.2367C12.5799 10.2916 12.6561 10.3265 12.7607 10.3914C12.9653 10.5162 13.1461 10.631 13.2983 10.8007C13.7312 11.2 14.0405 11.7291 14.1879 12.4279C14.1879 12.4478 14.2117 12.4428 14.207 12.4079C14.226 12.4029 14.2355 12.3879 14.245 12.368C14.2688 12.338 14.2973 12.3081 14.3211 12.2731C14.3687 12.2132 14.4163 12.1534 14.4496 12.0785C14.5495 11.9537 14.6304 11.8139 14.7065 11.6692C14.8825 11.3997 15.0157 11.0902 15.1679 10.7957C15.4296 10.1668 15.6437 9.48799 15.7769 8.71933C16.0433 7.0123 15.7246 5.39511 15.1679 4.20219C14.5971 2.99928 13.7978 2.03596 12.7655 1.31222C11.7236 0.59347 10.5057 0.0643904 8.83113 0.0144772C8.82161 -0.020462 8.80734 0.0194686 8.77404 0.0144772C7.88917 -0.0154706 7.17556 0.114304 6.46671 0.303973C6.13845 0.418774 5.79592 0.5186 5.50572 0.673331C5.17271 0.788131 4.90629 0.977801 4.60182 1.11756C4.4924 1.22737 4.3259 1.28227 4.21172 1.38709C4.06424 1.46196 3.95482 1.58175 3.80734 1.65662C3.56947 1.87624 3.31733 2.0709 3.08422 2.29551C2.85587 2.51513 2.65606 2.76469 2.43722 2.99429C2.40392 3.07415 2.34683 3.12906 2.28974 3.18895C2.25168 3.26382 2.20411 3.32871 2.14226 3.38361C2.11847 3.47346 2.04236 3.5084 2.01381 3.59824C1.95197 3.64815 1.93769 3.74798 1.86633 3.7929C1.80449 3.95262 1.69507 4.06742 1.62371 4.21716C1.53807 4.36191 1.47147 4.52163 1.38584 4.66139C1.25263 4.98583 1.10991 5.30028 1.00049 5.64967C0.886314 5.98908 0.791167 6.34845 0.724563 6.73778C0.653203 7.10214 0.586599 7.57632 0.596114 7.96065C0.54854 8.10041 0.586599 8.35995 0.596114 8.52467C0.596114 8.55462 0.577085 8.5646 0.577085 8.58456C0.577085 8.76924 0.624658 8.99385 0.634173 9.10865C0.672232 9.53291 0.743593 9.92723 0.85777 10.2716C0.92913 10.656 1.08137 10.9554 1.19079 11.2998C1.35729 11.5893 1.47147 11.9337 1.67128 12.1933C1.81876 12.4978 2.02808 12.7373 2.22789 12.9869C2.44198 13.2265 2.65606 13.4711 2.91296 13.6657C3.38393 14.095 3.93579 14.4394 4.53998 14.7339C5.66747 15.3079 7.35158 15.6822 8.86443 15.5874C9.24978 15.5325 9.63988 15.4826 9.99193 15.3927C10.3154 15.2679 10.6913 15.1931 11.0814 15.1432C11.971 15.0833 12.7417 15.1681 13.4268 15.3777C14.1213 15.5724 14.7208 15.8669 15.2393 16.2512C15.5152 16.4209 15.7436 16.6405 15.9767 16.8502C16.2146 17.0648 16.4049 17.3293 16.6237 17.5689C16.6522 17.6588 16.7093 17.7237 16.7522 17.8035C16.8092 17.8684 16.7807 18.0181 16.9187 17.9982C17.0043 17.9083 16.9044 17.7786 16.8996 17.6688C16.814 17.5739 16.795 17.4491 16.7284 17.3693Z" fill="#FCB316"/>
<path d="M13.2744 12.0588C13.2554 12.0588 13.2506 12.0738 13.2363 12.0788C13.203 12.1536 13.2173 12.2734 13.2363 12.3483C13.3363 12.5629 13.3696 12.8424 13.5884 12.9323C13.6931 12.8974 13.6835 12.7376 13.6788 12.5829C13.6312 12.3932 13.5646 12.2235 13.4552 12.0987C13.3791 12.0688 13.3267 12.0189 13.2744 12.0588ZM11.9804 12.6029C11.9804 12.5929 11.9661 12.5829 11.9614 12.6029C11.7806 12.5779 11.7187 12.6827 11.6283 12.7576C11.4713 13.1918 11.7235 13.6161 12.1659 13.6111C12.342 13.5662 12.4514 13.4464 12.4799 13.2418C12.4561 12.8774 12.3087 12.6428 11.9804 12.6029Z" fill="#FCB316"/>
<path d="M22.6468 11.2198C22.7182 11.5343 22.8704 11.7589 23.0417 11.9685C23.213 12.1781 23.4128 12.3528 23.6554 12.4826C23.8838 12.6324 24.1311 12.7571 24.4166 12.842C24.5545 12.8919 24.6878 12.9518 24.859 12.9718C24.978 13.0416 25.1207 13.0766 25.1302 13.2563C25.1254 13.4709 24.9875 13.5508 24.8114 13.5907C24.6354 13.5508 24.4166 13.5557 24.2691 13.4859C23.898 13.4409 23.5983 13.3162 23.2843 13.2014C22.6849 12.9568 22.1806 12.6024 21.762 12.1682C21.6763 12.0184 21.5574 11.8986 21.467 11.7539C21.3766 11.6091 21.3148 11.4344 21.2196 11.2897C20.487 11.1899 19.9875 10.8405 19.5498 10.4362C19.1454 9.95202 18.8219 9.37303 18.6887 8.60437C18.5317 7.86566 18.5793 6.94227 18.7648 6.22851C19.1692 4.84592 20.016 3.92752 21.6145 3.80273C22.0569 3.81771 22.4423 3.87261 22.7943 4.01237C23.1511 4.14713 23.4889 4.3967 23.7553 4.65625C23.7791 4.67621 23.7886 4.6812 23.8029 4.70616C23.86 4.79101 23.9979 4.9108 24.0741 5.01562C24.0883 5.03559 24.0836 5.07053 24.0978 5.09548C24.1264 5.1404 24.1692 5.16037 24.1977 5.2003C24.212 5.22526 24.2073 5.2552 24.2215 5.27517C24.2406 5.30512 24.2643 5.35004 24.2929 5.40494C24.3024 5.42491 24.3357 5.43988 24.3405 5.45486C24.3833 5.53971 24.4023 5.64453 24.4404 5.73936C24.4784 5.83919 24.5308 5.92404 24.5641 6.02387C24.6592 6.31835 24.7211 6.66774 24.7591 7.02712C24.8543 8.06531 24.6592 8.99369 24.2929 9.68249C24.1216 10.0419 23.8838 10.3364 23.6031 10.5859C23.3462 10.8704 22.9941 11.0401 22.6468 11.2198ZM21.467 4.72113C21.2529 4.73611 21.1245 4.84093 20.9485 4.90082C20.8343 5.01063 20.6916 5.09548 20.6059 5.23524C20.4632 5.32009 20.4251 5.50976 20.311 5.61957C20.2158 5.86913 20.1254 6.14865 20.0636 6.47308C20.0065 6.79253 19.9684 7.1519 19.9637 7.50628C19.9589 8.39474 20.1397 9.2782 20.4775 9.80228C20.6773 10.0568 20.9199 10.2665 21.2149 10.4212C21.3861 10.4362 21.5193 10.4961 21.7049 10.5011C21.8095 10.4611 21.9808 10.5011 22.0474 10.4212C22.1996 10.4312 22.233 10.3264 22.3662 10.3164C22.4375 10.2415 22.5136 10.1816 22.6135 10.1367C22.7039 10.0319 22.7896 9.92707 22.8847 9.82724C22.9323 9.75237 22.9608 9.64755 23.0322 9.59265C23.4604 8.73414 23.5079 7.16188 23.2272 6.16362C23.1226 5.79926 22.9751 5.50477 22.8086 5.2602C22.6278 5.06553 22.4137 4.90082 22.1711 4.77105C21.9761 4.72613 21.7905 4.67122 21.5336 4.69618C21.5193 4.69618 21.5051 4.70117 21.5098 4.72113C21.5003 4.72113 21.486 4.72113 21.467 4.72113ZM26.6573 3.9974C27.0427 4.01237 27.4946 3.96246 27.8371 4.02235C27.9133 4.14713 27.8847 4.29687 27.8847 4.43663C27.9133 6.32834 27.8847 8.3598 27.8847 10.2914C27.8847 10.4462 27.8895 10.6059 27.8847 10.7556C27.88 10.8854 27.9133 11.0252 27.8371 11.1449C27.6659 11.1899 27.4185 11.1699 27.1996 11.1699C26.9665 11.1699 26.7382 11.2048 26.5859 11.12C26.5431 8.83397 26.5431 6.36827 26.5859 4.07726C26.5955 4.03733 26.6192 4.01237 26.6573 3.9974ZM29.6069 3.9974H30.7629C30.8676 4.14713 30.9009 4.37174 30.9342 4.59136C31.2815 5.97894 31.624 7.37152 31.9427 8.79404C32.0189 8.80402 31.9951 8.70919 32.0189 8.66427C32.0522 8.62933 32.0331 8.54447 32.0664 8.50953C32.0807 8.39473 32.1473 8.33484 32.1426 8.20007C32.2282 8.02538 32.2567 7.7858 32.3376 7.60611C32.4375 7.18684 32.5707 6.79752 32.6849 6.39322C32.7943 5.97395 32.9418 5.59461 33.0274 5.15538C33.1892 4.801 33.2272 4.31684 33.4223 3.9974H33.9123C34.0883 4.34679 34.1549 4.81098 34.3072 5.18533C34.4071 5.6046 34.545 5.98394 34.6497 6.39821C34.8923 7.20181 35.1445 7.99543 35.3633 8.82399C35.4632 8.66926 35.4632 8.40971 35.5346 8.23002C35.5774 8.02538 35.6154 7.81574 35.682 7.63606C35.8723 6.81748 36.0531 5.99392 36.272 5.21028C36.3528 4.801 36.4337 4.38173 36.5669 4.02235C36.8524 3.97743 37.29 3.97743 37.5755 4.02235C37.5993 4.32682 37.4661 4.65625 37.3804 4.92578C37.3329 5.2552 37.2187 5.50976 37.1568 5.8292C36.9808 6.41319 36.8476 7.03211 36.6668 7.6111C36.5289 8.23002 36.3433 8.79903 36.2006 9.41795C36.1055 9.70246 36.0388 10.0169 35.9532 10.3214C35.8581 10.6009 35.8248 10.9453 35.682 11.1749H34.9922C34.8162 10.8505 34.7544 10.4112 34.5974 10.0668C34.2548 8.92881 33.8742 7.83571 33.5412 6.68771C33.4271 6.81249 33.4271 7.06705 33.3462 7.22677C33.2938 7.42143 33.2415 7.61609 33.1749 7.79578C33.0798 8.19009 32.937 8.52451 32.8562 8.9288C32.7182 9.28319 32.6183 9.6775 32.5136 10.0668C32.3709 10.4062 32.3186 10.8405 32.1426 11.1499C31.9618 11.2098 31.6763 11.1599 31.4527 11.1749C31.2815 10.9702 31.2624 10.6009 31.1578 10.3214C31.0769 10.0319 31.0198 9.71244 30.9152 9.44291C30.782 8.81401 30.5821 8.25997 30.4489 7.63606C30.2729 7.05707 30.1207 6.45312 29.9589 5.85416C29.8685 5.56966 29.8019 5.26519 29.7115 4.97569C29.6687 4.66623 29.4689 4.38672 29.5403 4.04731C29.5498 4.02235 29.5783 4.00738 29.6069 3.9974ZM39.3167 3.9974C39.702 4.01237 40.1492 3.96246 40.4965 4.02235C40.5821 4.29188 40.5441 4.58138 40.5441 4.87087V10.2864C40.5441 10.5809 40.5774 10.8654 40.4965 11.14C40.2301 11.1699 39.84 11.1849 39.5117 11.1649C39.4166 11.1599 39.3024 11.1899 39.2406 11.115C39.1549 10.8455 39.193 10.561 39.193 10.2615V4.90082C39.193 4.57639 39.1644 4.26193 39.2406 4.04731C39.2596 4.02235 39.2881 4.00738 39.3167 3.9974Z" fill="white"/>
</svg>
