<svg width="12" height="16" viewBox="0 0 12 16" fill="none" xmlns="http://www.w3.org/2000/svg">
<path fill-rule="evenodd" clip-rule="evenodd" d="M0.577375 7.94254C0.577375 7.13041 0.645464 6.61501 2.32736 5.35952C3.7198 4.32008 8.18305 0.768066 8.18305 0.768066V6.69751H11.5772V15.2315H1.6375C1.05444 15.2315 0.577209 14.7542 0.577209 14.1711L0.577375 7.9426V7.94254Z" fill="#FFCF01"/>
<path fill-rule="evenodd" clip-rule="evenodd" d="M8.18298 6.69727V10.133L1.94592 14.382L9.83155 11.8162V6.69727H8.18298Z" fill="#D3AC06"/>
<path fill-rule="evenodd" clip-rule="evenodd" d="M5.33324 6.52008C5.69801 6.08548 6.23069 5.93208 6.52318 6.17749C6.81567 6.42296 6.7572 6.97427 6.39244 7.40888C6.02795 7.84344 5.49505 7.99666 5.20256 7.7512C4.91007 7.50579 4.9687 6.95458 5.33324 6.52003V6.52008Z" fill="#231F20"/>
</svg>
