<svg width="11" height="16" viewBox="0 0 11 16" fill="none" xmlns="http://www.w3.org/2000/svg">
<path fill-rule="evenodd" clip-rule="evenodd" d="M10.0579 6.83408C10.0579 8.59063 9.65669 9.89696 8.85422 10.7531C8.0519 11.606 6.81425 12.0324 5.14125 12.0323C3.57998 12.0323 2.39549 11.6059 1.58779 10.7531C0.780097 9.90029 0.376565 8.61397 0.377198 6.89413V1.12362C0.377323 1.05867 0.403165 0.99641 0.449072 0.950459C0.494978 0.904508 0.557213 0.878606 0.622166 0.878418H3.45235C3.51732 0.878606 3.57958 0.9045 3.62553 0.950444C3.67147 0.996389 3.69737 1.05865 3.69755 1.12362V7.02017C3.69755 7.72232 3.8274 8.26282 4.09183 8.64404C4.22304 8.81792 4.39221 8.95957 4.58646 9.05817C4.7807 9.15676 4.9949 9.20972 5.21271 9.21299C5.43052 9.21627 5.64621 9.16977 5.84333 9.07706C6.04045 8.98434 6.21381 8.84785 6.35018 8.67798C6.6086 8.32018 6.73742 7.79298 6.73662 7.09637V5.99235H10.0579V6.83408Z" fill="white"/>
<path fill-rule="evenodd" clip-rule="evenodd" d="M9.80087 5.34719H6.73688V1.13551C6.73707 1.06747 6.76419 1.00227 6.81233 0.954186C6.86046 0.906099 6.92568 0.879032 6.99371 0.878906H7.45232C7.45276 1.56949 7.7274 2.23163 8.21587 2.71979C8.70434 3.20794 9.36665 3.48216 10.0572 3.48216V5.34719H9.80087Z" fill="white"/>
<path fill-rule="evenodd" clip-rule="evenodd" d="M8.1049 0.878906H9.80093C9.86892 0.879094 9.93408 0.906189 9.98216 0.95427C10.0302 1.00235 10.0573 1.06751 10.0575 1.13551V2.83414C9.53953 2.83414 9.04276 2.62837 8.67648 2.26209C8.3102 1.89581 8.10443 1.39904 8.10443 0.881043L8.1049 0.878906Z" fill="#F4821F"/>
<path fill-rule="evenodd" clip-rule="evenodd" d="M0.93241 14.8345C1.30722 14.8345 1.48833 14.6256 1.48833 14.3192V13.5807H1.2201V14.312C1.21795 14.3873 1.18655 14.4587 1.13259 14.5111C1.07863 14.5635 1.00635 14.5929 0.931104 14.5929C0.855859 14.5929 0.783579 14.5635 0.729616 14.5111C0.675653 14.4587 0.64426 14.3873 0.642104 14.312V13.5807H0.377197V14.3213C0.377197 14.624 0.558075 14.8345 0.932885 14.8345H0.93241ZM3.10721 14.8122V14.5824H2.51354L3.0951 13.7917V13.5812H2.16935V13.8121H2.75091L2.16912 14.6005V14.8122H3.10721ZM4.3603 14.8345C4.46583 14.8369 4.56994 14.8098 4.66093 14.7563C4.75193 14.7028 4.82619 14.625 4.87539 14.5316L4.64989 14.4227C4.62239 14.476 4.58088 14.5208 4.52982 14.5524C4.47875 14.5839 4.42007 14.6009 4.36006 14.6016C4.2566 14.596 4.15923 14.551 4.08798 14.4758C4.01673 14.4005 3.97702 14.3009 3.97702 14.1973C3.97702 14.0937 4.01673 13.994 4.08798 13.9188C4.15923 13.8436 4.2566 13.7985 4.36006 13.7929C4.42001 13.794 4.47855 13.8112 4.52955 13.8428C4.58055 13.8743 4.62211 13.919 4.64989 13.9721L4.87587 13.8613C4.82673 13.768 4.75242 13.6903 4.66137 13.6371C4.57032 13.5839 4.46618 13.5573 4.36077 13.5603C4.19339 13.5577 4.03172 13.6211 3.9107 13.7368C3.78968 13.8525 3.71903 14.0111 3.71401 14.1784C3.70899 14.3458 3.77001 14.5084 3.88388 14.6311C3.99774 14.7538 4.15532 14.8268 4.32255 14.8343C4.33537 14.8343 4.34795 14.8343 4.36077 14.8343L4.3603 14.8345ZM6.65093 14.8122L6.17619 13.5807H5.8479L5.3715 14.8122H5.67059L5.74797 14.6035H6.27612L6.35184 14.8122H6.65093ZM6.2042 14.3728H5.81989L6.01217 13.8428L6.2042 14.3728ZM8.42101 15.1212L7.97001 14.3436C8.05075 14.3241 8.12203 14.2768 8.17131 14.2099C8.22058 14.1431 8.2447 14.061 8.23942 13.9781C8.24136 13.9277 8.23336 13.8775 8.21588 13.8303C8.1984 13.783 8.17178 13.7397 8.13755 13.7028C8.10331 13.6658 8.06213 13.636 8.01636 13.6149C7.97059 13.5939 7.92112 13.5821 7.87079 13.5802C7.85585 13.5793 7.84086 13.5793 7.82592 13.5802H7.24887V14.8117H7.50998V14.3747H7.70202L8.11884 15.121L8.42101 15.1212ZM7.78628 14.1442H7.51117V13.8119H7.78557C7.80739 13.8096 7.82945 13.8116 7.85048 13.8179C7.87152 13.8241 7.89112 13.8344 7.90817 13.8482C7.92522 13.862 7.93938 13.8791 7.94985 13.8984C7.96032 13.9176 7.96689 13.9388 7.96918 13.9606C7.97147 13.9824 7.96944 14.0045 7.96321 14.0255C7.95697 14.0466 7.94665 14.0662 7.93285 14.0832C7.91904 14.1003 7.902 14.1144 7.88272 14.1249C7.86344 14.1354 7.84228 14.1419 7.82046 14.1442C7.80886 14.1454 7.79717 14.1454 7.78557 14.1442H7.78628ZM9.40492 14.8124C9.79089 14.8124 10.0586 14.5689 10.0586 14.1976C10.0586 13.8264 9.79041 13.5805 9.40492 13.5805H8.91949V14.8119L9.40492 14.8124ZM9.40492 14.5817H9.18155V13.8119H9.40492C9.50016 13.8048 9.59431 13.8359 9.66668 13.8982C9.73905 13.9605 9.78372 14.049 9.79089 14.1442C9.79231 14.1618 9.79231 14.1795 9.79089 14.1972C9.79309 14.2456 9.7857 14.2941 9.76915 14.3397C9.7526 14.3853 9.72722 14.4272 9.69445 14.463C9.66169 14.4988 9.62218 14.5277 9.5782 14.5482C9.53422 14.5687 9.48663 14.5803 9.43815 14.5824C9.42684 14.583 9.41551 14.583 9.40421 14.5824L9.40492 14.5817Z" fill="white"/>
<path fill-rule="evenodd" clip-rule="evenodd" d="M10.3771 13.558V13.5621C10.3772 13.6075 10.3638 13.6519 10.3387 13.6897C10.3135 13.7275 10.2777 13.757 10.2357 13.7745C10.1938 13.7919 10.1476 13.7965 10.1031 13.7877C10.0585 13.7789 10.0176 13.7571 9.98543 13.725C9.95328 13.6929 9.93137 13.652 9.92248 13.6075C9.91358 13.563 9.9181 13.5168 9.93546 13.4748C9.95282 13.4328 9.98224 13.397 10.02 13.3717C10.0578 13.3465 10.1021 13.333 10.1476 13.333H10.3769L10.3771 13.558Z" fill="white"/>
</svg>
