<svg width="41" height="12" viewBox="0 0 41 12" fill="none" xmlns="http://www.w3.org/2000/svg">
<path fill-rule="evenodd" clip-rule="evenodd" d="M38.7464 4.61969C38.3642 4.78958 37.9819 4.91699 37.5997 5.00193L36.9202 5.17181C36.5804 5.25676 36.3256 5.38417 36.1557 5.55405C36.0283 5.76641 35.9433 5.97876 35.9433 6.19112C35.9433 6.44595 36.0283 6.70077 36.1982 6.91313C36.368 7.08301 36.6229 7.16795 36.9626 7.16795C37.5148 7.16795 37.9395 6.99807 38.2368 6.70077C38.5341 6.40347 38.704 5.93629 38.704 5.38417V4.61969H38.7464ZM39.2136 8.2722C38.7889 8.48456 38.3642 8.61197 37.897 8.65444C37.5148 8.69691 37.09 8.73938 36.6653 8.73938C35.9858 8.73938 35.3487 8.52703 34.8391 8.14479C34.3294 7.76255 34.0321 7.12548 34.0321 6.23359C34.0321 5.38417 34.287 4.78958 34.7541 4.44981C35.2213 4.11004 35.8584 3.85521 36.5804 3.7278C36.7078 3.7278 36.8352 3.7278 36.9202 3.68533C37.0901 3.64286 37.2175 3.64286 37.3874 3.60039C38.2368 3.47297 38.6615 3.21815 38.6615 2.83591C38.6615 2.53861 38.4916 2.32625 38.1943 2.24131C37.9395 2.15637 37.6422 2.1139 37.3449 2.1139C37.0901 2.1139 36.8352 2.15637 36.6229 2.24131C36.4105 2.32625 36.2406 2.49614 36.1557 2.70849H34.202C34.287 2.1139 34.5418 1.56178 35.009 1.17954C35.5186 0.712355 36.2831 0.5 37.2599 0.5C38.3642 0.5 39.1711 0.669884 39.7233 1.05212C40.2754 1.43436 40.5727 1.98649 40.5727 2.70849V5.42664C40.5727 6.23359 40.4453 6.82819 40.148 7.29537C39.9781 7.72008 39.6383 8.05984 39.2136 8.2722ZM29.6576 8.61197V4.78958C29.6576 4.0251 29.785 3.34556 29.9974 2.83591C30.2097 2.32625 30.507 1.90154 30.9317 1.56178C31.314 1.26448 31.7387 1.05212 32.2484 0.92471C32.758 0.797297 33.2677 0.712355 33.7773 0.712355H34.0321V2.83591H33.3526C32.8005 2.83591 32.3758 2.96332 32.0785 3.26062C31.8236 3.55791 31.6538 3.98263 31.6538 4.57722V8.65444L29.6576 8.61197ZM27.4491 4.61969C27.0669 4.78958 26.6846 4.91699 26.3024 5.00193L25.6229 5.17181C25.2831 5.25676 25.0283 5.38417 24.8584 5.55405C24.731 5.76641 24.646 5.97876 24.646 6.19112C24.646 6.44595 24.731 6.70077 24.9009 6.91313C25.0707 7.08301 25.3256 7.16795 25.6653 7.16795C26.2175 7.16795 26.6422 6.99807 26.9395 6.70077C27.2368 6.40347 27.4067 5.93629 27.4067 5.38417L27.4491 4.61969ZM27.9163 8.2722C27.4916 8.48456 27.0669 8.61197 26.5997 8.65444C26.2175 8.69691 25.7928 8.73938 25.368 8.73938C24.6885 8.73938 24.0514 8.52703 23.5418 8.14479C23.0321 7.76255 22.7348 7.12548 22.7348 6.23359C22.7348 5.38417 22.9897 4.78958 23.4568 4.44981C23.924 4.11004 24.5611 3.85521 25.2831 3.7278C25.4105 3.7278 25.5379 3.7278 25.6229 3.68533C25.7928 3.64286 25.9202 3.64286 26.0901 3.60039C26.9395 3.47297 27.3642 3.21815 27.3642 2.83591C27.3642 2.53861 27.1943 2.32625 26.897 2.24131C26.6422 2.15637 26.3449 2.1139 26.0476 2.1139C25.7928 2.1139 25.5379 2.15637 25.3256 2.24131C25.1132 2.32625 24.9433 2.49614 24.8584 2.70849H22.9897C23.0746 2.1139 23.3294 1.56178 23.7966 1.17954C24.3063 0.712355 25.0707 0.5 26.0476 0.5C27.1518 0.5 27.9588 0.669884 28.5109 1.05212C29.063 1.43436 29.3603 1.98649 29.3603 2.70849V5.42664C29.3603 6.23359 29.2329 6.82819 28.9356 7.29537C28.6808 7.72008 28.341 8.05984 27.9163 8.2722ZM20.6113 4.66216C20.6113 3.89768 20.4839 3.30309 20.1866 2.87838C19.8893 2.45367 19.4646 2.24131 18.9124 2.24131C18.4028 2.24131 17.9781 2.45367 17.6808 2.87838C17.426 3.26062 17.2561 3.85521 17.2561 4.66216C17.2561 5.42664 17.3835 5.97876 17.6808 6.361C17.9781 6.78571 18.4028 6.99807 18.9549 6.99807C19.4221 6.99807 19.8893 6.78571 20.1441 6.361C20.4414 5.93629 20.6113 5.38417 20.6113 4.66216ZM17.2561 10.4807C17.2561 10.7355 17.1711 10.9903 16.9588 11.2027C16.7889 11.4151 16.5341 11.5 16.2368 11.5H15.2599V4.11004C15.2599 2.70849 15.6422 1.77413 16.4491 1.26448C17.2136 0.754826 18.148 0.5 19.0399 0.5C19.5495 0.5 20.0592 0.584942 20.5263 0.797297C20.9935 0.967181 21.3758 1.22201 21.7155 1.60425C22.3101 2.36873 22.6074 3.38803 22.6074 4.57722C22.6074 5.80888 22.3101 6.82819 21.7155 7.59266C21.1209 8.35714 20.3989 8.73938 19.4646 8.73938C19.0399 8.73938 18.5727 8.65444 18.1904 8.48456C17.8082 8.2722 17.4684 7.9749 17.2561 7.55019V10.4807ZM13.0939 4.61969C12.7117 4.78958 12.3294 4.91699 11.9472 5.00193L11.2677 5.12934C10.9279 5.21429 10.6731 5.3417 10.5032 5.51158C10.3758 5.72394 10.2908 5.93629 10.2908 6.14865C10.2908 6.40347 10.3758 6.6583 10.5457 6.87066C10.7155 7.04054 10.9704 7.12548 11.3101 7.12548C11.8623 7.12548 12.287 6.9556 12.5843 6.6583C12.8816 6.361 13.0514 5.89382 13.0514 5.3417L13.0939 4.61969ZM13.5611 8.2722C13.1364 8.48456 12.7117 8.61197 12.2445 8.65444C11.8623 8.69691 11.4375 8.73938 11.0128 8.73938C10.3333 8.73938 9.69623 8.52703 9.18658 8.14479C8.67692 7.76255 8.37963 7.12548 8.37963 6.23359C8.37963 5.38417 8.63445 4.78958 9.10163 4.44981C9.56882 4.11004 10.2059 3.85521 10.9279 3.7278C11.0553 3.7278 11.1827 3.7278 11.2677 3.68533C11.3951 3.64286 11.565 3.64286 11.7348 3.60039C12.5843 3.47297 13.009 3.21815 13.009 2.83591C13.009 2.53861 12.8391 2.32625 12.5418 2.24131C12.287 2.15637 11.9897 2.1139 11.6924 2.1139C11.4375 2.1139 11.1827 2.15637 10.9704 2.24131C10.758 2.32625 10.5881 2.49614 10.5032 2.70849H8.54951C8.63445 2.1139 8.88928 1.56178 9.35646 1.17954C9.86611 0.712355 10.6306 0.5 11.6074 0.5C12.7117 0.5 13.5186 0.669884 14.0707 1.05212C14.6229 1.43436 14.9202 1.98649 14.9202 2.70849V5.42664C14.9202 6.23359 14.7928 6.82819 14.4955 7.29537C14.3256 7.72008 13.9858 8.05984 13.5611 8.2722ZM2.90086 10.4807C2.90086 10.7355 2.81592 10.9903 2.60357 11.2027C2.43368 11.4151 2.17886 11.5 1.88156 11.5H0.904724V4.11004C0.904724 2.70849 1.28696 1.77413 2.09391 1.26448C2.85839 0.754826 3.79275 0.5 4.68465 0.5C5.1943 0.5 5.70395 0.584942 6.17113 0.797297C6.63831 0.967181 7.02055 1.22201 7.36032 1.60425C7.95492 2.36873 8.25221 3.38803 8.25221 4.57722C8.25221 5.80888 7.95492 6.82819 7.36032 7.59266C6.76573 8.35714 6.04372 8.73938 5.10936 8.73938C4.68465 8.73938 4.21747 8.65444 3.83523 8.48456C3.45299 8.2722 3.11322 7.9749 2.90086 7.55019V10.4807ZM6.2136 4.66216C6.2136 3.89768 6.08619 3.30309 5.78889 2.87838C5.4916 2.45367 5.06689 2.24131 4.51476 2.24131C4.00511 2.24131 3.5804 2.45367 3.2831 2.87838C3.02828 3.26062 2.85839 3.85521 2.85839 4.66216C2.85839 5.42664 2.98581 5.97876 3.2831 6.361C3.5804 6.78571 4.00511 6.99807 4.55723 6.99807C5.02442 6.99807 5.4916 6.78571 5.74642 6.361C6.08619 5.93629 6.2136 5.38417 6.2136 4.66216Z" fill="white"/>
</svg>
