<svg width="47" height="14" viewBox="0 0 47 14" fill="none" xmlns="http://www.w3.org/2000/svg">
<path d="M38.8328 2.52197C39.5608 2.52197 40.2535 2.68877 40.8751 2.98714C40.9725 3.03112 41.0707 3.08375 41.1678 3.13643L40.7416 3.51396L40.1027 2.85561L39.0017 3.82107L38.3534 3.12755L36.3289 4.92704L37.6251 6.34025L37.1191 6.77903L38.3978 8.19224L37.8918 8.63084L39.721 10.641L40.8036 9.65782L41.7453 10.7114C41.5587 10.8519 41.3544 10.9926 41.1327 11.1153C40.4578 11.4927 39.6763 11.7117 38.8418 11.7117C36.2755 11.7117 34.1892 9.64939 34.1892 7.11289C34.1801 4.59353 36.2668 2.52197 38.8328 2.52197ZM37.9803 6.8318L39.0902 5.84866L40.0849 6.94582L38.9747 7.92888L37.9803 6.8318ZM38.7707 8.72782L39.8716 7.73597L40.8751 8.83305L39.7651 9.81624L38.7707 8.72782ZM37.1905 4.96227L38.3001 3.97912L39.2945 5.07629L38.1846 6.05939L37.1905 4.96227ZM39.2234 4.43544L40.0492 3.69816L40.7953 4.51451L39.9694 5.2605L39.2234 4.43544ZM40.6975 7.81481L41.5231 7.07748L42.269 7.90235L41.4432 8.64014L40.6975 7.81481ZM41.4255 9.47394L42.2514 8.73648L42.9968 9.55278L42.1712 10.2987L41.4255 9.47394ZM41.763 5.68186L42.3134 5.19027L42.8105 5.73468L42.2601 6.22609L41.763 5.68186ZM41.0526 4.05801L41.6031 3.5578L42.1005 4.11069L41.5496 4.60224L41.0526 4.05801ZM42.4643 7.30585L43.0148 6.8143L43.5208 7.35853L42.9617 7.84995L42.4643 7.30585ZM39.9871 6.08573L40.813 5.3484L41.5587 6.16457L40.7331 6.90203L39.9871 6.08573Z" fill="white"/>
<mask id="mask0" mask-type="alpha" maskUnits="userSpaceOnUse" x="3" y="4" width="6" height="5">
<path d="M3.43396 4.43115V8.67384H8.28706V4.43115H3.43396Z" fill="white"/>
</mask>
<g mask="url(#mask0)">
<path d="M5.86949 5.68746H5.82761L5.04134 8.67384H4.39867L3.43396 4.43115H4.10076L4.76772 7.59691H4.80937L5.58334 4.43115H6.11347L6.94118 7.59691H6.98286L7.59032 4.43115H8.28706L7.32211 8.67384H6.67895L5.86949 5.68746Z" fill="white"/>
</g>
<path d="M9.1332 6.86734H10.4965C10.467 6.2392 10.1631 5.9881 9.84168 5.9881C9.47846 5.9881 9.19841 6.26928 9.1332 6.86734ZM10.9728 7.99268V8.44754C10.7049 8.60309 10.3479 8.72285 9.91887 8.72285C8.91877 8.72285 8.50793 8.10051 8.50793 7.15513C8.50793 6.24517 8.96633 5.58691 9.85954 5.58691C10.6036 5.58691 11.0624 6.07195 11.0624 7.04712V7.26856H9.12126C9.12126 7.98643 9.41285 8.30367 10.0264 8.30367C10.3479 8.30367 10.6456 8.18978 10.9728 7.99268Z" fill="white"/>
<path d="M12.447 8.24321C12.6376 8.32697 12.8461 8.33937 12.9952 8.33937C13.4358 8.33937 13.7688 8.0637 13.7688 7.09454C13.7688 6.33456 13.495 6.0892 13.0962 6.0892C12.8578 6.0892 12.6852 6.15523 12.447 6.28662V8.24321H12.447ZM12.4532 5.84393C12.6314 5.7485 12.9351 5.62239 13.2567 5.62239C13.9952 5.62239 14.3942 6.137 14.3942 7.09454C14.3942 8.21363 13.8582 8.75818 12.9952 8.75818C12.6794 8.75818 12.1911 8.65641 11.8337 8.46451V4.28806L12.4532 4.13867V5.84393H12.4532Z" fill="white"/>
<path d="M17.0744 7.7738H17.1042L18.3783 4.42871H19.117V8.67172H18.4739V5.59569H18.4203L17.2053 8.67172H16.8246L15.6094 5.66761H15.556V8.67172H15.0201V4.42871H15.7408L17.0744 7.7738Z" fill="white"/>
<path d="M21.7444 7.15495C21.7444 6.34716 21.4172 6.00624 21.0123 6.00624C20.6194 6.00624 20.2797 6.34717 20.2797 7.15495C20.2797 7.97486 20.5897 8.30367 21.0123 8.30367C21.4348 8.30367 21.7444 7.97486 21.7444 7.15495ZM19.6547 7.15495C19.6547 6.10736 20.2265 5.58691 21.0123 5.58691C21.7985 5.58691 22.37 6.10736 22.37 7.15495C22.37 8.17802 21.8282 8.72285 21.0123 8.72285C20.1965 8.72285 19.6547 8.17802 19.6547 7.15495Z" fill="white"/>
<path d="M22.8411 6.03007C23.109 5.86823 23.675 5.58691 24.3596 5.58691C25.0741 5.58691 25.3415 5.86823 25.3415 6.48443V8.65096H24.7227V6.62224C24.7227 6.1496 24.4909 6.06584 24.1868 6.06584C23.9489 6.06584 23.6449 6.17371 23.4604 6.28139V8.65096H22.8411V6.03007H22.8411Z" fill="white"/>
<path d="M26.6521 6.86734H28.0155C27.9862 6.2392 27.6822 5.9881 27.3606 5.9881C26.9973 5.9881 26.7178 6.26928 26.6521 6.86734ZM28.4917 7.99268V8.44754C28.224 8.60309 27.8667 8.72285 27.4379 8.72285C26.4381 8.72285 26.027 8.10051 26.027 7.15513C26.027 6.24517 26.4852 5.58691 27.3785 5.58691C28.1231 5.58691 28.5817 6.07195 28.5817 7.04712V7.26856H26.6403C26.6403 7.98643 26.9321 8.30367 27.5455 8.30367C27.8667 8.30367 28.1648 8.18978 28.4917 7.99268Z" fill="white"/>
<path d="M31.0555 5.58691H31.6928L30.6149 8.57856C30.3168 9.40444 29.954 9.83533 29.2693 9.83533V9.34496C29.6745 9.34496 29.9242 9.02167 30.0674 8.57856L28.9241 5.58691H29.5792L30.3413 7.78901H30.377L31.0555 5.58691Z" fill="white"/>
<path d="M9.866 11.4316V11.1732C10.0868 11.2853 10.2969 11.3416 10.496 11.3416C10.6618 11.3416 10.7888 11.3112 10.8776 11.2498C10.9664 11.1889 11.0108 11.1064 11.0108 11.0022C11.0108 10.898 10.9743 10.8199 10.9013 10.7679C10.8284 10.716 10.6923 10.6517 10.4931 10.5755C10.424 10.5495 10.3798 10.5326 10.3599 10.5246C10.3402 10.5167 10.3018 10.5005 10.2445 10.4766C10.1874 10.4527 10.1499 10.4345 10.1322 10.4226C10.1144 10.4102 10.0844 10.3921 10.0419 10.3684C9.99958 10.3441 9.97101 10.3228 9.95613 10.3041C9.9415 10.2848 9.92115 10.2606 9.89549 10.2316C9.86991 10.2027 9.85259 10.174 9.84368 10.1447C9.83488 10.1157 9.82638 10.0822 9.81859 10.044C9.81077 10.0058 9.80676 9.96492 9.80676 9.92086C9.80676 9.7506 9.86945 9.61379 9.99459 9.50951C10.1199 9.40561 10.2929 9.35352 10.5138 9.35352C10.709 9.35352 10.9034 9.38947 11.0965 9.46161V9.73473C10.9092 9.64249 10.7218 9.59683 10.5345 9.59683C10.4024 9.59683 10.3037 9.6244 10.2387 9.68041C10.1736 9.73642 10.141 9.81052 10.141 9.90275C10.141 10.0009 10.1736 10.0753 10.2387 10.1265C10.3037 10.1779 10.4202 10.2344 10.5878 10.2963C10.8756 10.4025 11.0739 10.4985 11.1823 10.5848C11.2908 10.6706 11.345 10.7991 11.345 10.969C11.345 11.1474 11.2706 11.2932 11.1217 11.4063C10.9728 11.5194 10.7683 11.576 10.5079 11.576C10.2693 11.576 10.0553 11.5277 9.866 11.4316ZM12.8759 11.5305H12.5949L12.5742 11.3564C12.4045 11.4967 12.2349 11.5669 12.0653 11.5669C11.9234 11.5669 11.8134 11.5284 11.7356 11.4511C11.6576 11.374 11.6187 11.2767 11.6187 11.1582C11.6187 11.0961 11.63 11.0367 11.6527 10.9796C11.6754 10.9225 11.7129 10.8671 11.7651 10.813C11.8173 10.7589 11.8962 10.7155 12.0017 10.6823C12.1072 10.6491 12.234 10.6327 12.3819 10.6327H12.5654V10.5516C12.5654 10.4175 12.5407 10.3261 12.4914 10.2768C12.442 10.2277 12.3592 10.2032 12.2429 10.2032C12.1009 10.2032 11.9263 10.262 11.7193 10.3805V10.1402C11.9323 10.0422 12.1413 9.99272 12.3463 9.99272C12.5455 9.99272 12.6837 10.034 12.7604 10.1163C12.8375 10.1982 12.8759 10.3225 12.8759 10.4883V11.5305ZM12.5683 10.8428H12.4114C12.088 10.8428 11.9263 10.94 11.9263 11.1343C11.9263 11.2026 11.9479 11.2516 11.9914 11.2828C12.0348 11.314 12.0891 11.3293 12.1542 11.3293C12.2369 11.3293 12.3168 11.3093 12.3937 11.2691C12.4706 11.2293 12.5289 11.1833 12.5683 11.1312V10.8428H12.5683ZM13.3566 12.1314V10.2124C13.4434 10.1462 13.5458 10.0929 13.6643 10.0529C13.7827 10.0132 13.8988 9.99272 14.0134 9.99272C14.4234 9.99272 14.6286 10.2441 14.6286 10.7469C14.6286 11.0072 14.5754 11.2064 14.4688 11.3443C14.3624 11.4826 14.2097 11.5514 14.0103 11.5514C13.8722 11.5514 13.7569 11.5164 13.6643 11.4467V12.1314H13.3566ZM13.6613 10.3142V11.2246C13.7008 11.2624 13.7505 11.2906 13.8107 11.3098C13.8709 11.3288 13.9236 11.3383 13.9689 11.3383C14.0773 11.3383 14.1627 11.296 14.2249 11.2109C14.287 11.1256 14.3179 10.971 14.3179 10.7469C14.3179 10.5647 14.2861 10.4312 14.222 10.3476C14.1579 10.2632 14.0744 10.2213 13.9719 10.2213C13.8557 10.2213 13.7522 10.2522 13.6613 10.3142ZM15.3342 10.0082V11.5305H15.0266V10.0831L15.3342 10.0082ZM14.9792 9.56643C14.9792 9.51238 14.9994 9.46499 15.0398 9.4237C15.0803 9.38268 15.1272 9.36208 15.1802 9.36208C15.2336 9.36208 15.2804 9.38268 15.3209 9.4237C15.3614 9.46499 15.3815 9.51238 15.3815 9.56643C15.3815 9.62048 15.3614 9.6682 15.3209 9.7094C15.2804 9.75005 15.2336 9.77065 15.1802 9.77065C15.1272 9.77065 15.0803 9.75005 15.0398 9.7094C14.9994 9.66819 14.9792 9.62048 14.9792 9.56643ZM16.4864 11.3564C16.6285 11.3564 16.7851 11.3043 16.9567 11.2004V11.4286C16.799 11.5208 16.6245 11.5669 16.4332 11.5669C16.1926 11.5669 16.0156 11.4977 15.9022 11.3595C15.7888 11.2212 15.7321 11.0281 15.7321 10.7798C15.7321 10.5435 15.7903 10.3531 15.9065 10.2094C16.023 10.0652 16.1885 9.99271 16.4035 9.99271C16.593 9.99271 16.7397 10.055 16.8445 10.1792C16.9489 10.3036 17.0011 10.4855 17.0011 10.7257V10.837H16.0368C16.0368 11.0153 16.0733 11.1466 16.1462 11.2302C16.2192 11.3146 16.3326 11.3564 16.4864 11.3564ZM16.3946 10.1943C16.3021 10.1943 16.2241 10.2314 16.1609 10.3052C16.0979 10.3794 16.0584 10.4897 16.0427 10.6354H16.72C16.7121 10.4875 16.6777 10.3771 16.6165 10.3041C16.5555 10.2308 16.4815 10.1943 16.3946 10.1943ZM17.393 11.5305V10.2153C17.6355 10.067 17.887 9.99272 18.1474 9.99272C18.323 9.99272 18.4481 10.029 18.523 10.1012C18.598 10.1733 18.6355 10.2873 18.6355 10.4434V11.5305H18.3279V10.5125C18.3279 10.4025 18.3051 10.3283 18.2598 10.2904C18.2144 10.2522 18.1484 10.2333 18.0616 10.2333C17.9433 10.2333 17.823 10.2695 17.7008 10.3415V11.5305H17.393V11.5305ZM19.409 10.0652H19.8764L19.8024 10.2695H19.409V11.0621C19.409 11.2624 19.4938 11.3625 19.6634 11.3625C19.7285 11.3625 19.7945 11.3486 19.8618 11.3205V11.5125C19.769 11.5487 19.6585 11.5669 19.5304 11.5669C19.3824 11.5669 19.274 11.5242 19.2049 11.4388C19.1359 11.3541 19.1014 11.2424 19.1014 11.1039V9.8668L19.409 9.64131V10.0652H19.409ZM20.4786 10.0082V11.5305H20.1709V10.0831L20.4786 10.0082ZM20.1236 9.56643C20.1236 9.51238 20.1438 9.46499 20.184 9.4237C20.2244 9.38268 20.2713 9.36208 20.3247 9.36208C20.3778 9.36208 20.4248 9.38268 20.4651 9.4237C20.5056 9.46499 20.5258 9.51238 20.5258 9.56643C20.5258 9.62048 20.5056 9.6682 20.4651 9.7094C20.4248 9.75005 20.3778 9.77065 20.3247 9.77065C20.2713 9.77065 20.2244 9.75005 20.184 9.7094C20.1438 9.66819 20.1236 9.62048 20.1236 9.56643ZM22.5729 10.1131V10.3531C22.425 10.2531 22.275 10.2032 22.1233 10.2032C22.0464 10.2032 21.9833 10.2182 21.9339 10.2483C21.8846 10.2781 21.86 10.3264 21.86 10.3921C21.86 10.4546 21.887 10.504 21.9412 10.541C21.9955 10.5781 22.0808 10.6157 22.1973 10.6534C22.2624 10.6755 22.3111 10.6926 22.3436 10.7046C22.3762 10.7169 22.419 10.7369 22.4723 10.7648C22.5255 10.7929 22.5655 10.8207 22.5921 10.8489C22.6188 10.8771 22.6429 10.9139 22.6646 10.9601C22.6863 11.0061 22.697 11.057 22.697 11.1131C22.697 11.2514 22.6423 11.3615 22.5331 11.4436C22.4236 11.5257 22.277 11.5669 22.0938 11.5669C21.8886 11.5669 21.7179 11.5228 21.5819 11.4344V11.2004C21.7554 11.3043 21.9142 11.3564 22.0583 11.3564C22.275 11.3564 22.3836 11.2845 22.3836 11.1402C22.3836 11.1123 22.3771 11.086 22.3643 11.0621C22.3515 11.0381 22.3367 11.0186 22.32 11.0035C22.3032 10.9885 22.276 10.9716 22.2385 10.9523C22.201 10.9336 22.1696 10.9197 22.1439 10.9105C22.1183 10.9016 22.0779 10.8871 22.0227 10.8671C21.9418 10.837 21.8777 10.8111 21.8303 10.7889C21.7829 10.7667 21.7358 10.7383 21.6884 10.7034C21.641 10.6683 21.6064 10.6265 21.5849 10.5786C21.5632 10.5307 21.5523 10.4735 21.5523 10.4075C21.5523 10.3234 21.572 10.2515 21.6115 10.1916C21.6509 10.1311 21.7023 10.0881 21.7652 10.0621C21.8284 10.036 21.8861 10.0179 21.9383 10.0082C21.9906 9.99783 22.0424 9.99272 22.0938 9.99272C22.2614 9.99272 22.4211 10.0329 22.5729 10.1131ZM24.2072 11.5305H23.9263L23.9055 11.3564C23.7357 11.4967 23.5663 11.5669 23.3968 11.5669C23.2548 11.5669 23.1448 11.5284 23.0669 11.4511C22.9889 11.374 22.9501 11.2767 22.9501 11.1582C22.9501 11.0961 22.9614 11.0367 22.9841 10.9796C23.0068 10.9225 23.0442 10.8671 23.0965 10.813C23.1489 10.7589 23.2276 10.7155 23.3331 10.6823C23.4387 10.6491 23.5654 10.6327 23.7131 10.6327H23.8968V10.5516C23.8968 10.4175 23.872 10.3261 23.8229 10.2768C23.7733 10.2277 23.6905 10.2032 23.5744 10.2032C23.4323 10.2032 23.2577 10.262 23.0507 10.3805V10.1402C23.2637 10.0422 23.4727 9.99272 23.6777 9.99272C23.877 9.99272 24.0149 10.034 24.0918 10.1163C24.1687 10.1982 24.2072 10.3225 24.2072 10.4883V11.5305H24.2072ZM23.8999 10.8428H23.7429C23.4194 10.8428 23.2577 10.94 23.2577 11.1343C23.2577 11.2026 23.2794 11.2516 23.3227 11.2828C23.3662 11.314 23.4203 11.3293 23.4855 11.3293C23.5683 11.3293 23.6479 11.3093 23.7251 11.2691C23.802 11.2293 23.8603 11.1833 23.8999 11.1312V10.8428H23.8999ZM24.981 10.0652H25.4483L25.3742 10.2695H24.981V11.0621C24.981 11.2624 25.0657 11.3625 25.2351 11.3625C25.3003 11.3625 25.3661 11.3486 25.4335 11.3205V11.5125C25.3407 11.5487 25.2304 11.5669 25.1019 11.5669C24.9542 11.5669 24.8458 11.5242 24.7768 11.4388C24.7077 11.3541 24.673 11.2424 24.673 11.1039V9.8668L24.981 9.64131V10.0652H24.981Z" fill="#B6B6B6"/>
</svg>
