<svg width="31" height="10" viewBox="0 0 31 10" fill="none" xmlns="http://www.w3.org/2000/svg">
<path d="M11.054 9.51465L12.509 0.507616H14.8347L13.3799 9.51465H11.054Z" fill="white"/>
<path d="M21.8166 0.728964C21.3568 0.548292 20.6337 0.351022 19.7327 0.351022C17.4334 0.351022 15.8148 1.57334 15.8014 3.32367C15.7867 4.61821 16.9564 5.34019 17.8382 5.77062C18.7444 6.21166 19.0489 6.49402 19.0453 6.8884C19.0391 7.49159 18.3219 7.7679 17.6533 7.7679C16.7222 7.7679 16.2276 7.63186 15.4627 7.29558L15.1634 7.15218L14.8383 9.16848C15.3806 9.41929 16.3859 9.63706 17.4293 9.64844C19.8729 9.64844 21.4608 8.44101 21.4794 6.57196C21.4879 5.54537 20.8681 4.76701 19.5259 4.12462C18.7132 3.70694 18.2145 3.4303 18.22 3.00756C18.2206 2.63324 18.6415 2.23249 19.5523 2.23249C20.313 2.22034 20.8638 2.39546 21.2928 2.5785L21.5016 2.68156L21.8166 0.728964Z" fill="white"/>
<path d="M24.9129 6.32155C25.1058 5.80394 25.8395 3.80418 25.8395 3.80418C25.8258 3.82776 26.0311 3.2824 26.1484 2.9448L26.3055 3.72151C26.3055 3.72151 26.7518 5.87127 26.8437 6.32155C26.4816 6.32155 25.3672 6.32155 24.9129 6.32155ZM27.7822 0.517245H25.9847C25.4274 0.517245 25.0101 0.67659 24.7659 1.26384L21.3121 9.51807H23.7547C23.7547 9.51807 24.1533 8.40776 24.2438 8.16399C24.5101 8.16399 26.8838 8.16872 27.2226 8.16872C27.2922 8.48296 27.5058 9.51807 27.5058 9.51807H29.6644L27.7822 0.517245Z" fill="white"/>
<path d="M9.10338 0.515469L6.82704 6.65594L6.58321 5.40784C6.15904 3.9695 4.83861 2.41079 3.36157 1.62973L5.44405 9.50684L7.90546 9.50535L11.568 0.515469H9.10338Z" fill="white"/>
<path d="M4.71416 0.509624H0.963806L0.932861 0.696342C3.8512 1.44239 5.78203 3.24339 6.58349 5.4082L5.76856 1.26958C5.62785 0.69876 5.21929 0.529686 4.71416 0.509624Z" fill="white"/>
<path d="M30.3266 8.92616H30.4366C30.5144 8.92616 30.5304 8.88076 30.5304 8.84415C30.5304 8.78122 30.4897 8.76654 30.4262 8.76654H30.3266V8.92616ZM30.2316 8.69668H30.4584C30.5115 8.69668 30.6276 8.71048 30.6276 8.84415C30.6276 8.87944 30.617 8.92946 30.5411 8.96178V8.96458C30.6067 8.97579 30.6102 9.03785 30.614 9.08765C30.6189 9.16724 30.614 9.18131 30.6349 9.20945H30.5363C30.5174 9.19054 30.5216 9.17581 30.5174 9.09243C30.5174 9.04516 30.5115 8.99674 30.4048 8.99674H30.3266V9.20945H30.2316V8.69668H30.2316ZM30.4191 9.39282C30.6523 9.39282 30.8357 9.19906 30.8357 8.95733C30.8357 8.71493 30.6523 8.52139 30.4191 8.52139C30.1858 8.52139 30.0027 8.71493 30.0027 8.95733C30.0028 9.19906 30.1858 9.39282 30.4191 9.39282ZM30.4191 8.44345C30.7068 8.44345 30.9327 8.67376 30.9327 8.95733C30.9327 9.24045 30.7068 9.4707 30.4191 9.4707C30.1315 9.4707 29.9057 9.24051 29.9057 8.95733C29.9058 8.67376 30.1315 8.44345 30.4191 8.44345Z" fill="white"/>
</svg>
