<svg width="36" height="10" viewBox="0 0 36 10" fill="none" xmlns="http://www.w3.org/2000/svg">
<path fill-rule="evenodd" clip-rule="evenodd" d="M10.0969 1.90259e-07V0.004367C10.0925 0.004367 8.71695 1.66581e-07 8.35013 1.31441C8.01389 2.51965 7.06629 5.84716 7.04009 5.93886H6.77808C6.77808 5.93886 5.80865 2.53712 5.46804 1.31004C5.10123 -0.00436666 3.72131 1.90259e-07 3.72131 1.90259e-07H0.577209V10H3.72131V4.06114H3.85232H3.98332L5.81738 10H8.00079L9.83485 4.0655H10.0969V10H13.241V1.90259e-07H10.0969Z" fill="white"/>
<path fill-rule="evenodd" clip-rule="evenodd" d="M21.5817 0C21.5817 0 20.6603 0.0829694 20.228 1.04803L18.0009 5.93886H17.7389V0H14.5948V10H17.5642C17.5642 10 18.5293 9.91266 18.9616 8.95196L21.145 4.06114H21.407V10H24.5511V0H21.5817Z" fill="white"/>
<path fill-rule="evenodd" clip-rule="evenodd" d="M25.9486 4.5415V10H29.0927V6.81225H32.4988C33.9835 6.81225 35.2412 5.86465 35.7084 4.5415H25.9486Z" fill="white"/>
<path fill-rule="evenodd" clip-rule="evenodd" d="M32.4987 0H25.5074C25.8568 1.90393 27.2847 3.43231 29.1319 3.93013C29.5511 4.04367 29.9922 4.1048 30.4463 4.1048H35.835C35.883 3.87773 35.9048 3.64629 35.9048 3.40611C35.9048 1.52402 34.3808 0 32.4987 0Z" fill="url(#paint0_linear)"/>
<defs>
<linearGradient id="paint0_linear" x1="25.5083" y1="2.0524" x2="35.9048" y2="2.0524" gradientUnits="userSpaceOnUse">
<stop offset="0.3" stop-color="#00B4E6"/>
<stop offset="1" stop-color="#088CCB"/>
</linearGradient>
</defs>
</svg>
