<svg width="71" height="71" viewBox="0 0 71 71" fill="none" xmlns="http://www.w3.org/2000/svg">
<path d="M12.3333 14.6667V28.6667V14.6667ZM12.3333 38V52V38ZM12.3333 63.6667V70.6667V63.6667ZM59 63.6667V70.6667V63.6667ZM45 45C42.5246 45 40.1507 44.0167 38.4003 42.2663C36.65 40.516 35.6667 38.142 35.6667 35.6667C35.6667 33.1913 36.65 30.8173 38.4003 29.067C40.1507 27.3167 42.5246 26.3333 45 26.3333C47.4753 26.3333 49.8493 27.3167 51.5996 29.067C53.35 30.8173 54.3333 33.1913 54.3333 35.6667C54.3333 38.142 53.35 40.516 51.5996 42.2663C49.8493 44.0167 47.4753 45 45 45ZM7.66667 3H63.6667C64.9043 3 66.0913 3.49167 66.9665 4.36684C67.8417 5.242 68.3333 6.42899 68.3333 7.66667V59C68.3333 60.2377 67.8417 61.4247 66.9665 62.2998C66.0913 63.175 64.9043 63.6667 63.6667 63.6667H7.66667C6.42899 63.6667 5.242 63.175 4.36683 62.2998C3.49167 61.4247 3 60.2377 3 59V7.66667C3 6.42899 3.49167 5.242 4.36683 4.36684C5.242 3.49167 6.42899 3 7.66667 3V3Z" stroke="black" stroke-width="4.8"/>
</svg>
