<svg width="70" height="70" viewBox="0 0 70 70" fill="none" xmlns="http://www.w3.org/2000/svg">
<path d="M62.2222 54.4445H7.77778V41.4556C6.32965 40.762 5.01362 39.821 3.88889 38.675V54.4445C3.88889 55.4759 4.29861 56.465 5.02792 57.1944C5.75723 57.9237 6.74638 58.3334 7.77778 58.3334H62.2222C63.2536 58.3334 64.2428 57.9237 64.9721 57.1944C65.7014 56.465 66.1111 55.4759 66.1111 54.4445V38.675C64.9946 39.8255 63.6765 40.7614 62.2222 41.4362V54.4445Z" fill="black"/>
<path d="M48.6111 43.5556C49.1268 43.5556 49.6214 43.3507 49.986 42.986C50.3507 42.6214 50.5556 42.1268 50.5556 41.6111V30.9944H46.6667V35H27.2222V38.8889H46.6667V41.6111C46.6667 42.1268 46.8715 42.6214 47.2362 42.986C47.6008 43.3507 48.0954 43.5556 48.6111 43.5556Z" fill="black"/>
<path d="M64.1667 11.6667H46.6667V8.5167C46.6462 7.27207 46.1334 6.08626 45.2405 5.21891C44.3476 4.35155 43.1475 3.87332 41.9028 3.88892H28.0972C26.8525 3.87332 25.6524 4.35155 24.7595 5.21891C23.8666 6.08626 23.3538 7.27207 23.3333 8.5167V11.6667H5.83334C5.31764 11.6667 4.82306 11.8716 4.45841 12.2362C4.09375 12.6009 3.88889 13.0954 3.88889 13.6111V29.1667C3.88889 31.7452 4.91319 34.2181 6.73646 36.0413C8.55973 37.8646 11.0326 38.8889 13.6111 38.8889H19.4444V41.6111C19.4444 42.1268 19.6493 42.6214 20.014 42.9861C20.3786 43.3507 20.8732 43.5556 21.3889 43.5556C21.9046 43.5556 22.3992 43.3507 22.7638 42.9861C23.1285 42.6214 23.3333 42.1268 23.3333 41.6111V30.9945H19.4444V35H13.6111C12.064 35 10.5803 34.3855 9.48632 33.2915C8.39236 32.1975 7.77778 30.7138 7.77778 29.1667V15.5556H62.2222V29.1667C62.2222 30.7138 61.6076 32.1975 60.5137 33.2915C59.4197 34.3855 57.936 35 56.3889 35H54.4444V38.8889H56.3889C58.9674 38.8889 61.4403 37.8646 63.2635 36.0413C65.0868 34.2181 66.1111 31.7452 66.1111 29.1667V13.6111C66.1111 13.0954 65.9062 12.6009 65.5416 12.2362C65.1769 11.8716 64.6824 11.6667 64.1667 11.6667ZM42.7778 11.6667H27.2222V8.61392C27.2322 8.38866 27.3288 8.17597 27.4919 8.02019C27.6549 7.86442 27.8717 7.77759 28.0972 7.77781H41.9222C42.032 7.77523 42.1413 7.7943 42.2437 7.83395C42.3461 7.8736 42.4397 7.93304 42.5192 8.00888C42.5987 8.08472 42.6624 8.17547 42.7068 8.27595C42.7511 8.37643 42.7753 8.48467 42.7778 8.59448V11.6667Z" fill="black"/>
</svg>
