<svg width="24" height="13" viewBox="0 0 24 13" fill="none" xmlns="http://www.w3.org/2000/svg">
<path d="M21.0724 5.1109C21.9479 5.70539 21.9479 6.92383 21.0724 7.51831C19.9314 8.29306 18.3819 9.2478 16.6996 10.0081C15.014 10.7699 13.2145 11.3275 11.5686 11.3275C9.92269 11.3275 8.12323 10.7699 6.43759 10.0081C4.75535 9.2478 3.20581 8.29306 2.06483 7.51831C1.18934 6.92383 1.18934 5.70539 2.06483 5.1109C3.20581 4.33615 4.75535 3.38141 6.43759 2.62114C8.12323 1.85933 9.92269 1.30176 11.5686 1.30176C13.2145 1.30176 15.014 1.85933 16.6996 2.62114C18.3819 3.38141 19.9314 4.33615 21.0724 5.1109Z" stroke="#C4C4C4" stroke-width="0.5"/>
<path d="M14.4735 6.31543C14.4735 7.92151 13.1727 9.22314 11.5684 9.22314C9.96418 9.22314 8.66333 7.92151 8.66333 6.31543C8.66333 4.70935 9.96418 3.40771 11.5684 3.40771C13.1727 3.40771 14.4735 4.70935 14.4735 6.31543Z" stroke="#C4C4C4" stroke-width="0.5"/>
</svg>
