<svg width="24" height="24" viewBox="0 0 24 24" fill="none" xmlns="http://www.w3.org/2000/svg">
<path d="M17.7143 10.8571H16.5714V8.57143C16.5714 7.35901 16.0898 6.19625 15.2325 5.33894C14.3751 4.48163 13.2124 4 12 4C10.7875 4 9.62479 4.48163 8.76748 5.33894C7.91017 6.19625 7.42854 7.35901 7.42854 8.57143V10.8571H6.28568L5.14282 12V18.8571L6.28568 20H17.7143L18.8571 18.8571V12L17.7143 10.8571ZM8.57139 8.57143C8.57139 7.66212 8.93262 6.79004 9.5756 6.14706C10.2186 5.50408 11.0907 5.14286 12 5.14286C12.9093 5.14286 13.7814 5.50408 14.4243 6.14706C15.0673 6.79004 15.4285 7.66212 15.4285 8.57143V10.8571H8.57139V8.57143ZM17.7143 18.8571H6.28568V12H17.7143V18.8571Z" fill="black"/>
</svg>
