<svg width="24" height="24" viewBox="0 0 24 24" fill="none" xmlns="http://www.w3.org/2000/svg">
<path fill-rule="evenodd" clip-rule="evenodd" d="M4 16.5714V8.26973C4.00001 7.84517 4.11828 7.429 4.34153 7.06787C4.56479 6.70675 4.88421 6.41494 5.264 6.22516L10.9783 3.36802C11.2955 3.20948 11.6453 3.12695 12 3.12695C12.3547 3.12695 12.7045 3.20948 13.0217 3.36802L18.736 6.22516C19.116 6.41503 19.4355 6.70701 19.6588 7.06836C19.882 7.42971 20.0002 7.84612 20 8.27088V16.5714C20 17.1777 19.7592 17.759 19.3305 18.1877C18.9019 18.6163 18.3205 18.8572 17.7143 18.8572H6.28571C5.67951 18.8572 5.09812 18.6163 4.66947 18.1877C4.24082 17.759 4 17.1777 4 16.5714Z" stroke="black" stroke-linecap="round" stroke-linejoin="round"/>
<path d="M6.28564 8.57129L12.0216 11.9999L17.7142 8.57129" stroke="black" stroke-linecap="round" stroke-linejoin="round"/>
</svg>
