<svg width="16" height="16" viewBox="0 0 16 16" fill="none" xmlns="http://www.w3.org/2000/svg">
<g clip-path="url(#clip0)">
<path d="M14.752 8.896L14.2229 8.8256C14.2053 8.95492 14.2356 9.08623 14.3083 9.19467L14.7509 8.896H14.752ZM7.104 1.248L6.80533 1.69067C6.91305 1.76318 7.04352 1.7939 7.17227 1.77707L7.10293 1.248H7.104ZM1.248 7.104L1.77707 7.17334C1.79447 7.04437 1.76412 6.91348 1.69173 6.80534L1.248 7.104ZM8.896 14.752L9.1936 14.3093C9.08545 14.2369 8.95457 14.2066 8.8256 14.224L8.896 14.752ZM15.28 8.96747C15.3216 8.65814 15.3504 8.33494 15.3504 8H14.2837C14.2837 8.27414 14.2603 8.5472 14.2229 8.8256L15.2789 8.96747H15.28ZM15.3504 8C15.3501 6.05064 14.5756 4.1812 13.1972 2.8028C11.8188 1.42439 9.94936 0.649886 8 0.649603V1.71627C9.66646 1.71655 11.2646 2.37868 12.443 3.55705C13.6213 4.73541 14.2835 6.33354 14.2837 8H15.3504ZM8 0.649603C7.664 0.649603 7.34187 0.67947 7.03467 0.718937L7.17227 1.77707C7.45387 1.7408 7.72693 1.71627 8 1.71627V0.649603ZM7.40053 0.805337C6.61829 0.279335 5.69678 -0.0010895 4.75413 3.18111e-06V1.06667C5.5136 1.06667 6.21973 1.29707 6.80533 1.69067L7.40053 0.805337ZM4.75413 3.18111e-06C4.12977 -0.000136952 3.5115 0.122737 2.93464 0.361605C2.35778 0.600473 1.83363 0.950654 1.39214 1.39214C0.950651 1.83363 0.60047 2.35778 0.361602 2.93464C0.122734 3.5115 -0.000140013 4.12978 1.19727e-07 4.75414H1.06667C1.06653 4.26985 1.16181 3.79029 1.34707 3.34284C1.53234 2.89539 1.80395 2.48883 2.14639 2.14639C2.48883 1.80395 2.89539 1.53234 3.34284 1.34708C3.79028 1.16181 4.26985 1.06653 4.75413 1.06667V3.18111e-06ZM1.19727e-07 4.75414C1.19727e-07 5.73334 0.2976 6.64427 0.805333 7.40054L1.69067 6.80534C1.28286 6.19909 1.06556 5.48478 1.06667 4.75414H1.19727e-07ZM0.72 7.0336C0.675269 7.35383 0.651752 7.67667 0.6496 8H1.71627C1.71627 7.72587 1.73973 7.4528 1.77707 7.17334L0.72 7.0336ZM0.6496 8C0.6496 9.94945 1.42402 11.8191 2.80248 13.1975C4.18095 14.576 6.05055 15.3504 8 15.3504V14.2837C6.33345 14.2837 4.73516 13.6217 3.55673 12.4433C2.3783 11.2648 1.71627 9.66655 1.71627 8H0.6496ZM8 15.3504C8.33493 15.3504 8.65707 15.3216 8.9664 15.28L8.8256 14.224C8.55201 14.262 8.27621 14.282 8 14.2837V15.3504ZM8.5984 15.1947C9.35573 15.7035 10.2667 16 11.2459 16V14.9333C10.5149 14.9345 9.80024 14.7172 9.1936 14.3093L8.5984 15.1947ZM11.2459 16C12.5067 16 13.716 15.4991 14.6075 14.6076C15.4991 13.716 16 12.5067 16 11.2459H14.9333C14.9333 11.7301 14.838 12.2096 14.6526 12.657C14.4673 13.1044 14.1957 13.5109 13.8533 13.8533C13.5109 14.1957 13.1044 14.4673 12.657 14.6526C12.2096 14.838 11.7301 14.9333 11.2459 14.9333V16ZM16 11.2459C16 10.2667 15.7013 9.35574 15.1936 8.59947L14.3083 9.19467C14.7029 9.78134 14.9333 10.4853 14.9333 11.2469H16V11.2459ZM7.46667 8.53334H8.53333V7.46667H7.46667V8.53334ZM10.6101 5.62774C10.4055 5.21874 10.0911 4.87479 9.70209 4.6344C9.31306 4.39401 8.86478 4.26668 8.40747 4.26667V5.33334C8.93653 5.33334 9.41973 5.632 9.65547 6.1056L10.6101 5.62774ZM9.6 9.6C9.6 9.8829 9.48762 10.1542 9.28758 10.3543C9.08754 10.5543 8.81623 10.6667 8.53333 10.6667V11.7333C9.09913 11.7333 9.64175 11.5086 10.0418 11.1085C10.4419 10.7084 10.6667 10.1658 10.6667 9.6H9.6ZM8.53333 8.53334C8.81623 8.53334 9.08754 8.64572 9.28758 8.84576C9.48762 9.0458 9.6 9.31711 9.6 9.6H10.6667C10.6667 9.03421 10.4419 8.49159 10.0418 8.09151C9.64175 7.69143 9.09913 7.46667 8.53333 7.46667V8.53334ZM7.59253 10.6667C7.06347 10.6667 6.5792 10.368 6.34453 9.8944L5.38987 10.3723C5.59446 10.7813 5.90888 11.1252 6.29791 11.3656C6.68694 11.606 7.13522 11.7333 7.59253 11.7333V10.6667ZM5.33333 6.4C5.33333 6.9658 5.55809 7.50842 5.95817 7.9085C6.35825 8.30858 6.90087 8.53334 7.46667 8.53334V7.46667C7.18377 7.46667 6.91246 7.35429 6.71242 7.15425C6.51238 6.95421 6.4 6.6829 6.4 6.4H5.33333ZM6.4 6.4C6.4 6.11711 6.51238 5.8458 6.71242 5.64576C6.91246 5.44572 7.18377 5.33334 7.46667 5.33334V4.26667C6.90087 4.26667 6.35825 4.49143 5.95817 4.89151C5.55809 5.29159 5.33333 5.83421 5.33333 6.4H6.4ZM8.53333 10.6667H7.59253V11.7333H8.53333V10.6667ZM8.40747 4.26667H7.46667V5.33334H8.40747V4.26667Z" fill="black"/>
</g>
<defs>
<clipPath id="clip0">
<rect width="16" height="16" fill="white"/>
</clipPath>
</defs>
</svg>
