<svg width="18" height="18" viewBox="0 0 18 18" fill="none" xmlns="http://www.w3.org/2000/svg">
<path d="M14.6644 2.24793C14.4838 2.26106 14.3066 2.30343 14.1396 2.37336H14.1373C13.977 2.43693 13.2148 2.75755 12.0561 3.24355L7.90372 4.99236C4.92416 6.24674 1.99522 7.48199 1.99522 7.48199L2.0301 7.46849C2.0301 7.46849 1.82816 7.53486 1.61722 7.67943C1.48691 7.76235 1.37477 7.87085 1.2876 7.99836C1.1841 8.15024 1.10085 8.38255 1.13179 8.62274C1.18241 9.02886 1.44566 9.27243 1.63466 9.40686C1.82591 9.54299 2.00816 9.60655 2.00816 9.60655H2.01266L4.75935 10.5319C4.88254 10.9273 5.59635 13.2741 5.76791 13.8146C5.86916 14.1375 5.9676 14.3394 6.09079 14.4936C6.15041 14.5723 6.22016 14.6381 6.30397 14.691C6.34754 14.7163 6.394 14.7364 6.44235 14.7506L6.41422 14.7439C6.42266 14.7461 6.42941 14.7529 6.4356 14.7551C6.4581 14.7613 6.47329 14.7636 6.50197 14.7681C6.93679 14.8997 7.2861 14.6297 7.2861 14.6297L7.30579 14.6139L8.92747 13.1374L11.6455 15.2226L11.7073 15.249C12.2738 15.4976 12.8475 15.3592 13.1507 15.1151C13.4562 14.8693 13.5748 14.5549 13.5748 14.5549L13.5945 14.5042L15.6949 3.74418C15.7545 3.47868 15.7697 3.23005 15.7039 2.98874C15.636 2.74452 15.4793 2.53447 15.2646 2.3998C15.0843 2.29018 14.8752 2.23727 14.6644 2.24793ZM14.6076 3.40105C14.6053 3.43649 14.6121 3.43255 14.5963 3.50061V3.5068L12.5157 14.1549C12.5067 14.1701 12.4915 14.2033 12.4498 14.2365C12.406 14.2714 12.3711 14.2933 12.1883 14.2207L8.86391 11.6721L6.85579 13.5024L7.27766 10.8081L12.7092 5.74555C12.933 5.53743 12.8582 5.49355 12.8582 5.49355C12.874 5.23818 12.5202 5.41874 12.5202 5.41874L5.67116 9.66168L5.66891 9.65043L2.38616 8.54511V8.54286L2.37772 8.54118C2.38348 8.53927 2.38911 8.53701 2.3946 8.53443L2.4126 8.52543L2.43004 8.51924C2.43004 8.51924 5.36122 7.28399 8.34079 6.02961C9.83254 5.4013 11.3355 4.76849 12.4915 4.28024C13.6474 3.7948 14.5018 3.43874 14.5502 3.41961C14.5963 3.40161 14.5744 3.40161 14.6076 3.40161V3.40105Z" fill="black"/>
</svg>
