<svg width="70" height="70" fill="none" xmlns="http://www.w3.org/2000/svg"><path d="M4.375 48.125h61.25V52.5H4.375v-4.375zm0 8.75h61.25v4.375H4.375v-4.375zm48.125-35a4.375 4.375 0 100 8.75 4.375 4.375 0 000-8.75zM35 35a8.75 8.75 0 118.75-8.75A8.76 8.76 0 0135 35zm0-13.125a4.375 4.375 0 100 8.75 4.375 4.375 0 000-8.75zm-17.5 0a4.375 4.375 0 100 8.75 4.375 4.375 0 000-8.75z" fill="#000"/><path d="M61.25 43.75H8.75a4.386 4.386 0 01-4.375-4.375v-26.25A4.386 4.386 0 018.75 8.75h52.5a4.386 4.386 0 014.375 4.375v26.25a4.381 4.381 0 01-4.375 4.375zm0-30.625H8.75v26.25h52.5v-26.25z" fill="#000"/></svg>