<svg width="70" height="70" fill="none" xmlns="http://www.w3.org/2000/svg"><path d="M51.606 35a37.687 37.687 0 00-.837-7.778h7a23.922 23.922 0 00-1.302-3.11h-6.514a38.346 38.346 0 00-5.62-11.415 23.916 23.916 0 00-4.958-1.477 34.67 34.67 0 017.564 12.813h-10.48V10.89h-2.917v13.164h-10.48a34.67 34.67 0 017.582-12.834c-1.694.307-3.35.796-4.938 1.459a38.346 38.346 0 00-5.659 11.375h-6.553a23.914 23.914 0 00-1.322 3.17h7.059A37.68 37.68 0 0018.394 35c.006 2.86.332 5.71.973 8.497h-6.884c.403 1.09.883 2.15 1.44 3.17h6.28a37.566 37.566 0 005.23 10.422 23.87 23.87 0 005.075 1.536 34.824 34.824 0 01-7.175-11.958h10.228v12.328h2.917V46.666h10.189a34.805 34.805 0 01-7.195 11.958 23.872 23.872 0 005.095-1.575 37.565 37.565 0 005.23-10.383h6.223a24.013 24.013 0 001.438-3.111h-6.902A38.252 38.252 0 0051.606 35zm-18.064 8.497H22.38a34.396 34.396 0 01-.175-16.333h11.336v16.333zm14.078 0H36.458V27.222h11.337c.558 2.555.832 5.163.816 7.778a35.237 35.237 0 01-.991 8.497z" fill="#000"/><path d="M35 3.889a31.111 31.111 0 100 62.222A31.111 31.111 0 0035 3.89zm0 58.333a27.222 27.222 0 110-54.444 27.222 27.222 0 010 54.444z" fill="#000"/></svg>