<svg width="70" height="70" fill="none" xmlns="http://www.w3.org/2000/svg"><path d="M14.583 35a2.916 2.916 0 00-2.916 2.917V61.25a2.916 2.916 0 105.833 0V37.917A2.917 2.917 0 0014.583 35zM29.167 5.833A2.917 2.917 0 0026.25 8.75v52.5a2.916 2.916 0 105.833 0V8.75a2.917 2.917 0 00-2.916-2.917zm29.166 40.834a2.916 2.916 0 00-2.916 2.916V61.25a2.916 2.916 0 105.833 0V49.583a2.917 2.917 0 00-2.917-2.916zM43.75 23.333a2.917 2.917 0 00-2.917 2.917v35a2.916 2.916 0 105.834 0v-35a2.917 2.917 0 00-2.917-2.917z" fill="#000"/></svg>