<svg width="70" height="70" viewBox="0 0 70 70" fill="none" xmlns="http://www.w3.org/2000/svg">
<path d="M14.5833 49.5833H11.6666C10.1196 49.5833 8.63582 48.9687 7.54186 47.8748C6.44789 46.7808 5.83331 45.2971 5.83331 43.75V14.5833C5.83331 13.0362 6.44789 11.5525 7.54186 10.4585C8.63582 9.36458 10.1196 8.75 11.6666 8.75H58.3333C59.8804 8.75 61.3641 9.36458 62.4581 10.4585C63.5521 11.5525 64.1667 13.0362 64.1667 14.5833V43.75C64.1667 45.2971 63.5521 46.7808 62.4581 47.8748C61.3641 48.9687 59.8804 49.5833 58.3333 49.5833H55.4167" stroke="black" stroke-width="4" stroke-linecap="round" stroke-linejoin="round"/>
<path d="M35 43.75L49.5834 61.25H20.4167L35 43.75Z" stroke="black" stroke-width="4" stroke-linecap="round" stroke-linejoin="round"/>
</svg>
