<svg width="70" height="70" viewBox="0 0 70 70" fill="none" xmlns="http://www.w3.org/2000/svg">
<path d="M61.25 49.5833H20.4167V8.74996H61.25V49.5833ZM61.25 2.91663H20.4167C18.8696 2.91663 17.3858 3.53121 16.2919 4.62517C15.1979 5.71913 14.5833 7.20286 14.5833 8.74996V49.5833C14.5833 51.1304 15.1979 52.6141 16.2919 53.7081C17.3858 54.802 18.8696 55.4166 20.4167 55.4166H61.25C62.7971 55.4166 64.2808 54.802 65.3748 53.7081C66.4687 52.6141 67.0833 51.1304 67.0833 49.5833V8.74996C67.0833 7.20286 66.4687 5.71913 65.3748 4.62517C64.2808 3.53121 62.7971 2.91663 61.25 2.91663ZM8.75 14.5833H2.91667V61.25C2.91667 62.7971 3.53125 64.2808 4.62521 65.3747C5.71917 66.4687 7.2029 67.0833 8.75 67.0833H55.4167V61.25H8.75V14.5833ZM46.55 30.0125L38.5292 40.3375L32.8125 33.4541L24.7917 43.75H56.875L46.55 30.0125Z" fill="black"/>
</svg>
