<svg width="70" height="70" viewBox="0 0 70 70" fill="none" xmlns="http://www.w3.org/2000/svg">
<path d="M51.6056 35C51.5975 32.3854 51.3172 29.7788 50.7695 27.2222H57.7695C57.409 26.1558 56.9736 25.1162 56.4667 24.1111H49.9528C48.7283 20.0201 46.829 16.1624 44.3334 12.6972C42.7389 12.0268 41.0764 11.5313 39.375 11.2195C42.794 14.893 45.3747 19.265 46.9389 24.0334H36.4584V10.8889H33.5417V24.0528H23.0611C24.6285 19.2758 27.2161 14.8968 30.6445 11.2195C28.9504 11.5261 27.2945 12.0151 25.7056 12.6778C23.2001 16.1285 21.2877 19.9729 20.0472 24.0528H13.4945C12.9783 25.0762 12.5365 26.1354 12.1722 27.2222H19.2306C18.6828 29.7788 18.4026 32.3854 18.3945 35C18.3998 37.8599 18.726 40.7101 19.3667 43.4972H12.4834C12.8856 44.5872 13.3665 45.6464 13.9222 46.6667H20.2028C21.3932 50.3918 23.158 53.9083 25.4334 57.0889C27.0627 57.7878 28.7649 58.303 30.5084 58.625C27.3349 55.1635 24.8943 51.0958 23.3334 46.6667H33.5611V58.9945H36.4778V46.6667H46.6667C45.1005 51.0976 42.6531 55.1655 39.4722 58.625C41.2239 58.2919 42.9327 57.7636 44.5667 57.05C46.8385 53.8813 48.6031 50.3783 49.7972 46.6667H56.0195C56.5726 45.6653 57.0535 44.6256 57.4584 43.5556H50.5556C51.2268 40.7524 51.5791 37.8823 51.6056 35ZM33.5417 43.4972H22.3806C21.0116 38.1458 20.9516 32.5434 22.2056 27.1639H33.5417V43.4972ZM47.6195 43.4972H36.4584V27.2222H47.7945C48.353 29.7767 48.6269 32.3852 48.6111 35C48.6269 37.8622 48.2939 40.7156 47.6195 43.4972Z" fill="black"/>
<path d="M35 3.88892C28.8468 3.88892 22.8318 5.71355 17.7156 9.13208C12.5994 12.5506 8.61182 17.4095 6.25709 23.0943C3.90237 28.7791 3.28626 35.0345 4.48669 41.0695C5.68712 47.1045 8.65017 52.6479 13.0011 56.9989C17.3521 61.3499 22.8956 64.3129 28.9305 65.5134C34.9655 66.7138 41.2209 66.0977 46.9057 63.743C52.5905 61.3882 57.4494 57.4006 60.868 52.2844C64.2865 47.1682 66.1111 41.1532 66.1111 35C66.1111 26.7488 62.8334 18.8356 56.9989 13.0012C51.1644 7.16669 43.2512 3.88892 35 3.88892ZM35 62.2223C29.616 62.2223 24.3528 60.6257 19.8762 57.6345C15.3995 54.6433 11.9103 50.3917 9.84996 45.4175C7.78957 40.4433 7.25048 34.9698 8.30086 29.6892C9.35123 24.4086 11.9439 19.5581 15.751 15.751C19.5581 11.9439 24.4086 9.35125 29.6892 8.30087C34.9698 7.2505 40.4433 7.78959 45.4175 9.84997C50.3917 11.9104 54.6432 15.3995 57.6345 19.8762C60.6257 24.3528 62.2222 29.616 62.2222 35C62.2222 42.2198 59.3542 49.1439 54.249 54.249C49.1439 59.3542 42.2198 62.2223 35 62.2223Z" fill="black"/>
</svg>
