<svg width="70" height="70" viewBox="0 0 70 70" fill="none" xmlns="http://www.w3.org/2000/svg">
<path d="M4.375 48.125H65.625V52.5H4.375V48.125Z" fill="black"/>
<path d="M4.375 56.875H65.625V61.25H4.375V56.875Z" fill="black"/>
<path d="M52.5 21.875C51.6347 21.875 50.7888 22.1316 50.0694 22.6123C49.3499 23.0931 48.7892 23.7763 48.458 24.5758C48.1269 25.3752 48.0403 26.2549 48.2091 27.1035C48.3779 27.9522 48.7946 28.7317 49.4064 29.3436C50.0183 29.9554 50.7978 30.3721 51.6465 30.5409C52.4951 30.7097 53.3748 30.6231 54.1742 30.292C54.9737 29.9608 55.6569 29.4001 56.1377 28.6806C56.6184 27.9612 56.875 27.1153 56.875 26.25C56.875 25.0897 56.4141 23.9769 55.5936 23.1564C54.7731 22.3359 53.6603 21.875 52.5 21.875Z" fill="black"/>
<path d="M35 35C33.2694 35 31.5777 34.4868 30.1388 33.5254C28.6998 32.5639 27.5783 31.1973 26.9161 29.5985C26.2538 27.9996 26.0805 26.2403 26.4181 24.543C26.7558 22.8456 27.5891 21.2865 28.8128 20.0628C30.0365 18.8391 31.5956 18.0058 33.293 17.6681C34.9903 17.3305 36.7496 17.5038 38.3485 18.1661C39.9473 18.8283 41.3139 19.9498 42.2754 21.3888C43.2368 22.8277 43.75 24.5194 43.75 26.25C43.7471 28.5698 42.8243 30.7937 41.184 32.434C39.5437 34.0743 37.3198 34.9971 35 35ZM35 21.875C34.1347 21.875 33.2888 22.1316 32.5694 22.6123C31.8499 23.0931 31.2892 23.7763 30.958 24.5758C30.6269 25.3752 30.5403 26.2549 30.7091 27.1035C30.8779 27.9522 31.2946 28.7317 31.9064 29.3436C32.5183 29.9555 33.2978 30.3721 34.1465 30.5409C34.9952 30.7098 35.8748 30.6231 36.6742 30.292C37.4737 29.9608 38.157 29.4001 38.6377 28.6806C39.1184 27.9612 39.375 27.1153 39.375 26.25C39.3738 25.09 38.9125 23.9779 38.0923 23.1577C37.2721 22.3375 36.16 21.8762 35 21.875Z" fill="black"/>
<path d="M17.5 21.875C16.6347 21.875 15.7888 22.1316 15.0694 22.6123C14.3499 23.0931 13.7892 23.7763 13.458 24.5758C13.1269 25.3752 13.0403 26.2549 13.2091 27.1035C13.3779 27.9522 13.7946 28.7317 14.4064 29.3436C15.0183 29.9554 15.7978 30.3721 16.6465 30.5409C17.4951 30.7097 18.3748 30.6231 19.1742 30.292C19.9737 29.9608 20.6569 29.4001 21.1377 28.6806C21.6184 27.9612 21.875 27.1153 21.875 26.25C21.875 25.0897 21.4141 23.9769 20.5936 23.1564C19.7731 22.3359 18.6603 21.875 17.5 21.875Z" fill="black"/>
<path d="M61.25 43.75H8.75C7.59057 43.7471 6.47944 43.2853 5.6596 42.4654C4.83975 41.6456 4.37789 40.5344 4.375 39.375V13.125C4.37789 11.9656 4.83975 10.8544 5.6596 10.0346C6.47944 9.21475 7.59057 8.75289 8.75 8.75H61.25C62.4094 8.75289 63.5206 9.21475 64.3404 10.0346C65.1603 10.8544 65.6221 11.9656 65.625 13.125V39.375C65.6233 40.5348 65.1618 41.6466 64.3417 42.4667C63.5216 43.2868 62.4098 43.7483 61.25 43.75ZM61.25 13.125H8.75V39.375H61.25V13.125Z" fill="black"/>
</svg>
