<svg width="70" height="70" viewBox="0 0 70 70" fill="none" xmlns="http://www.w3.org/2000/svg">
<path d="M9 52.75V35.25C9 28.2881 11.7656 21.6113 16.6884 16.6884C21.6113 11.7656 28.2881 9 35.25 9C42.2119 9 48.8887 11.7656 53.8116 16.6884C58.7344 21.6113 61.5 28.2881 61.5 35.25V52.75" stroke="black" stroke-width="4" stroke-linecap="round" stroke-linejoin="round"/>
<path d="M61.5 54.5833C61.5 56.1304 60.8854 57.6142 59.7915 58.7081C58.6975 59.8021 57.2138 60.4167 55.6667 60.4167H52.75C51.2029 60.4167 49.7192 59.8021 48.6252 58.7081C47.5313 57.6142 46.9167 56.1304 46.9167 54.5833V45.8333C46.9167 44.2862 47.5313 42.8025 48.6252 41.7085C49.7192 40.6146 51.2029 40 52.75 40H61.5V54.5833ZM9 54.5833C9 56.1304 9.61458 57.6142 10.7085 58.7081C11.8025 59.8021 13.2862 60.4167 14.8333 60.4167H17.75C19.2971 60.4167 20.7808 59.8021 21.8748 58.7081C22.9688 57.6142 23.5833 56.1304 23.5833 54.5833V45.8333C23.5833 44.2862 22.9688 42.8025 21.8748 41.7085C20.7808 40.6146 19.2971 40 17.75 40H9V54.5833Z" stroke="black" stroke-width="4" stroke-linecap="round" stroke-linejoin="round"/>
</svg>
