<svg width="70" height="70" viewBox="0 0 70 70" fill="none" xmlns="http://www.w3.org/2000/svg">
<path d="M14.5834 35C13.8098 35 13.0679 35.3073 12.521 35.8543C11.974 36.4013 11.6667 37.1432 11.6667 37.9167V61.25C11.6667 62.0236 11.974 62.7655 12.521 63.3124C13.0679 63.8594 13.8098 64.1667 14.5834 64.1667C15.3569 64.1667 16.0988 63.8594 16.6457 63.3124C17.1927 62.7655 17.5 62.0236 17.5 61.25V37.9167C17.5 37.1432 17.1927 36.4013 16.6457 35.8543C16.0988 35.3073 15.3569 35 14.5834 35ZM29.1667 5.83337C28.3931 5.83337 27.6513 6.14066 27.1043 6.68765C26.5573 7.23463 26.25 7.97649 26.25 8.75004V61.25C26.25 62.0236 26.5573 62.7655 27.1043 63.3124C27.6513 63.8594 28.3931 64.1667 29.1667 64.1667C29.9402 64.1667 30.6821 63.8594 31.2291 63.3124C31.7761 62.7655 32.0834 62.0236 32.0834 61.25V8.75004C32.0834 7.97649 31.7761 7.23463 31.2291 6.68765C30.6821 6.14066 29.9402 5.83337 29.1667 5.83337ZM58.3334 46.6667C57.5598 46.6667 56.8179 46.974 56.271 47.521C55.724 48.068 55.4167 48.8098 55.4167 49.5834V61.25C55.4167 62.0236 55.724 62.7655 56.271 63.3124C56.8179 63.8594 57.5598 64.1667 58.3334 64.1667C59.1069 64.1667 59.8488 63.8594 60.3957 63.3124C60.9427 62.7655 61.25 62.0236 61.25 61.25V49.5834C61.25 48.8098 60.9427 48.068 60.3957 47.521C59.8488 46.974 59.1069 46.6667 58.3334 46.6667ZM43.75 23.3334C42.9765 23.3334 42.2346 23.6407 41.6876 24.1876C41.1406 24.7346 40.8334 25.4765 40.8334 26.25V61.25C40.8334 62.0236 41.1406 62.7655 41.6876 63.3124C42.2346 63.8594 42.9765 64.1667 43.75 64.1667C44.5236 64.1667 45.2654 63.8594 45.8124 63.3124C46.3594 62.7655 46.6667 62.0236 46.6667 61.25V26.25C46.6667 25.4765 46.3594 24.7346 45.8124 24.1876C45.2654 23.6407 44.5236 23.3334 43.75 23.3334Z" fill="black"/>
</svg>
