<svg width="225" height="197" fill="none" xmlns="http://www.w3.org/2000/svg"><g opacity=".7"><g filter="url(#filter0_d)"><rect x="16.252" y="119.781" width="199.496" height="59.264" rx="6.26" stroke="#33FF67" stroke-width="2.504"/></g><rect x="15" y="118.529" width="202" height="61.769" rx="7.512" fill="#006C1C" fill-opacity=".28"/><g filter="url(#filter1_d)"><path d="M33 180.298h15.025L33 189.479v-9.181z" fill="#33FF67"/></g><path d="M39.24 155.404h3.716v2.172H39.24v4.236h-2.308v-4.236h-3.737v-2.172h3.737v-3.961h2.308v3.961zm12.266 1.879c-.796.841-1.725 1.261-2.788 1.261-1.252 0-2.25-.436-2.994-1.31-.743-.881-1.115-2.035-1.115-3.463 0-.939.19-1.79.568-2.553a4.224 4.224 0 011.614-1.78c.698-.424 1.506-.636 2.426-.636 1.434 0 2.572.535 3.413 1.604.842 1.069 1.262 2.501 1.262 4.294v.665c0 2.57-.58 4.529-1.74 5.879-1.162 1.35-2.893 2.035-5.195 2.054h-.284v-1.966h.343c1.402-.019 2.478-.355 3.228-1.007.75-.659 1.17-1.673 1.262-3.042zm-2.29-.597c.477 0 .923-.137 1.34-.411.418-.274.74-.652.97-1.135v-.929c0-1.05-.216-1.894-.647-2.533-.43-.639-.987-.959-1.672-.959-.685 0-1.233.284-1.644.851-.404.561-.606 1.272-.606 2.132 0 .894.206 1.614.616 2.162.411.548.959.822 1.644.822zm16.219.557c0 2.048-.385 3.594-1.154 4.637-.763 1.037-1.928 1.555-3.493 1.555-1.538 0-2.7-.505-3.482-1.516-.776-1.017-1.174-2.52-1.193-4.509v-2.465c0-2.048.381-3.584 1.144-4.607.77-1.024 1.94-1.536 3.512-1.536 1.559 0 2.72.499 3.482 1.496.77.998 1.164 2.491 1.184 4.48v2.465zm-2.377-2.66c0-1.337-.183-2.315-.548-2.935-.365-.626-.945-.939-1.741-.939-.776 0-1.347.297-1.712.89-.365.587-.558 1.507-.577 2.759v3.228c0 1.33.186 2.321.558 2.973.371.653.955.979 1.75.979.763 0 1.328-.3 1.693-.9.365-.607.557-1.552.577-2.837v-3.218zm6.113 6.153c.444 0 .786.127 1.027.381.242.248.362.561.362.939 0 .372-.12.682-.362.929-.24.242-.583.362-1.027.362-.423 0-.76-.12-1.007-.362-.248-.241-.372-.551-.372-.929s.12-.691.362-.939c.241-.254.58-.381 1.017-.381zm13.245-3.493c0 2.048-.385 3.594-1.154 4.637-.763 1.037-1.927 1.555-3.492 1.555-1.54 0-2.7-.505-3.483-1.516-.776-1.017-1.174-2.52-1.193-4.509v-2.465c0-2.048.381-3.584 1.144-4.607.77-1.024 1.94-1.536 3.512-1.536 1.559 0 2.72.499 3.482 1.496.77.998 1.164 2.491 1.184 4.48v2.465zm-2.377-2.66c0-1.337-.183-2.315-.548-2.935-.365-.626-.945-.939-1.741-.939-.776 0-1.347.297-1.712.89-.365.587-.557 1.507-.577 2.759v3.228c0 1.33.186 2.321.558 2.973.371.653.955.979 1.75.979.764 0 1.328-.3 1.693-.9.365-.607.557-1.552.577-2.837v-3.218zm14.056 8.657H84.52v-1.634l4.744-5.174c.685-.763 1.17-1.399 1.458-1.908.293-.515.44-1.03.44-1.545 0-.679-.192-1.226-.577-1.644-.379-.417-.89-.626-1.536-.626-.77 0-1.366.235-1.79.705-.424.469-.636 1.111-.636 1.927h-2.377c0-.868.196-1.647.587-2.338a4.106 4.106 0 011.692-1.624c.737-.385 1.585-.577 2.543-.577 1.383 0 2.472.349 3.268 1.046.802.692 1.203 1.65 1.203 2.876 0 .711-.202 1.458-.607 2.24-.397.776-1.053 1.66-1.966 2.651l-3.482 3.727h6.612v1.898zm17.598-14.243v9.518c0 1.513-.486 2.713-1.458 3.6-.965.88-2.253 1.32-3.864 1.32-1.63 0-2.924-.433-3.883-1.301-.958-.873-1.438-2.083-1.438-3.629v-9.508h2.465v9.528c0 .952.241 1.679.724 2.181s1.193.753 2.132.753c1.905 0 2.857-1.004 2.857-3.012v-9.45h2.465zm10.095 10.575c0-.627-.222-1.109-.666-1.448-.437-.339-1.229-.682-2.377-1.027-1.147-.346-2.06-.731-2.738-1.155-1.298-.815-1.947-1.878-1.947-3.188 0-1.148.466-2.094 1.399-2.837.939-.743 2.155-1.115 3.648-1.115.992 0 1.875.182 2.651.548.776.365 1.386.886 1.829 1.565.444.671.666 1.418.666 2.24h-2.465c0-.744-.235-1.324-.705-1.741-.463-.424-1.128-.636-1.995-.636-.809 0-1.438.173-1.888.518-.444.346-.665.828-.665 1.448 0 .522.241.958.724 1.311.482.345 1.278.684 2.386 1.017 1.109.326 1.999.701 2.671 1.125.671.417 1.164.9 1.477 1.448.313.541.469 1.177.469 1.907 0 1.187-.456 2.132-1.369 2.837-.907.697-2.139 1.046-3.698 1.046-1.03 0-1.979-.189-2.846-.567-.861-.385-1.533-.913-2.015-1.585-.476-.671-.714-1.454-.714-2.347h2.475c0 .808.267 1.434.802 1.878.534.443 1.301.665 2.298.665.861 0 1.507-.173 1.937-.518.437-.353.656-.816.656-1.389zm4.646 3.668v-14.243h4.206c1.259 0 2.374.281 3.345.842a5.72 5.72 0 012.27 2.386c.535 1.031.802 2.211.802 3.541v.714c0 1.35-.271 2.537-.812 3.561a5.626 5.626 0 01-2.299 2.367c-.991.555-2.129.832-3.414.832h-4.098zm2.475-12.247v10.271h1.614c1.297 0 2.292-.405 2.983-1.213.698-.815 1.053-1.983 1.066-3.502v-.792c0-1.546-.336-2.726-1.007-3.541-.672-.816-1.647-1.223-2.925-1.223h-1.731zm-94.716-13.172l.026.636c.42-.495.987-.742 1.7-.742.803 0 1.349.307 1.638.922a2.18 2.18 0 01.742-.668c.307-.169.67-.254 1.086-.254 1.258 0 1.897.666 1.918 1.997v3.842h-.98v-3.783c0-.41-.094-.716-.28-.917-.188-.205-.502-.307-.944-.307-.364 0-.666.109-.906.328-.24.216-.38.507-.419.874v3.805h-.985v-3.757c0-.834-.408-1.25-1.224-1.25-.643 0-1.083.273-1.32.821v4.186h-.98v-5.733h.928zm12.133 5.733c-.056-.113-.102-.315-.138-.604-.455.473-1 .71-1.632.71-.565 0-1.03-.159-1.393-.477a1.564 1.564 0 01-.54-1.219c0-.597.226-1.06.678-1.388.455-.332 1.095-.498 1.918-.498h.953v-.45c0-.343-.102-.615-.307-.816-.205-.205-.507-.308-.906-.308-.35 0-.643.089-.88.265-.236.177-.354.391-.354.641h-.986c0-.286.1-.561.302-.826.205-.269.48-.481.827-.636.35-.155.733-.233 1.15-.233.66 0 1.177.166 1.552.498.374.328.569.782.583 1.362v2.638c0 .527.067.945.201 1.256v.085h-1.028zm-1.627-.747c.308 0 .6-.08.875-.239a1.44 1.44 0 00.599-.62v-1.176h-.769c-1.2 0-1.801.351-1.801 1.054 0 .308.102.548.307.721.205.173.468.26.79.26zm5.914-2.893l1.271-2.093h1.145l-1.876 2.834 1.934 2.899h-1.134l-1.325-2.146-1.324 2.146h-1.14l1.935-2.899-1.876-2.834h1.134l1.256 2.093zm4.524 3.64h-.98v-8.139h.98v8.139zm2.64 0h-.981v-5.733h.98v5.733zm-1.06-7.254c0-.159.047-.293.142-.403.1-.109.244-.164.435-.164.19 0 .336.055.434.164a.58.58 0 01.149.403c0 .159-.05.292-.149.398-.099.105-.243.158-.434.158-.19 0-.336-.053-.435-.158a.574.574 0 01-.143-.398zm3.56 1.521l.032.72c.438-.551 1.01-.826 1.716-.826 1.212 0 1.823.683 1.834 2.05v3.789h-.98v-3.794c-.004-.413-.1-.719-.287-.917-.183-.197-.471-.296-.863-.296a1.41 1.41 0 00-.837.254c-.24.17-.428.392-.562.668v4.085h-.98v-5.733h.927zm7.439 5.839c-.777 0-1.41-.255-1.897-.763-.487-.512-.731-1.196-.731-2.051v-.18c0-.569.108-1.076.323-1.521a2.55 2.55 0 01.912-1.049 2.295 2.295 0 011.271-.381c.745 0 1.325.245 1.738.736.413.491.62 1.194.62 2.109v.408h-3.884c.014.565.178 1.023.493 1.372.318.347.72.52 1.208.52.346 0 .64-.071.88-.212.24-.142.45-.329.63-.562l.599.466c-.48.739-1.201 1.108-2.162 1.108zm-.122-5.14c-.395 0-.727.145-.996.435-.268.286-.434.688-.498 1.208h2.872v-.074c-.028-.499-.163-.884-.403-1.156-.24-.275-.565-.413-.975-.413zm9.728 5.034c-.056-.113-.102-.315-.138-.604-.455.473-1 .71-1.632.71-.565 0-1.03-.159-1.393-.477a1.564 1.564 0 01-.54-1.219c0-.597.225-1.06.678-1.388.455-.332 1.095-.498 1.918-.498h.953v-.45c0-.343-.102-.615-.307-.816-.205-.205-.507-.308-.906-.308-.35 0-.643.089-.88.265-.236.177-.355.391-.355.641h-.985c0-.286.1-.561.302-.826.205-.269.48-.481.827-.636.35-.155.733-.233 1.15-.233.66 0 1.177.166 1.552.498.374.328.569.782.583 1.362v2.638c0 .527.067.945.201 1.256v.085h-1.028zm-1.627-.747c.308 0 .6-.08.875-.239.275-.159.475-.365.598-.62v-1.176H76.4c-1.2 0-1.801.351-1.801 1.054 0 .308.102.548.307.721.205.173.468.26.79.26zm4.472.747v-4.976h-.906v-.757h.906v-.588c0-.615.165-1.09.493-1.426.329-.335.793-.503 1.394-.503.226 0 .45.03.672.09l-.052.795a2.797 2.797 0 00-.53-.048c-.318 0-.564.094-.737.281-.173.184-.26.449-.26.795v.604h2.12v-.488c0-.639.182-1.137.546-1.494.367-.357.885-.535 1.552-.535.396 0 .896.108 1.5.323l-.165.827a3.4 3.4 0 00-1.266-.265c-.42 0-.724.093-.911.281-.184.187-.276.471-.276.853v.498h1.176v.757h-1.176v4.976h-.98v-4.976h-2.12v4.976h-.98zm7.18 0h-.98v-5.733h.98v5.733zm2.665 0h-.98v-8.139h.98v8.139zm2.638 0h-.98v-5.733h.98v5.733zm-1.06-7.254a.59.59 0 01.144-.403c.099-.109.244-.164.434-.164.191 0 .336.055.435.164a.58.58 0 01.148.403c0 .159-.05.292-.148.398-.1.105-.244.158-.435.158-.19 0-.335-.053-.434-.158a.573.573 0 01-.143-.398zm6.173 7.254c-.056-.113-.102-.315-.137-.604-.456.473-1 .71-1.632.71-.565 0-1.03-.159-1.394-.477a1.564 1.564 0 01-.54-1.219c0-.597.226-1.06.678-1.388.456-.332 1.095-.498 1.918-.498h.954v-.45c0-.343-.103-.615-.307-.816-.205-.205-.507-.308-.906-.308-.35 0-.643.089-.88.265-.237.177-.355.391-.355.641h-.986c0-.286.101-.561.302-.826.205-.269.48-.481.827-.636.35-.155.733-.233 1.15-.233.66 0 1.178.166 1.552.498.375.328.569.782.583 1.362v2.638c0 .527.067.945.201 1.256v.085h-1.028zm-1.626-.747c.307 0 .599-.08.874-.239a1.44 1.44 0 00.599-.62v-1.176h-.768c-1.201 0-1.802.351-1.802 1.054 0 .308.103.548.307.721.205.173.469.26.79.26zm5.32-6.374v1.388h1.07v.757h-1.07v3.556c0 .229.047.402.143.519.095.113.257.17.487.17a2.4 2.4 0 00.466-.064v.795c-.258.07-.508.106-.752.106-.438 0-.768-.133-.991-.398-.222-.265-.334-.641-.334-1.128v-3.556h-1.043v-.757h1.043v-1.388h.981zm4.599 7.227c-.777 0-1.41-.255-1.897-.763-.488-.512-.731-1.196-.731-2.051v-.18c0-.569.107-1.076.323-1.521.219-.448.523-.798.911-1.049a2.295 2.295 0 011.272-.381c.745 0 1.324.245 1.738.736.413.491.62 1.194.62 2.109v.408h-3.884c.014.565.178 1.023.493 1.372.317.347.72.52 1.208.52.346 0 .639-.071.879-.212.24-.142.451-.329.631-.562l.598.466c-.48.739-1.201 1.108-2.161 1.108zm-.122-5.14c-.396 0-.728.145-.996.435-.269.286-.435.688-.498 1.208h2.871v-.074c-.028-.499-.162-.884-.402-1.156-.241-.275-.566-.413-.975-.413zm6.835 3.513a.714.714 0 00-.302-.615c-.198-.148-.546-.275-1.044-.381-.495-.106-.888-.233-1.182-.382-.289-.148-.505-.325-.646-.529a1.28 1.28 0 01-.207-.732c0-.469.198-.867.594-1.192.399-.325.908-.487 1.526-.487.65 0 1.176.168 1.579.503.406.336.609.765.609 1.288h-.986c0-.269-.114-.5-.344-.694-.226-.195-.512-.292-.858-.292-.357 0-.636.078-.837.233a.734.734 0 00-.302.61c0 .236.093.415.28.535.188.12.525.235 1.012.344.491.11.889.24 1.193.392.303.152.528.336.672.551.149.212.223.472.223.779 0 .512-.205.924-.615 1.235-.409.307-.941.461-1.594.461-.46 0-.866-.082-1.219-.244a2.017 2.017 0 01-.832-.678 1.664 1.664 0 01-.297-.949h.981c.017.329.148.59.392.784.247.191.572.287.975.287.37 0 .667-.075.89-.223.226-.152.339-.353.339-.604zm2.225 1.007c0-.17.05-.311.148-.424.103-.113.255-.17.456-.17s.353.057.456.17a.595.595 0 01.159.424.565.565 0 01-.159.408c-.103.109-.255.164-.456.164s-.353-.055-.456-.164a.592.592 0 01-.148-.408zm.005-4.679c0-.169.05-.311.149-.424.102-.113.254-.169.455-.169.202 0 .354.056.456.169a.597.597 0 01.159.424.562.562 0 01-.159.408c-.102.11-.254.164-.456.164-.201 0-.353-.054-.455-.164a.584.584 0 01-.149-.408zM18.863 111h-.986v-6.533l-1.976.726v-.89l2.808-1.055h.154V111zm7.926 0h-5.055v-.705l2.67-2.967c.396-.448.668-.812.817-1.091.152-.283.228-.574.228-.875 0-.402-.122-.733-.366-.99-.244-.258-.569-.387-.975-.387-.487 0-.867.139-1.14.418-.268.276-.402.661-.402 1.155h-.98c0-.71.228-1.284.684-1.722.459-.438 1.072-.657 1.838-.657.717 0 1.284.189 1.7.567.418.375.626.875.626 1.5 0 .759-.484 1.664-1.452 2.713l-2.066 2.241h3.873v.8zm1.107-.514c0-.17.05-.311.149-.424.102-.113.254-.169.455-.169.202 0 .354.056.456.169a.595.595 0 01.16.424.562.562 0 01-.16.408c-.102.11-.254.164-.456.164-.2 0-.353-.054-.455-.164a.584.584 0 01-.149-.408zm.006-4.678c0-.17.05-.311.148-.424.102-.113.254-.17.456-.17.201 0 .353.057.455.17a.595.595 0 01.16.424.561.561 0 01-.16.407c-.102.11-.254.165-.455.165-.202 0-.354-.055-.456-.165a.584.584 0 01-.148-.407zM35.51 111h-5.054v-.705l2.67-2.967c.396-.448.668-.812.816-1.091.152-.283.228-.574.228-.875 0-.402-.122-.733-.366-.99-.244-.258-.569-.387-.975-.387-.487 0-.867.139-1.139.418-.268.276-.402.661-.402 1.155h-.98c0-.71.227-1.284.683-1.722.459-.438 1.072-.657 1.838-.657.717 0 1.284.189 1.701.567.417.375.625.875.625 1.5 0 .759-.484 1.664-1.451 2.713l-2.067 2.241h3.873v.8zm5.177-2.591h1.07v.8h-1.07V111H39.7v-1.791h-3.513v-.577l3.455-5.347h1.044v5.124zm-3.386 0h2.4v-3.783l-.116.212-2.284 3.571z" fill="#fff"/></g><g opacity=".4"><g filter="url(#filter2_d)"><rect x="33.823" y="55.172" width="161.166" height="47.878" rx="5.058" stroke="#33FF67" stroke-width="2.023"/></g><rect x="32.811" y="54.161" width="163.189" height="49.901" rx="6.069" fill="#006C1C" fill-opacity=".28"/><g filter="url(#filter3_d)"><path d="M47 104.062h12.138L47 111.479v-7.417z" fill="#33FF67"/></g><path d="M52.393 84.41h3.003v1.754h-3.003v3.422h-1.865v-3.422H47.51V84.41h3.018v-3.2h1.865v3.2zm12.201 6.33h-7.736v-1.32l3.833-4.18c.553-.617.945-1.13 1.177-1.541.237-.416.356-.833.356-1.249 0-.548-.156-.99-.466-1.328-.306-.337-.72-.505-1.241-.505-.622 0-1.104.19-1.446.569-.343.38-.514.898-.514 1.556h-1.92c0-.7.158-1.33.474-1.888a3.317 3.317 0 011.367-1.312c.595-.31 1.28-.466 2.055-.466 1.117 0 1.996.282 2.64.845.647.559.971 1.333.971 2.324 0 .574-.163 1.177-.49 1.81-.321.626-.85 1.34-1.588 2.14l-2.814 3.012h5.342v1.533zm9.199 0h-7.737v-1.32l3.833-4.18c.553-.617.946-1.13 1.178-1.541.237-.416.355-.833.355-1.249 0-.548-.155-.99-.466-1.328-.306-.337-.72-.505-1.24-.505-.622 0-1.104.19-1.447.569-.342.38-.514.898-.514 1.556h-1.92c0-.7.158-1.33.474-1.888a3.317 3.317 0 011.367-1.312c.596-.31 1.28-.466 2.055-.466 1.117 0 1.997.282 2.64.845.647.559.971 1.333.971 2.324 0 .574-.163 1.177-.49 1.81-.32.626-.85 1.34-1.588 2.14l-2.813 3.012h5.342v1.533zm8.961-4.844c0 1.654-.31 2.902-.932 3.745-.617.838-1.557 1.257-2.822 1.257-1.243 0-2.18-.409-2.813-1.225-.627-.822-.948-2.036-.964-3.643v-1.992c0-1.654.308-2.894.925-3.721.621-.828 1.567-1.241 2.837-1.241 1.259 0 2.197.403 2.813 1.209.622.806.94 2.012.956 3.62v1.99zm-1.92-2.15c0-1.08-.148-1.87-.443-2.37-.295-.506-.764-.76-1.406-.76-.627 0-1.088.24-1.383.72-.295.474-.45 1.217-.467 2.228v2.608c0 1.075.15 1.876.451 2.402.3.527.772.79 1.415.79.616 0 1.072-.242 1.367-.726.295-.49.45-1.254.466-2.292v-2.6zm4.939 4.97c.358 0 .635.103.83.309.195.2.292.453.292.758 0 .3-.097.551-.292.751-.195.195-.472.293-.83.293-.343 0-.614-.098-.814-.293-.2-.195-.3-.445-.3-.75 0-.306.097-.559.292-.76.195-.205.469-.307.822-.307zm8.4 2.024h-1.912v-9.238l-2.822.964v-1.62l4.489-1.652h.245V90.74zm9.443-4.813c-.642.68-1.393 1.02-2.252 1.02-1.011 0-1.817-.353-2.418-1.06-.6-.71-.9-1.643-.9-2.797 0-.758.152-1.446.457-2.062a3.417 3.417 0 011.304-1.439c.564-.342 1.217-.513 1.96-.513 1.159 0 2.078.432 2.758 1.296.68.864 1.019 2.02 1.019 3.469v.537c0 2.076-.468 3.66-1.406 4.75-.938 1.09-2.337 1.643-4.196 1.66h-.23v-1.59h.277c1.133-.015 2.002-.286 2.608-.813.606-.532.946-1.352 1.019-2.458zm-1.849-.482c.385 0 .746-.11 1.083-.332.337-.221.598-.527.782-.916v-.751c0-.848-.174-1.53-.521-2.047-.348-.516-.799-.774-1.352-.774s-.995.229-1.327.687c-.327.453-.49 1.028-.49 1.723 0 .722.166 1.304.498 1.746.331.443.774.664 1.327.664zm18.357-6.211v7.689c0 1.222-.392 2.191-1.177 2.908-.78.711-1.82 1.067-3.122 1.067-1.317 0-2.362-.35-3.137-1.051-.774-.706-1.161-1.683-1.161-2.932v-7.681h1.991v7.697c0 .769.195 1.356.585 1.762.39.406.964.609 1.722.609 1.539 0 2.308-.812 2.308-2.434v-7.634h1.991zm8.156 8.542c0-.505-.18-.895-.538-1.17-.353-.273-.993-.55-1.92-.829-.927-.28-1.665-.59-2.213-.933-1.048-.658-1.572-1.517-1.572-2.576 0-.927.376-1.69 1.13-2.291.758-.6 1.741-.901 2.947-.901.801 0 1.515.147 2.142.442a3.51 3.51 0 011.478 1.265c.358.542.537 1.146.537 1.81h-1.991c0-.601-.19-1.07-.569-1.407-.374-.343-.912-.514-1.613-.514-.653 0-1.161.14-1.525.419-.358.28-.537.669-.537 1.17 0 .42.195.774.585 1.058.39.28 1.032.553 1.928.822.895.264 1.615.567 2.157.909.543.337.941.727 1.193 1.17.253.437.38.95.38 1.54 0 .96-.369 1.723-1.107 2.292-.732.564-1.728.846-2.987.846a5.686 5.686 0 01-2.299-.459c-.696-.31-1.238-.737-1.628-1.28-.385-.542-.577-1.175-.577-1.896h1.999c0 .653.216 1.159.648 1.517.432.358 1.051.537 1.857.537.696 0 1.217-.14 1.565-.419a1.37 1.37 0 00.53-1.122zm3.753 2.964V79.234h3.398c1.017 0 1.918.226 2.703.68a4.627 4.627 0 011.833 1.928c.432.832.648 1.786.648 2.86v.577c0 1.09-.219 2.05-.656 2.877a4.547 4.547 0 01-1.857 1.912c-.801.448-1.72.672-2.758.672h-3.311zm1.999-9.894v8.297h1.304c1.049 0 1.852-.326 2.411-.98.563-.658.85-1.601.861-2.828v-.64c0-1.25-.271-2.203-.814-2.861-.543-.659-1.33-.988-2.363-.988h-1.399zM48.316 69.668l.022.513c.34-.4.797-.599 1.374-.599.647 0 1.088.248 1.322.745.154-.223.354-.403.6-.54a1.79 1.79 0 01.877-.205c1.016 0 1.533.538 1.55 1.614v3.103h-.792v-3.056c0-.331-.076-.578-.227-.74-.151-.166-.405-.249-.762-.249-.294 0-.538.088-.732.265-.194.174-.307.41-.338.707v3.073h-.796v-3.035c0-.673-.33-1.01-.989-1.01-.52 0-.875.221-1.066.663V74.3h-.792v-4.631h.75zm9.802 4.631c-.045-.091-.082-.254-.11-.488a1.767 1.767 0 01-1.32.574c-.456 0-.831-.129-1.125-.386a1.263 1.263 0 01-.437-.984c0-.482.183-.856.548-1.122.368-.268.885-.402 1.55-.402h.77v-.364c0-.277-.082-.496-.248-.659-.165-.166-.41-.248-.732-.248-.282 0-.52.071-.71.214-.192.142-.287.315-.287.518h-.796c0-.231.081-.454.244-.668.165-.217.388-.388.667-.514.283-.125.593-.188.93-.188.533 0 .951.134 1.253.402.303.266.46.632.471 1.1v2.132c0 .425.054.763.163 1.015v.068h-.83zm-1.314-.604c.249 0 .484-.064.707-.192.222-.129.383-.296.483-.501v-.95h-.62c-.97 0-1.456.284-1.456.852 0 .248.083.442.249.582.165.14.378.21.637.21zm4.777-2.337l1.028-1.69h.924l-1.515 2.29 1.562 2.341h-.916l-1.07-1.734-1.07 1.734h-.92l1.562-2.341-1.515-2.29h.916l1.014 1.69zm3.656 2.941h-.792v-6.575h.792V74.3zm2.132 0h-.792v-4.631h.792v4.631zm-.856-5.86c0-.128.038-.237.115-.325.08-.089.197-.133.351-.133.154 0 .271.044.351.133.08.088.12.197.12.325a.45.45 0 01-.12.321c-.08.086-.197.128-.351.128-.154 0-.271-.042-.35-.128a.462.462 0 01-.117-.32zm2.876 1.229l.026.582a1.688 1.688 0 011.386-.668c.98 0 1.473.552 1.481 1.657v3.06h-.791v-3.065c-.003-.334-.08-.58-.231-.74-.149-.16-.382-.24-.698-.24-.257 0-.483.069-.677.206a1.395 1.395 0 00-.453.539v3.3h-.792v-4.631h.749zm6.01 4.717c-.628 0-1.139-.206-1.533-.617-.394-.413-.59-.966-.59-1.656v-.146c0-.46.087-.869.26-1.228.178-.363.423-.645.737-.848.317-.205.66-.308 1.027-.308.602 0 1.07.198 1.404.595.334.397.501.964.501 1.704v.33h-3.138c.012.456.145.825.399 1.108.256.28.582.42.976.42.28 0 .516-.058.71-.172.194-.114.364-.265.51-.454l.483.377c-.388.596-.97.895-1.746.895zm-.099-4.152c-.32 0-.588.117-.804.35-.217.232-.352.557-.403.977h2.32v-.06c-.023-.403-.131-.714-.325-.933-.194-.223-.457-.334-.788-.334zm7.86 4.066c-.047-.091-.084-.254-.112-.488a1.767 1.767 0 01-1.319.574c-.456 0-.831-.129-1.125-.386a1.262 1.262 0 01-.437-.984c0-.482.183-.856.548-1.122.368-.268.885-.402 1.55-.402h.77v-.364c0-.277-.083-.496-.248-.659-.166-.166-.41-.248-.732-.248-.283 0-.52.071-.71.214-.192.142-.288.315-.288.518h-.796c0-.231.082-.454.244-.668.166-.217.388-.388.668-.514.282-.125.592-.188.929-.188.533 0 .951.134 1.254.402.303.266.46.632.47 1.1v2.132c0 .425.055.763.164 1.015v.068h-.83zm-1.315-.604c.248 0 .484-.064.706-.192a1.17 1.17 0 00.484-.501v-.95h-.62c-.97 0-1.456.284-1.456.852 0 .248.083.442.248.582.166.14.378.21.638.21zm3.613.604v-4.02h-.732v-.611h.732v-.476c0-.496.132-.88.398-1.151.265-.271.64-.407 1.126-.407a2.1 2.1 0 01.543.073l-.043.642a2.273 2.273 0 00-.428-.038c-.257 0-.455.075-.595.226-.14.149-.21.363-.21.643v.488h1.713v-.394c0-.517.147-.92.44-1.207.297-.288.716-.433 1.255-.433.32 0 .723.087 1.211.261l-.132.668a2.753 2.753 0 00-1.024-.214c-.34 0-.585.076-.736.227-.148.151-.222.381-.222.69v.402h.95v.612h-.95v4.019h-.792v-4.02H86.25v4.02h-.792zm5.8 0h-.792v-4.631h.792v4.631zm2.153 0h-.792v-6.575h.792V74.3zm2.131 0h-.791v-4.631h.791v4.631zm-.856-5.86c0-.128.039-.237.116-.325.08-.089.197-.133.35-.133.155 0 .272.044.352.133.08.088.12.197.12.325a.45.45 0 01-.12.321c-.08.086-.197.128-.351.128-.154 0-.271-.042-.351-.128a.462.462 0 01-.116-.32zm4.987 5.86c-.046-.091-.083-.254-.111-.488a1.767 1.767 0 01-1.319.574c-.456 0-.831-.129-1.125-.386a1.262 1.262 0 01-.437-.984c0-.482.183-.856.548-1.122.368-.268.885-.402 1.55-.402h.77v-.364c0-.277-.083-.496-.248-.659-.166-.166-.41-.248-.732-.248-.283 0-.52.071-.71.214-.192.142-.288.315-.288.518h-.796c0-.231.081-.454.244-.668.166-.217.388-.388.668-.514.282-.125.592-.188.929-.188.533 0 .951.134 1.254.402.302.266.459.632.471 1.1v2.132c0 .425.054.763.162 1.015v.068h-.83zm-1.314-.604c.248 0 .484-.064.706-.192a1.17 1.17 0 00.484-.501v-.95h-.62c-.971 0-1.456.284-1.456.852 0 .248.083.442.248.582.166.14.378.21.638.21zm4.297-5.149v1.122h.865v.612h-.865v2.872c0 .185.039.325.116.42.077.09.208.136.394.136.091 0 .217-.017.377-.051v.642a2.3 2.3 0 01-.608.086c-.354 0-.621-.107-.801-.321-.18-.214-.269-.518-.269-.912V70.28h-.844v-.612h.844v-1.122h.791zm3.716 5.839c-.628 0-1.139-.206-1.532-.617-.394-.413-.591-.966-.591-1.656v-.146c0-.46.087-.869.261-1.228.177-.363.422-.645.736-.848a1.852 1.852 0 011.027-.308c.603 0 1.071.198 1.404.595.334.397.501.964.501 1.704v.33h-3.137c.011.456.144.825.398 1.108.257.28.582.42.976.42.279 0 .516-.058.71-.172.194-.114.364-.265.51-.454l.483.377c-.388.596-.97.895-1.746.895zm-.099-4.152c-.319 0-.587.117-.804.35-.217.232-.351.557-.403.977h2.32v-.06c-.022-.403-.131-.714-.325-.933-.194-.223-.457-.334-.788-.334zm5.522 2.837a.575.575 0 00-.244-.496c-.16-.12-.441-.223-.843-.308-.4-.086-.718-.189-.955-.308a1.377 1.377 0 01-.522-.428 1.036 1.036 0 01-.167-.591c0-.38.16-.7.48-.963.322-.263.733-.394 1.232-.394.526 0 .951.136 1.276.407.328.27.492.617.492 1.04h-.796a.714.714 0 00-.278-.561c-.183-.157-.414-.235-.694-.235-.288 0-.513.062-.676.188a.595.595 0 00-.244.492.48.48 0 00.227.433c.151.096.424.19.818.278.396.088.717.194.963.317.245.122.426.27.543.445.12.17.18.38.18.629 0 .414-.165.746-.496.997-.331.248-.761.373-1.289.373-.371 0-.699-.066-.984-.197a1.614 1.614 0 01-.672-.548 1.342 1.342 0 01-.24-.766h.792c.014.265.12.476.317.633.199.154.462.231.787.231.3 0 .539-.06.719-.18a.562.562 0 00.274-.488zm1.798.814a.5.5 0 01.12-.343c.083-.09.205-.137.368-.137s.285.046.368.137a.48.48 0 01.129.343.454.454 0 01-.129.33c-.083.088-.205.132-.368.132s-.285-.044-.368-.133a.473.473 0 01-.12-.33zm.004-3.78a.5.5 0 01.12-.342c.083-.092.206-.137.368-.137.163 0 .286.045.368.137a.48.48 0 01.129.342.454.454 0 01-.129.33c-.082.088-.205.133-.368.133-.162 0-.285-.045-.368-.133a.473.473 0 01-.12-.33zM35.932 48h-.796v-5.278l-1.597.587v-.72l2.269-.851h.124V48zm4.922 0h-.796v-5.278l-1.596.587v-.72l2.268-.851h.124V48zm2.376-.415c0-.137.04-.251.12-.343.082-.091.205-.137.368-.137.162 0 .285.046.368.137a.48.48 0 01.128.343.455.455 0 01-.128.33c-.083.088-.206.132-.368.132-.163 0-.286-.044-.368-.133a.473.473 0 01-.12-.33zm.004-3.78a.5.5 0 01.12-.342c.083-.092.206-.137.368-.137.163 0 .285.045.368.137a.482.482 0 01.129.342.456.456 0 01-.129.33c-.083.088-.205.133-.368.133s-.285-.045-.368-.133a.474.474 0 01-.12-.33zM47.9 48h-.796v-5.278l-1.597.587v-.72l2.269-.851h.124V48zm5.355-2.74a1.928 1.928 0 01-.595.476c-.229.12-.48.18-.754.18a1.67 1.67 0 01-.941-.266 1.733 1.733 0 01-.617-.745 2.561 2.561 0 01-.218-1.066c0-.416.078-.791.235-1.125.16-.334.386-.59.677-.767.29-.177.63-.265 1.018-.265.617 0 1.102.231 1.456.694.357.459.535 1.087.535 1.883v.231c0 1.213-.24 2.099-.72 2.658-.479.557-1.202.842-2.17.856h-.154v-.667h.167c.654-.012 1.156-.182 1.507-.51.351-.33.542-.853.574-1.566zm-1.22 0c.265 0 .51-.08.732-.243.225-.163.39-.364.492-.604v-.317c0-.52-.113-.941-.338-1.267-.226-.325-.511-.488-.856-.488-.348 0-.628.134-.84.403-.21.265-.316.616-.316 1.053 0 .425.101.776.304 1.053.205.273.48.41.822.41z" fill="#fff"/></g><g opacity=".2"><g filter="url(#filter4_d)"><rect x="4.644" y="9.654" width="102.543" height="30.463" rx="3.218" stroke="#33FF67" stroke-width="1.287"/></g><rect x="4" y="9.01" width="103.83" height="31.75" rx="3.861" fill="#006C1C" fill-opacity=".28"/><g filter="url(#filter5_d)"><path d="M13 40.76h7.723L13 45.48v-4.72z" fill="#33FF67"/></g><path d="M16.46 28.712h1.91v1.116h-1.91v2.178h-1.187v-2.178h-1.921v-1.116h1.92v-2.036h1.187v2.036zm3.167.398l.397-3.691h3.932v1.056H21.04l-.201 1.75a2.26 2.26 0 011.146-.292c.697 0 1.239.223 1.624.669.389.445.583 1.046.583 1.8 0 .744-.214 1.337-.643 1.78-.43.439-1.018.658-1.765.658-.67 0-1.227-.19-1.67-.568-.439-.382-.677-.885-.713-1.508h1.181c.047.355.174.628.382.82.208.187.48.28.815.28.375 0 .667-.133.875-.401.21-.269.317-.634.317-1.097 0-.445-.116-.797-.348-1.055-.23-.262-.55-.392-.955-.392-.221 0-.409.03-.563.09a1.54 1.54 0 00-.503.342l-.975-.241zm9.327-3.726v1.01h-.151c-.684.01-1.23.198-1.64.564-.408.365-.651.883-.728 1.553.392-.412.893-.618 1.503-.618.647 0 1.157.228 1.529.684.375.455.563 1.044.563 1.764 0 .744-.22 1.348-.659 1.81-.436.46-1.009.69-1.72.69-.73 0-1.323-.27-1.78-.81-.452-.54-.678-1.247-.678-2.122v-.417c0-1.284.311-2.29.935-3.017.627-.728 1.527-1.091 2.7-1.091h.126zm-1.313 3.494a1.328 1.328 0 00-1.227.83v.372c0 .543.115.975.342 1.297.228.319.523.478.885.478s.649-.136.86-.407c.211-.272.317-.629.317-1.071 0-.443-.107-.803-.322-1.081a1.026 1.026 0 00-.855-.418zm4.204 2.575c.228 0 .404.065.528.196a.664.664 0 01.186.482.66.66 0 01-.186.478c-.124.124-.3.186-.528.186-.218 0-.39-.062-.518-.186a.638.638 0 01-.191-.478c0-.194.062-.355.186-.482.124-.131.298-.197.523-.197zm6.958 1.287h-4.922v-.84l2.439-2.66c.352-.392.601-.719.749-.98.15-.265.226-.53.226-.795 0-.348-.099-.63-.297-.844-.194-.215-.457-.322-.789-.322-.396 0-.702.12-.92.362-.218.241-.327.571-.327.99H33.74c0-.445.1-.846.302-1.201a2.11 2.11 0 01.87-.835c.379-.198.814-.296 1.307-.296.71 0 1.27.179 1.68.537.412.356.618.848.618 1.479 0 .365-.104.749-.312 1.151-.204.399-.541.853-1.01 1.363l-1.79 1.915h3.398v.976zm5.064-2.61h.91v.98h-.91v1.63h-1.222v-1.63h-3.163l-.035-.744 3.158-4.947h1.262v4.711zm-3.138 0h1.916v-3.057l-.09.161-1.826 2.896zm12.972-4.711v4.892c0 .778-.25 1.395-.749 1.85-.496.453-1.158.68-1.986.68-.838 0-1.503-.224-1.996-.67-.493-.449-.74-1.07-.74-1.865V25.42h1.268v4.897c0 .49.124.863.372 1.122.248.258.613.387 1.096.387.979 0 1.468-.517 1.468-1.549V25.42h1.267zm5.189 5.435c0-.322-.114-.57-.342-.744-.224-.174-.632-.35-1.222-.528-.59-.178-1.059-.375-1.407-.593-.667-.42-1.001-.966-1.001-1.64 0-.59.24-1.075.719-1.457.483-.383 1.108-.573 1.875-.573.51 0 .964.093 1.363.281.399.188.712.456.94.804.228.346.342.73.342 1.152H58.89c0-.382-.12-.68-.362-.895-.238-.218-.58-.327-1.026-.327-.415 0-.739.089-.97.267-.228.177-.342.425-.342.744 0 .268.124.492.372.674.248.177.657.351 1.227.522.57.168 1.027.36 1.372.579.346.214.599.462.76.744.16.278.241.605.241.98 0 .61-.234 1.096-.704 1.458-.466.359-1.1.538-1.9.538a3.62 3.62 0 01-1.464-.291c-.442-.198-.787-.47-1.035-.815a2.034 2.034 0 01-.367-1.207h1.272c0 .416.137.738.412.966.275.228.669.342 1.182.342.442 0 .774-.09.995-.267a.873.873 0 00.337-.714zm2.388 1.886v-7.321h2.162c.647 0 1.22.144 1.72.432.503.289.892.698 1.166 1.227.275.53.413 1.137.413 1.82v.367c0 .694-.14 1.304-.418 1.83a2.893 2.893 0 01-1.181 1.217c-.51.285-1.095.428-1.755.428h-2.107zm1.272-6.295v5.279h.83c.667 0 1.178-.208 1.533-.623.36-.42.542-1.02.549-1.8v-.408c0-.794-.173-1.4-.518-1.82-.346-.419-.847-.628-1.504-.628h-.89zm-48.685-7.659l.014.327c.216-.254.507-.381.874-.381.412 0 .693.158.842.474a1.12 1.12 0 01.381-.344c.158-.087.344-.13.558-.13.647 0 .975.342.986 1.027v1.974h-.504v-1.945c0-.21-.048-.367-.144-.47-.096-.106-.258-.159-.485-.159a.665.665 0 00-.466.17.674.674 0 00-.215.448v1.956H15.2v-1.931c0-.428-.21-.643-.63-.643-.33 0-.556.141-.678.422v2.152h-.503v-2.947h.476zm6.237 2.947a1.062 1.062 0 01-.07-.31 1.124 1.124 0 01-.84.364c-.29 0-.529-.081-.716-.245a.803.803 0 01-.278-.626c0-.307.116-.545.349-.714.234-.17.563-.256.986-.256h.49v-.231a.561.561 0 00-.158-.42c-.105-.105-.26-.158-.466-.158-.18 0-.33.046-.452.137-.121.09-.182.2-.182.33h-.507c0-.148.052-.29.155-.426.106-.138.247-.247.425-.326.18-.08.377-.12.591-.12.34 0 .606.085.798.256.193.169.293.402.3.7v1.356c0 .27.034.486.103.645v.044h-.528zm-.836-.384c.158 0 .308-.04.45-.123a.742.742 0 00.307-.318v-.605h-.395c-.617 0-.926.18-.926.542 0 .158.053.282.158.37a.6.6 0 00.406.134zm3.04-1.487l.653-1.076h.588l-.964 1.457.994 1.49h-.583l-.68-1.103-.681 1.103h-.586l.994-1.49-.964-1.457h.583l.645 1.076zm2.325 1.871h-.504V17.55h.504v4.183zm1.356 0h-.503v-2.947h.503v2.947zm-.544-3.729c0-.081.024-.15.073-.206.051-.057.126-.085.224-.085s.172.028.223.085a.3.3 0 01.076.207c0 .081-.025.15-.076.204-.05.054-.125.082-.223.082s-.173-.028-.224-.082a.294.294 0 01-.073-.204zm1.83.782l.016.37c.225-.283.52-.424.883-.424.622 0 .936.351.942 1.054v1.947h-.504v-1.95c-.002-.213-.05-.37-.147-.471-.094-.102-.242-.153-.444-.153a.728.728 0 00-.43.131.889.889 0 00-.289.343v2.1h-.504v-2.947h.477zm3.824 3.001c-.4 0-.725-.13-.975-.392-.25-.263-.376-.614-.376-1.054v-.092c0-.293.055-.553.166-.782.113-.23.269-.41.468-.54.202-.13.42-.195.654-.195.383 0 .68.126.893.378.213.253.319.614.319 1.084v.21H30.25c.007.29.091.526.253.705.163.178.37.267.62.267a.878.878 0 00.453-.109c.123-.072.232-.169.324-.288l.308.24c-.247.379-.617.568-1.111.568zm-.063-2.641a.67.67 0 00-.512.223c-.138.147-.223.354-.256.621h1.476v-.038c-.014-.256-.083-.454-.207-.594a.63.63 0 00-.501-.212zm5 2.587a1.055 1.055 0 01-.07-.31 1.124 1.124 0 01-.84.364c-.29 0-.529-.081-.716-.245a.803.803 0 01-.277-.626c0-.307.116-.545.348-.714.234-.17.563-.256.986-.256h.49v-.231a.561.561 0 00-.158-.42c-.105-.105-.26-.158-.465-.158-.18 0-.33.046-.452.137-.122.09-.183.2-.183.33h-.507c0-.148.052-.29.156-.426.105-.138.247-.247.425-.326.18-.08.376-.12.59-.12.34 0 .606.085.799.256.192.169.292.402.3.7v1.356c0 .27.034.486.103.645v.044h-.529zm-.836-.384c.158 0 .308-.04.45-.123a.741.741 0 00.307-.318v-.605h-.395c-.617 0-.926.18-.926.542 0 .158.053.282.158.37.106.09.241.134.406.134zm2.299.384v-2.557h-.466v-.39h.466v-.302c0-.316.084-.56.253-.733.169-.172.408-.259.716-.259.117 0 .232.016.346.047l-.027.408a1.441 1.441 0 00-.272-.024.49.49 0 00-.379.144c-.089.095-.133.23-.133.409v.31h1.089v-.25c0-.329.093-.585.28-.768.19-.184.455-.276.799-.276.203 0 .46.056.77.167l-.084.425a1.75 1.75 0 00-.651-.137c-.216 0-.372.049-.468.145-.095.096-.142.242-.142.438v.256h.605v.39h-.605v2.557h-.504v-2.557H38v2.557h-.503zm3.69 0h-.504v-2.947h.504v2.947zm1.37 0h-.504V17.55h.504v4.183zm1.356 0h-.504v-2.947h.504v2.947zm-.544-3.729c0-.081.024-.15.073-.206.051-.057.125-.085.223-.085.099 0 .173.028.224.085a.3.3 0 01.076.207c0 .081-.025.15-.076.204-.051.054-.126.082-.224.082s-.172-.028-.223-.082a.294.294 0 01-.073-.204zm3.172 3.729a1.062 1.062 0 01-.07-.31 1.124 1.124 0 01-.84.364c-.29 0-.529-.081-.715-.245a.803.803 0 01-.278-.626c0-.307.116-.545.348-.714.235-.17.563-.256.986-.256h.49v-.231a.561.561 0 00-.158-.42c-.105-.105-.26-.158-.465-.158-.18 0-.33.046-.452.137-.122.09-.183.2-.183.33h-.506a.69.69 0 01.155-.426c.105-.138.247-.247.425-.326.18-.08.377-.12.59-.12.34 0 .606.085.799.256.192.169.292.402.3.7v1.356c0 .27.034.486.103.645v.044h-.529zm-.836-.384c.158 0 .308-.04.45-.123a.741.741 0 00.307-.318v-.605h-.395c-.617 0-.925.18-.925.542 0 .158.052.282.157.37.106.09.241.134.406.134zm2.735-3.276v.713h.55v.39h-.55v1.827c0 .118.024.207.073.267.05.058.133.087.25.087.059 0 .139-.01.24-.032v.408a1.46 1.46 0 01-.386.054c-.225 0-.395-.068-.51-.204-.114-.136-.171-.33-.171-.58v-1.827h-.537v-.39h.537v-.713h.504zm2.364 3.714c-.4 0-.725-.13-.975-.392-.25-.263-.376-.614-.376-1.054v-.092c0-.293.055-.553.166-.782.112-.23.269-.41.468-.54.202-.13.42-.195.654-.195.383 0 .68.126.893.378.213.253.319.614.319 1.084v.21h-1.996c.007.29.091.526.253.705.163.178.37.267.62.267a.878.878 0 00.453-.109c.123-.072.231-.169.324-.288l.308.24c-.247.379-.617.568-1.111.568zm-.063-2.641a.67.67 0 00-.512.223c-.138.147-.223.354-.256.621h1.476v-.038c-.014-.256-.083-.454-.207-.594a.63.63 0 00-.501-.212zm3.513 1.805a.366.366 0 00-.155-.316c-.102-.076-.28-.141-.536-.196a2.559 2.559 0 01-.608-.196.877.877 0 01-.332-.272.658.658 0 01-.106-.376c0-.241.101-.446.305-.613.205-.167.466-.25.784-.25.334 0 .605.086.812.258a.82.82 0 01.313.662h-.507a.454.454 0 00-.177-.357.653.653 0 00-.44-.15c-.184 0-.328.04-.431.12a.377.377 0 00-.156.314c0 .121.049.213.145.275.096.062.27.12.52.177.252.056.457.123.613.201a.874.874 0 01.346.284.68.68 0 01.114.4.758.758 0 01-.316.634c-.21.159-.484.237-.82.237-.236 0-.444-.041-.626-.125a1.033 1.033 0 01-.428-.348.855.855 0 01-.152-.488h.504a.527.527 0 00.201.403c.127.098.294.147.501.147a.815.815 0 00.458-.114.358.358 0 00.174-.31zm1.144.518c0-.087.025-.16.076-.218.053-.058.131-.087.235-.087.103 0 .181.029.234.087.054.058.082.13.082.218a.29.29 0 01-.082.21c-.053.056-.13.084-.234.084-.104 0-.182-.028-.235-.085a.301.301 0 01-.076-.21zm.003-2.405c0-.087.025-.16.076-.218.053-.058.13-.087.234-.087.104 0 .182.029.235.087.054.058.081.13.081.218a.29.29 0 01-.081.21c-.053.056-.131.084-.235.084-.103 0-.181-.028-.234-.084a.301.301 0 01-.076-.21zM6.816 3.309c0 .59-.1 1.028-.302 1.315-.202.287-.517.43-.945.43-.423 0-.737-.14-.94-.419-.203-.281-.309-.7-.316-1.258v-.673c0-.583.101-1.016.303-1.299.201-.283.517-.425.947-.425.427 0 .741.137.943.411.201.273.305.694.31 1.264v.654zm-.504-.69c0-.426-.06-.736-.18-.93-.12-.197-.31-.295-.569-.295-.258 0-.445.097-.563.292-.119.194-.18.492-.183.896v.806c0 .428.062.745.185.95a.621.621 0 00.567.305c.248 0 .433-.096.553-.288.121-.193.185-.496.19-.91V2.62zm3.08.638a1.228 1.228 0 01-.378.302 1.015 1.015 0 01-.48.115c-.228 0-.428-.057-.599-.17a1.1 1.1 0 01-.392-.473 1.63 1.63 0 01-.139-.678c0-.265.05-.504.15-.716.102-.213.245-.375.43-.488.186-.113.402-.169.649-.169.392 0 .7.147.926.441.227.293.34.692.34 1.199v.147c0 .771-.152 1.335-.458 1.691-.305.354-.765.536-1.38.545h-.098v-.425h.106c.416-.007.735-.115.959-.324.223-.21.344-.543.364-.997zm-.776 0a.772.772 0 00.466-.155.912.912 0 00.313-.384v-.202c0-.33-.072-.599-.215-.806-.143-.207-.325-.31-.545-.31-.221 0-.4.085-.533.256-.135.168-.202.392-.202.67 0 .27.064.493.193.67a.622.622 0 00.523.261zm2.013 1.479c0-.087.025-.16.076-.218.053-.058.13-.087.234-.087.104 0 .182.029.235.087.054.058.081.13.081.218a.29.29 0 01-.081.21c-.053.056-.131.084-.235.084-.103 0-.181-.028-.234-.084a.301.301 0 01-.076-.21zm.003-2.405a.32.32 0 01.076-.218c.053-.058.13-.087.234-.087.104 0 .182.029.234.087.055.058.082.13.082.218a.29.29 0 01-.082.21c-.052.056-.13.084-.234.084-.103 0-.181-.028-.234-.084a.301.301 0 01-.076-.21zm2.045.441h.379c.237-.003.424-.066.56-.188a.628.628 0 00.205-.493c0-.464-.232-.697-.695-.697a.727.727 0 00-.523.188.65.65 0 00-.193.493h-.504c0-.314.115-.575.343-.782.231-.208.523-.313.877-.313.374 0 .668.1.88.297.212.198.319.473.319.825 0 .173-.057.34-.17.501a.999.999 0 01-.454.363.967.967 0 01.504.343c.12.16.18.355.18.585 0 .356-.117.638-.349.847-.232.21-.535.313-.907.313s-.675-.1-.91-.302a1.005 1.005 0 01-.348-.798h.506c0 .209.068.376.205.501.136.126.318.188.547.188.243 0 .43-.063.558-.19.13-.128.194-.31.194-.548 0-.23-.071-.407-.213-.53-.141-.124-.346-.188-.612-.192h-.379v-.41zM17.674 5h-2.598v-.362l1.373-1.525c.203-.23.343-.418.42-.561a.939.939 0 00.116-.45.712.712 0 00-.187-.509.657.657 0 00-.502-.199c-.25 0-.445.072-.585.215-.138.142-.207.34-.207.594H15c0-.365.117-.66.351-.885.236-.225.551-.338.945-.338.369 0 .66.097.875.292.214.192.321.449.321.77 0 .39-.249.855-.746 1.395l-1.062 1.152h1.99V5z" fill="#fff"/></g><defs><filter id="filter0_d" x="7.488" y="111.017" width="217.025" height="76.793" filterUnits="userSpaceOnUse" color-interpolation-filters="sRGB"><feFlood flood-opacity="0" result="BackgroundImageFix"/><feColorMatrix in="SourceAlpha" values="0 0 0 0 0 0 0 0 0 0 0 0 0 0 0 0 0 0 127 0"/><feOffset/><feGaussianBlur stdDeviation="3.756"/><feColorMatrix values="0 0 0 0 0.370833 0 0 0 0 1 0 0 0 0 0.531292 0 0 0 1 0"/><feBlend in2="BackgroundImageFix" result="effect1_dropShadow"/><feBlend in="SourceGraphic" in2="effect1_dropShadow" result="shape"/></filter><filter id="filter1_d" x="25.488" y="172.785" width="30.05" height="24.207" filterUnits="userSpaceOnUse" color-interpolation-filters="sRGB"><feFlood flood-opacity="0" result="BackgroundImageFix"/><feColorMatrix in="SourceAlpha" values="0 0 0 0 0 0 0 0 0 0 0 0 0 0 0 0 0 0 127 0"/><feOffset/><feGaussianBlur stdDeviation="3.756"/><feColorMatrix values="0 0 0 0 0.370833 0 0 0 0 1 0 0 0 0 0.531292 0 0 0 1 0"/><feBlend in2="BackgroundImageFix" result="effect1_dropShadow"/><feBlend in="SourceGraphic" in2="effect1_dropShadow" result="shape"/></filter><filter id="filter2_d" x="26.742" y="48.092" width="175.327" height="62.039" filterUnits="userSpaceOnUse" color-interpolation-filters="sRGB"><feFlood flood-opacity="0" result="BackgroundImageFix"/><feColorMatrix in="SourceAlpha" values="0 0 0 0 0 0 0 0 0 0 0 0 0 0 0 0 0 0 127 0"/><feOffset/><feGaussianBlur stdDeviation="3.034"/><feColorMatrix values="0 0 0 0 0.370833 0 0 0 0 1 0 0 0 0 0.531292 0 0 0 1 0"/><feBlend in2="BackgroundImageFix" result="effect1_dropShadow"/><feBlend in="SourceGraphic" in2="effect1_dropShadow" result="shape"/></filter><filter id="filter3_d" x="40.931" y="97.993" width="24.276" height="19.556" filterUnits="userSpaceOnUse" color-interpolation-filters="sRGB"><feFlood flood-opacity="0" result="BackgroundImageFix"/><feColorMatrix in="SourceAlpha" values="0 0 0 0 0 0 0 0 0 0 0 0 0 0 0 0 0 0 127 0"/><feOffset/><feGaussianBlur stdDeviation="3.034"/><feColorMatrix values="0 0 0 0 0.370833 0 0 0 0 1 0 0 0 0 0.531292 0 0 0 1 0"/><feBlend in2="BackgroundImageFix" result="effect1_dropShadow"/><feBlend in="SourceGraphic" in2="effect1_dropShadow" result="shape"/></filter><filter id="filter4_d" x=".139" y="5.149" width="111.553" height="39.473" filterUnits="userSpaceOnUse" color-interpolation-filters="sRGB"><feFlood flood-opacity="0" result="BackgroundImageFix"/><feColorMatrix in="SourceAlpha" values="0 0 0 0 0 0 0 0 0 0 0 0 0 0 0 0 0 0 127 0"/><feOffset/><feGaussianBlur stdDeviation="1.931"/><feColorMatrix values="0 0 0 0 0.370833 0 0 0 0 1 0 0 0 0 0.531292 0 0 0 1 0"/><feBlend in2="BackgroundImageFix" result="effect1_dropShadow"/><feBlend in="SourceGraphic" in2="effect1_dropShadow" result="shape"/></filter><filter id="filter5_d" x="9.139" y="36.898" width="15.446" height="12.443" filterUnits="userSpaceOnUse" color-interpolation-filters="sRGB"><feFlood flood-opacity="0" result="BackgroundImageFix"/><feColorMatrix in="SourceAlpha" values="0 0 0 0 0 0 0 0 0 0 0 0 0 0 0 0 0 0 127 0"/><feOffset/><feGaussianBlur stdDeviation="1.931"/><feColorMatrix values="0 0 0 0 0.370833 0 0 0 0 1 0 0 0 0 0.531292 0 0 0 1 0"/><feBlend in2="BackgroundImageFix" result="effect1_dropShadow"/><feBlend in="SourceGraphic" in2="effect1_dropShadow" result="shape"/></filter></defs></svg>