<svg width="260" height="115" fill="none" xmlns="http://www.w3.org/2000/svg"><g filter="url(#filter0_d)"><rect x="10.5" y="22.5" width="239" height="71" rx="7.5" stroke="#33FF67" stroke-width="3"/></g><rect x="9" y="21" width="242" height="74" rx="9" fill="#006C1C" fill-opacity=".28"/><g filter="url(#filter1_d)"><path d="M31 95h18l-18 11V95z" fill="#25D652"/></g><path d="M38.04 65.613h4.452v2.602H38.04v5.074h-2.766v-5.074h-4.476v-2.602h4.476v-4.746h2.766v4.746zM52.37 75h-2.836V61.3l-4.183 1.43v-2.402l6.656-2.45h.363V75zm17.402 0H58.301v-1.957l5.683-6.2c.82-.913 1.403-1.675 1.747-2.284.351-.618.527-1.235.527-1.852 0-.813-.23-1.469-.692-1.969-.453-.5-1.066-.75-1.84-.75-.921 0-1.636.282-2.144.844-.508.563-.762 1.332-.762 2.309h-2.847c0-1.04.234-1.973.703-2.801a4.918 4.918 0 012.027-1.946c.883-.46 1.899-.69 3.047-.69 1.656 0 2.96.417 3.914 1.253.961.828 1.442 1.977 1.442 3.445 0 .852-.243 1.746-.727 2.684-.477.93-1.262 1.988-2.356 3.176l-4.171 4.465h7.921V75zm13.29-7.184c0 2.453-.461 4.305-1.383 5.555-.914 1.242-2.309 1.863-4.184 1.863-1.844 0-3.234-.605-4.172-1.816-.93-1.219-1.406-3.02-1.43-5.402v-2.954c0-2.453.458-4.292 1.372-5.519.921-1.227 2.324-1.84 4.207-1.84 1.867 0 3.258.598 4.171 1.793.922 1.195 1.395 2.984 1.418 5.367v2.953zm-2.848-3.187c0-1.602-.219-2.774-.656-3.516-.438-.75-1.133-1.125-2.086-1.125-.93 0-1.614.356-2.051 1.067-.438.703-.668 1.804-.691 3.304v3.868c0 1.593.222 2.78.667 3.562.446.781 1.145 1.172 2.098 1.172.914 0 1.59-.36 2.027-1.078.438-.727.668-1.86.692-3.399V64.63zM87.539 72c.531 0 .942.152 1.23.457.29.297.434.672.434 1.125 0 .445-.144.816-.434 1.113-.288.29-.699.434-1.23.434-.508 0-.91-.145-1.207-.434-.297-.289-.445-.66-.445-1.113 0-.453.144-.828.433-1.125.29-.305.696-.457 1.22-.457zm16.219 3H92.285v-1.957l5.684-6.2c.82-.913 1.402-1.675 1.746-2.284.351-.618.527-1.235.527-1.852 0-.813-.23-1.469-.691-1.969-.453-.5-1.067-.75-1.84-.75-.922 0-1.637.282-2.145.844-.507.563-.761 1.332-.761 2.309h-2.848c0-1.04.234-1.973.703-2.801a4.918 4.918 0 012.028-1.946c.882-.46 1.898-.69 3.046-.69 1.657 0 2.961.417 3.914 1.253.961.828 1.442 1.977 1.442 3.445 0 .852-.242 1.746-.727 2.684-.476.93-1.261 1.988-2.355 3.176l-4.172 4.465h7.922V75zm13.289-7.184c0 2.453-.461 4.305-1.383 5.555-.914 1.242-2.309 1.863-4.184 1.863-1.843 0-3.234-.605-4.171-1.816-.93-1.219-1.407-3.02-1.43-5.402v-2.954c0-2.453.457-4.292 1.371-5.519.922-1.227 2.324-1.84 4.207-1.84 1.867 0 3.258.598 4.172 1.793.922 1.195 1.394 2.984 1.418 5.367v2.953zm-2.848-3.187c0-1.602-.219-2.774-.656-3.516-.438-.75-1.133-1.125-2.086-1.125-.93 0-1.613.356-2.051 1.067-.437.703-.668 1.804-.691 3.304v3.868c0 1.593.223 2.78.668 3.562.445.781 1.144 1.172 2.097 1.172.915 0 1.59-.36 2.028-1.078.437-.727.668-1.86.691-3.399V64.63zm24.281-6.692V69.34c0 1.812-.582 3.25-1.746 4.312-1.156 1.055-2.699 1.582-4.629 1.582-1.953 0-3.503-.52-4.652-1.558-1.148-1.047-1.723-2.496-1.723-4.348v-11.39h2.954v11.414c0 1.14.289 2.011.867 2.613.578.601 1.429.902 2.554.902 2.282 0 3.422-1.203 3.422-3.61v-11.32h2.953zm12.094 12.669c0-.75-.265-1.329-.797-1.735-.523-.406-1.472-.816-2.847-1.23-1.375-.414-2.469-.875-3.282-1.383-1.554-.977-2.332-2.25-2.332-3.82 0-1.376.559-2.508 1.676-3.399 1.125-.89 2.582-1.336 4.371-1.336 1.188 0 2.246.219 3.176.656.93.438 1.66 1.063 2.191 1.875.532.805.797 1.7.797 2.684h-2.953c0-.89-.281-1.586-.844-2.086-.554-.508-1.351-.762-2.39-.762-.969 0-1.723.207-2.262.621-.531.414-.797.993-.797 1.735 0 .625.289 1.148.867 1.57.579.414 1.532.82 2.86 1.219 1.328.39 2.394.84 3.199 1.347.805.5 1.395 1.079 1.77 1.735.375.648.562 1.41.562 2.285 0 1.422-.547 2.555-1.641 3.399-1.086.835-2.562 1.253-4.429 1.253-1.235 0-2.371-.226-3.41-.68-1.032-.46-1.836-1.093-2.414-1.898-.571-.804-.856-1.742-.856-2.812h2.965c0 .969.32 1.719.961 2.25.64.531 1.558.797 2.754.797 1.031 0 1.804-.207 2.32-.622.523-.421.785-.976.785-1.663zM156.141 75V57.937h5.039c1.508 0 2.843.336 4.008 1.008 1.171.672 2.078 1.625 2.718 2.86.641 1.234.961 2.648.961 4.242v.855c0 1.617-.324 3.04-.972 4.266a6.748 6.748 0 01-2.754 2.836c-1.188.664-2.551.996-4.09.996h-4.91zm2.964-14.672v12.305h1.934c1.555 0 2.746-.485 3.574-1.453.836-.977 1.262-2.375 1.278-4.196v-.949c0-1.851-.403-3.265-1.207-4.242-.805-.977-1.973-1.465-3.504-1.465h-2.075zM31.993 44.132l.032.762c.504-.593 1.183-.89 2.038-.89.96 0 1.614.369 1.96 1.105a2.61 2.61 0 01.89-.8c.368-.203.802-.304 1.3-.304 1.507 0 2.273.798 2.299 2.393V51h-1.175v-4.532c0-.491-.112-.857-.336-1.098-.224-.246-.6-.368-1.13-.368-.436 0-.798.13-1.085.393-.288.258-.455.607-.502 1.047V51h-1.18v-4.5c0-1-.49-1.498-1.467-1.498-.77 0-1.297.327-1.58.983V51h-1.175v-6.868h1.111zM46.53 51c-.067-.135-.122-.377-.165-.724-.546.567-1.197.851-1.955.851-.677 0-1.233-.19-1.67-.571a1.872 1.872 0 01-.647-1.46c0-.715.271-1.27.813-1.663.546-.398 1.312-.597 2.298-.597h1.142v-.54c0-.41-.123-.736-.368-.977-.245-.246-.607-.368-1.085-.368-.42 0-.77.105-1.054.317-.284.212-.425.468-.425.768h-1.181c0-.343.12-.673.362-.99.245-.322.575-.576.99-.762.419-.186.878-.28 1.377-.28.792 0 1.412.2 1.86.598.449.393.682.937.699 1.63v3.162c0 .63.08 1.132.24 1.504V51h-1.23zm-1.948-.895c.368 0 .717-.095 1.047-.286.33-.19.57-.438.717-.742v-1.41h-.92c-1.439 0-2.158.422-2.158 1.264 0 .368.122.656.368.863.245.207.56.311.946.311zm7.084-3.466l1.523-2.507h1.371l-2.247 3.396L54.629 51H53.27l-1.587-2.57L50.097 51h-1.365l2.317-3.472-2.247-3.396h1.358l1.505 2.507zM57.085 51h-1.174v-9.75h1.174V51zm3.162 0h-1.175v-6.868h1.175V51zm-1.27-8.69a.71.71 0 01.171-.482c.119-.132.292-.197.52-.197.23 0 .403.066.522.197a.694.694 0 01.177.482c0 .19-.06.35-.177.476-.119.127-.292.19-.521.19-.229 0-.402-.063-.52-.19a.685.685 0 01-.172-.476zm4.266 1.822l.038.863c.525-.66 1.21-.99 2.056-.99 1.452 0 2.184.819 2.197 2.456V51h-1.175v-4.545c-.004-.495-.118-.861-.342-1.098-.22-.237-.565-.355-1.035-.355-.38 0-.715.101-1.003.304a2.07 2.07 0 00-.673.8V51h-1.174v-6.868h1.11zm8.912 6.995c-.931 0-1.689-.305-2.273-.914-.584-.614-.876-1.433-.876-2.457v-.215c0-.682.13-1.289.388-1.822a3.048 3.048 0 011.091-1.257c.47-.305.978-.457 1.524-.457.893 0 1.587.294 2.082.882.495.588.743 1.43.743 2.527v.488H70.18c.017.677.213 1.225.59 1.644.38.415.863.623 1.447.623.415 0 .766-.085 1.054-.254.288-.17.54-.394.755-.673l.718.558c-.576.885-1.44 1.327-2.59 1.327zm-.146-6.157c-.474 0-.872.173-1.194.52-.321.343-.52.825-.596 1.447h3.44v-.088c-.034-.597-.195-1.058-.482-1.384-.288-.33-.677-.495-1.168-.495zM83.663 51c-.068-.135-.123-.377-.165-.724-.546.567-1.198.851-1.955.851-.677 0-1.234-.19-1.67-.571a1.872 1.872 0 01-.647-1.46c0-.715.27-1.27.813-1.663.546-.398 1.311-.597 2.297-.597h1.143v-.54c0-.41-.123-.736-.368-.977-.246-.246-.607-.368-1.086-.368-.419 0-.77.105-1.053.317-.284.212-.426.468-.426.768h-1.18c0-.343.12-.673.362-.99a2.51 2.51 0 01.99-.762c.419-.186.878-.28 1.377-.28.792 0 1.412.2 1.86.598.449.393.681.937.698 1.63v3.162c0 .63.08 1.132.241 1.504V51h-1.23zm-1.949-.895c.368 0 .718-.095 1.048-.286.33-.19.569-.438.717-.742v-1.41h-.92c-1.44 0-2.159.422-2.159 1.264 0 .368.123.656.369.863.245.207.56.311.945.311zm5.358.895v-5.96h-1.086v-.908h1.086v-.705c0-.736.197-1.305.59-1.707.394-.402.95-.603 1.67-.603.27 0 .54.036.806.108l-.064.952a3.371 3.371 0 00-.635-.057c-.38 0-.674.112-.882.336-.207.22-.31.537-.31.952v.724h2.538v-.584c0-.766.218-1.363.654-1.79.44-.428 1.06-.641 1.86-.641.474 0 1.073.129 1.796.387l-.197.99c-.528-.211-1.034-.317-1.517-.317-.503 0-.867.112-1.091.336-.22.224-.33.565-.33 1.022v.597h1.409v.908h-1.41V51h-1.174v-5.96h-2.539V51h-1.174zm8.6 0H94.5v-6.868h1.174V51zm3.194 0H97.69v-9.75h1.175V51zm3.161 0h-1.174v-6.868h1.174V51zm-1.27-8.69c0-.19.057-.351.172-.482.118-.132.292-.197.52-.197.229 0 .402.066.521.197a.695.695 0 01.177.482c0 .19-.059.35-.177.476-.119.127-.292.19-.521.19-.228 0-.402-.063-.52-.19a.682.682 0 01-.172-.476zm7.395 8.69c-.067-.135-.122-.377-.165-.724-.546.567-1.197.851-1.955.851-.677 0-1.233-.19-1.669-.571a1.872 1.872 0 01-.648-1.46c0-.715.271-1.27.813-1.663.546-.398 1.312-.597 2.298-.597h1.142v-.54c0-.41-.122-.736-.368-.977-.245-.246-.607-.368-1.085-.368-.419 0-.771.105-1.054.317-.284.212-.425.468-.425.768h-1.181c0-.343.121-.673.362-.99.245-.322.575-.576.99-.762.419-.186.878-.28 1.377-.28.792 0 1.412.2 1.86.598.449.393.682.937.699 1.63v3.162c0 .63.08 1.132.241 1.504V51h-1.232zm-1.948-.895c.368 0 .717-.095 1.047-.286.33-.19.569-.438.717-.742v-1.41h-.92c-1.439 0-2.158.422-2.158 1.264 0 .368.122.656.368.863.245.207.561.311.946.311zm6.373-7.636v1.663h1.282v.908h-1.282v4.259c0 .275.057.482.171.622.114.135.309.203.584.203.135 0 .322-.025.559-.076V51c-.309.085-.61.127-.902.127-.524 0-.92-.159-1.187-.476-.266-.318-.4-.768-.4-1.352v-4.26h-1.25v-.907h1.25v-1.663h1.175zm5.509 8.658c-.931 0-1.688-.305-2.272-.914-.584-.614-.876-1.433-.876-2.457v-.215c0-.682.129-1.289.387-1.822a3.05 3.05 0 011.092-1.257c.47-.305.978-.457 1.523-.457.893 0 1.587.294 2.082.882.496.588.743 1.43.743 2.527v.488h-4.653c.017.677.214 1.225.591 1.644.38.415.863.623 1.447.623.415 0 .766-.085 1.054-.254a2.66 2.66 0 00.755-.673l.717.558c-.575.885-1.439 1.327-2.59 1.327zm-.146-6.157c-.474 0-.871.173-1.193.52-.322.343-.52.825-.597 1.447h3.441v-.088c-.034-.597-.195-1.058-.483-1.384-.287-.33-.677-.495-1.168-.495zm8.189 4.208c0-.317-.121-.563-.362-.736-.237-.178-.654-.33-1.25-.457-.593-.127-1.065-.28-1.416-.457-.347-.178-.605-.39-.774-.635a1.533 1.533 0 01-.248-.876c0-.563.237-1.039.711-1.428.478-.39 1.088-.584 1.828-.584.779 0 1.409.2 1.892.603.486.402.73.916.73 1.542h-1.181c0-.321-.137-.598-.413-.831-.27-.233-.613-.35-1.028-.35-.427 0-.762.094-1.003.28a.88.88 0 00-.362.73c0 .284.113.497.337.641.224.144.628.282 1.212.413.588.13 1.065.288 1.428.47.364.181.633.401.807.66.177.254.266.565.266.933 0 .613-.245 1.106-.736 1.479-.491.368-1.128.552-1.911.552-.55 0-1.037-.097-1.46-.292a2.405 2.405 0 01-.996-.813 1.993 1.993 0 01-.356-1.136h1.175c.021.394.177.707.469.94.297.228.686.343 1.168.343.445 0 .8-.09 1.067-.267.27-.182.406-.423.406-.724zm2.666 1.206c0-.203.059-.372.178-.508.122-.135.304-.203.546-.203.241 0 .423.068.545.203a.714.714 0 01.191.508.675.675 0 01-.191.489c-.122.131-.304.197-.545.197-.242 0-.424-.066-.546-.197a.7.7 0 01-.178-.489zm.006-5.605c0-.203.06-.372.178-.508.123-.135.305-.203.546-.203.241 0 .423.068.546.204a.71.71 0 01.19.507.675.675 0 01-.19.49c-.123.13-.305.196-.546.196-.241 0-.423-.066-.546-.197a.705.705 0 01-.178-.489zM13.627 12h-1.18V4.173l-2.368.87V3.977l3.364-1.264h.184V12zm9.496 0h-6.055v-.844l3.2-3.555c.473-.537.799-.973.977-1.308.182-.338.273-.687.273-1.047 0-.482-.146-.878-.438-1.187-.292-.309-.682-.463-1.168-.463-.584 0-1.04.167-1.365.501-.322.33-.483.792-.483 1.384H16.89c0-.85.273-1.538.819-2.063.55-.525 1.284-.787 2.203-.787.859 0 1.538.226 2.037.68.5.448.75 1.046.75 1.795 0 .91-.58 1.994-1.74 3.25l-2.476 2.685h4.64V12zm1.327-.616c0-.203.06-.372.178-.508.123-.135.305-.203.546-.203.241 0 .423.068.546.204a.71.71 0 01.19.507.675.675 0 01-.19.489c-.123.131-.305.197-.546.197-.241 0-.423-.066-.546-.197a.702.702 0 01-.178-.489zm.006-5.605c0-.203.06-.372.178-.508.123-.135.305-.203.546-.203.241 0 .423.068.546.203.127.136.19.305.19.508a.675.675 0 01-.19.49c-.123.13-.305.196-.546.196-.241 0-.423-.066-.546-.197a.702.702 0 01-.178-.489zm8.018 3.117h1.282v.958h-1.282V12h-1.181V9.854h-4.209v-.691l4.14-6.405h1.25v6.138zm-4.056 0h2.875V4.364l-.14.254-2.735 4.278zm12.193-.838c0 1.375-.234 2.397-.704 3.066s-1.204 1.003-2.203 1.003c-.986 0-1.716-.326-2.19-.978-.474-.655-.72-1.633-.736-2.932V6.649c0-1.358.235-2.368.704-3.028.47-.66 1.206-.99 2.21-.99.994 0 1.726.32 2.196.958.47.635.71 1.617.723 2.946v1.523zm-1.174-1.606c0-.994-.14-1.718-.419-2.17-.28-.458-.721-.686-1.327-.686-.6 0-1.038.226-1.314.679-.275.453-.416 1.149-.425 2.088v1.88c0 .998.144 1.736.432 2.214.292.474.732.711 1.32.711.58 0 1.01-.224 1.289-.672.283-.449.431-1.156.444-2.12V6.451z" fill="#fff"/><defs><filter id="filter0_d" x="0" y="12" width="260" height="92" filterUnits="userSpaceOnUse" color-interpolation-filters="sRGB"><feFlood flood-opacity="0" result="BackgroundImageFix"/><feColorMatrix in="SourceAlpha" values="0 0 0 0 0 0 0 0 0 0 0 0 0 0 0 0 0 0 127 0"/><feOffset/><feGaussianBlur stdDeviation="4.5"/><feColorMatrix values="0 0 0 0 0.370833 0 0 0 0 1 0 0 0 0 0.531292 0 0 0 1 0"/><feBlend in2="BackgroundImageFix" result="effect1_dropShadow"/><feBlend in="SourceGraphic" in2="effect1_dropShadow" result="shape"/></filter><filter id="filter1_d" x="22" y="86" width="36" height="29" filterUnits="userSpaceOnUse" color-interpolation-filters="sRGB"><feFlood flood-opacity="0" result="BackgroundImageFix"/><feColorMatrix in="SourceAlpha" values="0 0 0 0 0 0 0 0 0 0 0 0 0 0 0 0 0 0 127 0"/><feOffset/><feGaussianBlur stdDeviation="4.5"/><feColorMatrix values="0 0 0 0 0.370833 0 0 0 0 1 0 0 0 0 0.531292 0 0 0 1 0"/><feBlend in2="BackgroundImageFix" result="effect1_dropShadow"/><feBlend in="SourceGraphic" in2="effect1_dropShadow" result="shape"/></filter></defs></svg>