<svg width="70" height="70" fill="none" xmlns="http://www.w3.org/2000/svg"><path d="M62.222 54.444H7.778V41.456a13.804 13.804 0 01-3.89-2.781v15.77a3.89 3.89 0 003.89 3.888h54.444a3.889 3.889 0 003.89-3.889V38.675a13.106 13.106 0 01-3.89 2.761v13.008z" fill="#000"/><path d="M48.611 43.556a1.944 1.944 0 001.945-1.945V30.994h-3.89V35H27.223v3.889h19.445v2.722a1.944 1.944 0 001.944 1.945z" fill="#000"/><path d="M64.167 11.667h-17.5v-3.15a4.706 4.706 0 00-4.764-4.628H28.097a4.706 4.706 0 00-4.764 4.628v3.15h-17.5A1.945 1.945 0 003.89 13.61v15.556a9.722 9.722 0 009.722 9.722h5.833v2.722a1.945 1.945 0 003.89 0V30.995h-3.89V35h-5.833a5.833 5.833 0 01-5.833-5.833V15.556h54.444v13.61A5.834 5.834 0 0156.39 35h-1.945v3.889h1.945a9.722 9.722 0 009.722-9.722V13.61a1.945 1.945 0 00-1.944-1.944zm-21.39 0H27.223V8.614a.875.875 0 01.875-.836h13.825a.836.836 0 01.856.816v3.073z" fill="#000"/></svg>