<svg width="260" height="115" viewBox="0 0 260 115" fill="none" xmlns="http://www.w3.org/2000/svg">
<g filter="url(#filter0_d)">
<rect x="10.5" y="22.5" width="239" height="71" rx="7.5" stroke="#33FF67" stroke-width="3"/>
</g>
<rect x="9" y="21" width="242" height="74" rx="9" fill="#006C1C" fill-opacity="0.28"/>
<g filter="url(#filter1_d)">
<path d="M31 95H49L31 106V95Z" fill="#25D652"/>
</g>
<path d="M38.0391 65.6133H42.4922V68.2148H38.0391V73.2891H35.2734V68.2148H30.7969V65.6133H35.2734V60.8672H38.0391V65.6133ZM52.3711 75H49.5352V61.3008L45.3516 62.7305V60.3281L52.0078 57.8789H52.3711V75ZM69.7734 75H58.3008V73.043L63.9844 66.8438C64.8047 65.9297 65.3867 65.168 65.7305 64.5586C66.082 63.9414 66.2578 63.3242 66.2578 62.707C66.2578 61.8945 66.0273 61.2383 65.5664 60.7383C65.1133 60.2383 64.5 59.9883 63.7266 59.9883C62.8047 59.9883 62.0898 60.2695 61.582 60.832C61.0742 61.3945 60.8203 62.1641 60.8203 63.1406H57.9727C57.9727 62.1016 58.207 61.168 58.6758 60.3398C59.1523 59.5039 59.8281 58.8555 60.7031 58.3945C61.5859 57.9336 62.6016 57.7031 63.75 57.7031C65.4062 57.7031 66.7109 58.1211 67.6641 58.957C68.625 59.7852 69.1055 60.9336 69.1055 62.4023C69.1055 63.2539 68.8633 64.1484 68.3789 65.0859C67.9023 66.0156 67.1172 67.0742 66.0234 68.2617L61.8516 72.7266H69.7734V75ZM83.0625 67.8164C83.0625 70.2695 82.6016 72.1211 81.6797 73.3711C80.7656 74.6133 79.3711 75.2344 77.4961 75.2344C75.6523 75.2344 74.2617 74.6289 73.3242 73.418C72.3945 72.1992 71.918 70.3984 71.8945 68.0156V65.0625C71.8945 62.6094 72.3516 60.7695 73.2656 59.543C74.1875 58.3164 75.5898 57.7031 77.4727 57.7031C79.3398 57.7031 80.7305 58.3008 81.6445 59.4961C82.5664 60.6914 83.0391 62.4805 83.0625 64.8633V67.8164ZM80.2148 64.6289C80.2148 63.0273 79.9961 61.8555 79.5586 61.1133C79.1211 60.3633 78.4258 59.9883 77.4727 59.9883C76.543 59.9883 75.8594 60.3438 75.4219 61.0547C74.9844 61.7578 74.7539 62.8594 74.7305 64.3594V68.2266C74.7305 69.8203 74.9531 71.0078 75.3984 71.7891C75.8438 72.5703 76.543 72.9609 77.4961 72.9609C78.4102 72.9609 79.0859 72.6016 79.5234 71.8828C79.9609 71.1562 80.1914 70.0234 80.2148 68.4844V64.6289ZM87.5391 72C88.0703 72 88.4805 72.1523 88.7695 72.457C89.0586 72.7539 89.2031 73.1289 89.2031 73.582C89.2031 74.0273 89.0586 74.3984 88.7695 74.6953C88.4805 74.9844 88.0703 75.1289 87.5391 75.1289C87.0312 75.1289 86.6289 74.9844 86.332 74.6953C86.0352 74.4062 85.8867 74.0352 85.8867 73.582C85.8867 73.1289 86.0312 72.7539 86.3203 72.457C86.6094 72.1523 87.0156 72 87.5391 72ZM103.758 75H92.2852V73.043L97.9688 66.8438C98.7891 65.9297 99.3711 65.168 99.7148 64.5586C100.066 63.9414 100.242 63.3242 100.242 62.707C100.242 61.8945 100.012 61.2383 99.5508 60.7383C99.0977 60.2383 98.4844 59.9883 97.7109 59.9883C96.7891 59.9883 96.0742 60.2695 95.5664 60.832C95.0586 61.3945 94.8047 62.1641 94.8047 63.1406H91.957C91.957 62.1016 92.1914 61.168 92.6602 60.3398C93.1367 59.5039 93.8125 58.8555 94.6875 58.3945C95.5703 57.9336 96.5859 57.7031 97.7344 57.7031C99.3906 57.7031 100.695 58.1211 101.648 58.957C102.609 59.7852 103.09 60.9336 103.09 62.4023C103.09 63.2539 102.848 64.1484 102.363 65.0859C101.887 66.0156 101.102 67.0742 100.008 68.2617L95.8359 72.7266H103.758V75ZM117.047 67.8164C117.047 70.2695 116.586 72.1211 115.664 73.3711C114.75 74.6133 113.355 75.2344 111.48 75.2344C109.637 75.2344 108.246 74.6289 107.309 73.418C106.379 72.1992 105.902 70.3984 105.879 68.0156V65.0625C105.879 62.6094 106.336 60.7695 107.25 59.543C108.172 58.3164 109.574 57.7031 111.457 57.7031C113.324 57.7031 114.715 58.3008 115.629 59.4961C116.551 60.6914 117.023 62.4805 117.047 64.8633V67.8164ZM114.199 64.6289C114.199 63.0273 113.98 61.8555 113.543 61.1133C113.105 60.3633 112.41 59.9883 111.457 59.9883C110.527 59.9883 109.844 60.3438 109.406 61.0547C108.969 61.7578 108.738 62.8594 108.715 64.3594V68.2266C108.715 69.8203 108.938 71.0078 109.383 71.7891C109.828 72.5703 110.527 72.9609 111.48 72.9609C112.395 72.9609 113.07 72.6016 113.508 71.8828C113.945 71.1562 114.176 70.0234 114.199 68.4844V64.6289ZM138.48 57.9375V69.3398C138.48 71.1523 137.898 72.5898 136.734 73.6523C135.578 74.707 134.035 75.2344 132.105 75.2344C130.152 75.2344 128.602 74.7148 127.453 73.6758C126.305 72.6289 125.73 71.1797 125.73 69.3281V57.9375H128.684V69.3516C128.684 70.4922 128.973 71.3633 129.551 71.9648C130.129 72.5664 130.98 72.8672 132.105 72.8672C134.387 72.8672 135.527 71.6641 135.527 69.2578V57.9375H138.48ZM150.574 70.6055C150.574 69.8555 150.309 69.2773 149.777 68.8711C149.254 68.4648 148.305 68.0547 146.93 67.6406C145.555 67.2266 144.461 66.7656 143.648 66.2578C142.094 65.2812 141.316 64.0078 141.316 62.4375C141.316 61.0625 141.875 59.9297 142.992 59.0391C144.117 58.1484 145.574 57.7031 147.363 57.7031C148.551 57.7031 149.609 57.9219 150.539 58.3594C151.469 58.7969 152.199 59.4219 152.73 60.2344C153.262 61.0391 153.527 61.9336 153.527 62.918H150.574C150.574 62.0273 150.293 61.332 149.73 60.832C149.176 60.3242 148.379 60.0703 147.34 60.0703C146.371 60.0703 145.617 60.2773 145.078 60.6914C144.547 61.1055 144.281 61.6836 144.281 62.4258C144.281 63.0508 144.57 63.5742 145.148 63.9961C145.727 64.4102 146.68 64.8164 148.008 65.2148C149.336 65.6055 150.402 66.0547 151.207 66.5625C152.012 67.0625 152.602 67.6406 152.977 68.2969C153.352 68.9453 153.539 69.707 153.539 70.582C153.539 72.0039 152.992 73.1367 151.898 73.9805C150.812 74.8164 149.336 75.2344 147.469 75.2344C146.234 75.2344 145.098 75.0078 144.059 74.5547C143.027 74.0938 142.223 73.4609 141.645 72.6562C141.074 71.8516 140.789 70.9141 140.789 69.8438H143.754C143.754 70.8125 144.074 71.5625 144.715 72.0938C145.355 72.625 146.273 72.8906 147.469 72.8906C148.5 72.8906 149.273 72.6836 149.789 72.2695C150.312 71.8477 150.574 71.293 150.574 70.6055ZM156.141 75V57.9375H161.18C162.688 57.9375 164.023 58.2734 165.188 58.9453C166.359 59.6172 167.266 60.5703 167.906 61.8047C168.547 63.0391 168.867 64.4531 168.867 66.0469V66.9023C168.867 68.5195 168.543 69.9414 167.895 71.168C167.254 72.3945 166.336 73.3398 165.141 74.0039C163.953 74.668 162.59 75 161.051 75H156.141ZM159.105 60.3281V72.6328H161.039C162.594 72.6328 163.785 72.1484 164.613 71.1797C165.449 70.2031 165.875 68.8047 165.891 66.9844V66.0352C165.891 64.1836 165.488 62.7695 164.684 61.793C163.879 60.8164 162.711 60.3281 161.18 60.3281H159.105Z" fill="white"/>
<path d="M31.9932 44.1318L32.0249 44.8936C32.5285 44.3011 33.2077 44.0049 34.0625 44.0049C35.0231 44.0049 35.6769 44.373 36.0239 45.1094C36.2524 44.7793 36.5487 44.5127 36.9126 44.3096C37.2808 44.1064 37.7145 44.0049 38.2139 44.0049C39.7204 44.0049 40.4863 44.8026 40.5117 46.3979V51H39.3374V46.4678C39.3374 45.9769 39.2253 45.6108 39.001 45.3696C38.7767 45.1242 38.4001 45.0015 37.8711 45.0015C37.4352 45.0015 37.0734 45.1326 36.7856 45.395C36.4979 45.6532 36.3307 46.0023 36.2842 46.4424V51H35.1035V46.4995C35.1035 45.5008 34.6147 45.0015 33.6372 45.0015C32.867 45.0015 32.3402 45.3294 32.0566 45.9854V51H30.8823V44.1318H31.9932ZM46.5293 51C46.4616 50.8646 46.4066 50.6234 46.3643 50.2764C45.8184 50.8434 45.1667 51.127 44.4092 51.127C43.7321 51.127 43.1756 50.9365 42.7397 50.5557C42.3081 50.1706 42.0923 49.6839 42.0923 49.0957C42.0923 48.3805 42.3631 47.8262 42.9048 47.4326C43.4507 47.0348 44.2166 46.8359 45.2026 46.8359H46.3452V46.2964C46.3452 45.8859 46.2225 45.5601 45.9771 45.3188C45.7316 45.0734 45.3698 44.9507 44.8916 44.9507C44.4727 44.9507 44.1214 45.0565 43.8379 45.2681C43.5544 45.4797 43.4126 45.7357 43.4126 46.0361H42.2319C42.2319 45.6934 42.3525 45.3633 42.5938 45.0459C42.8392 44.7243 43.1693 44.4704 43.584 44.2842C44.0029 44.098 44.4621 44.0049 44.9614 44.0049C45.7528 44.0049 46.3727 44.2038 46.8213 44.6016C47.2699 44.9951 47.5026 45.5389 47.5195 46.2329V49.394C47.5195 50.0246 47.5999 50.526 47.7607 50.8984V51H46.5293ZM44.5806 50.105C44.9487 50.105 45.2979 50.0098 45.6279 49.8193C45.958 49.6289 46.1971 49.3813 46.3452 49.0767V47.6675H45.4248C43.986 47.6675 43.2666 48.0885 43.2666 48.9307C43.2666 49.2988 43.3893 49.5866 43.6348 49.7939C43.8802 50.0013 44.1955 50.105 44.5806 50.105ZM51.6646 46.6392L53.188 44.1318H54.5591L52.312 47.5278L54.6289 51H53.2705L51.6836 48.4292L50.0967 51H48.7319L51.0488 47.5278L48.8018 44.1318H50.1602L51.6646 46.6392ZM57.0854 51H55.9111V41.25H57.0854V51ZM60.2466 51H59.0723V44.1318H60.2466V51ZM58.9771 42.3101C58.9771 42.1196 59.0342 41.9588 59.1484 41.8276C59.2669 41.6965 59.4404 41.6309 59.6689 41.6309C59.8975 41.6309 60.071 41.6965 60.1895 41.8276C60.3079 41.9588 60.3672 42.1196 60.3672 42.3101C60.3672 42.5005 60.3079 42.6592 60.1895 42.7861C60.071 42.9131 59.8975 42.9766 59.6689 42.9766C59.4404 42.9766 59.2669 42.9131 59.1484 42.7861C59.0342 42.6592 58.9771 42.5005 58.9771 42.3101ZM63.2427 44.1318L63.2808 44.9951C63.8055 44.335 64.491 44.0049 65.3374 44.0049C66.7889 44.0049 67.521 44.8237 67.5337 46.4614V51H66.3594V46.4551C66.3551 45.96 66.2409 45.5939 66.0166 45.3569C65.7965 45.12 65.4517 45.0015 64.9819 45.0015C64.6011 45.0015 64.2668 45.103 63.979 45.3062C63.6912 45.5093 63.467 45.7759 63.3062 46.106V51H62.1318V44.1318H63.2427ZM72.1548 51.127C71.2238 51.127 70.4663 50.8223 69.8823 50.2129C69.2983 49.5993 69.0063 48.7804 69.0063 47.7563V47.5405C69.0063 46.8592 69.1354 46.252 69.3936 45.7188C69.6559 45.1813 70.0199 44.7624 70.4854 44.4619C70.9551 44.1572 71.4629 44.0049 72.0088 44.0049C72.9017 44.0049 73.5957 44.299 74.0908 44.8872C74.5859 45.4754 74.8335 46.3175 74.8335 47.4136V47.9023H70.1807C70.1976 48.5794 70.3944 49.1274 70.771 49.5464C71.1519 49.9611 71.6343 50.1685 72.2183 50.1685C72.633 50.1685 72.9842 50.0838 73.272 49.9146C73.5597 49.7453 73.8115 49.521 74.0273 49.2417L74.7446 49.8003C74.1691 50.6847 73.3058 51.127 72.1548 51.127ZM72.0088 44.9697C71.5348 44.9697 71.137 45.1432 70.8154 45.4902C70.4938 45.833 70.2949 46.3154 70.2188 46.9375H73.6592V46.8486C73.6253 46.252 73.4645 45.7907 73.1768 45.4648C72.889 45.1348 72.4997 44.9697 72.0088 44.9697ZM83.6631 51C83.5954 50.8646 83.5404 50.6234 83.498 50.2764C82.9521 50.8434 82.3005 51.127 81.543 51.127C80.8659 51.127 80.3094 50.9365 79.8735 50.5557C79.4419 50.1706 79.2261 49.6839 79.2261 49.0957C79.2261 48.3805 79.4969 47.8262 80.0386 47.4326C80.5845 47.0348 81.3504 46.8359 82.3364 46.8359H83.479V46.2964C83.479 45.8859 83.3563 45.5601 83.1108 45.3188C82.8654 45.0734 82.5036 44.9507 82.0254 44.9507C81.6064 44.9507 81.2552 45.0565 80.9717 45.2681C80.6882 45.4797 80.5464 45.7357 80.5464 46.0361H79.3657C79.3657 45.6934 79.4863 45.3633 79.7275 45.0459C79.973 44.7243 80.3031 44.4704 80.7178 44.2842C81.1367 44.098 81.5959 44.0049 82.0952 44.0049C82.8866 44.0049 83.5065 44.2038 83.9551 44.6016C84.4036 44.9951 84.6364 45.5389 84.6533 46.2329V49.394C84.6533 50.0246 84.7337 50.526 84.8945 50.8984V51H83.6631ZM81.7144 50.105C82.0825 50.105 82.4316 50.0098 82.7617 49.8193C83.0918 49.6289 83.3309 49.3813 83.479 49.0767V47.6675H82.5586C81.1198 47.6675 80.4004 48.0885 80.4004 48.9307C80.4004 49.2988 80.5231 49.5866 80.7686 49.7939C81.014 50.0013 81.3293 50.105 81.7144 50.105ZM87.0718 51V45.0396H85.9863V44.1318H87.0718V43.4272C87.0718 42.6909 87.2686 42.1217 87.6621 41.7197C88.0557 41.3177 88.6121 41.1167 89.3315 41.1167C89.6024 41.1167 89.8711 41.1527 90.1377 41.2246L90.0742 42.1768C89.8753 42.1387 89.6637 42.1196 89.4395 42.1196C89.0586 42.1196 88.7645 42.2318 88.5571 42.4561C88.3498 42.6761 88.2461 42.9935 88.2461 43.4082V44.1318H90.7852V43.5479C90.7852 42.7819 91.0031 42.1852 91.439 41.7578C91.8791 41.3304 92.499 41.1167 93.2988 41.1167C93.7728 41.1167 94.3716 41.2458 95.0952 41.5039L94.8984 42.4941C94.3695 42.2826 93.8638 42.1768 93.3813 42.1768C92.8778 42.1768 92.5138 42.2889 92.2896 42.5132C92.0695 42.7375 91.9595 43.0781 91.9595 43.5352V44.1318H93.3687V45.0396H91.9595V51H90.7852V45.0396H88.2461V51H87.0718ZM95.6729 51H94.4985V44.1318H95.6729V51ZM98.8657 51H97.6914V41.25H98.8657V51ZM102.027 51H100.853V44.1318H102.027V51ZM100.757 42.3101C100.757 42.1196 100.814 41.9588 100.929 41.8276C101.047 41.6965 101.221 41.6309 101.449 41.6309C101.678 41.6309 101.851 41.6965 101.97 41.8276C102.088 41.9588 102.147 42.1196 102.147 42.3101C102.147 42.5005 102.088 42.6592 101.97 42.7861C101.851 42.9131 101.678 42.9766 101.449 42.9766C101.221 42.9766 101.047 42.9131 100.929 42.7861C100.814 42.6592 100.757 42.5005 100.757 42.3101ZM108.152 51C108.085 50.8646 108.03 50.6234 107.987 50.2764C107.441 50.8434 106.79 51.127 106.032 51.127C105.355 51.127 104.799 50.9365 104.363 50.5557C103.931 50.1706 103.715 49.6839 103.715 49.0957C103.715 48.3805 103.986 47.8262 104.528 47.4326C105.074 47.0348 105.84 46.8359 106.826 46.8359H107.968V46.2964C107.968 45.8859 107.846 45.5601 107.6 45.3188C107.355 45.0734 106.993 44.9507 106.515 44.9507C106.096 44.9507 105.744 45.0565 105.461 45.2681C105.177 45.4797 105.036 45.7357 105.036 46.0361H103.855C103.855 45.6934 103.976 45.3633 104.217 45.0459C104.462 44.7243 104.792 44.4704 105.207 44.2842C105.626 44.098 106.085 44.0049 106.584 44.0049C107.376 44.0049 107.996 44.2038 108.444 44.6016C108.893 44.9951 109.126 45.5389 109.143 46.2329V49.394C109.143 50.0246 109.223 50.526 109.384 50.8984V51H108.152ZM106.204 50.105C106.572 50.105 106.921 50.0098 107.251 49.8193C107.581 49.6289 107.82 49.3813 107.968 49.0767V47.6675H107.048C105.609 47.6675 104.89 48.0885 104.89 48.9307C104.89 49.2988 105.012 49.5866 105.258 49.7939C105.503 50.0013 105.819 50.105 106.204 50.105ZM112.577 42.4688V44.1318H113.859V45.0396H112.577V49.2988C112.577 49.5739 112.634 49.7812 112.748 49.9209C112.862 50.0563 113.057 50.124 113.332 50.124C113.467 50.124 113.654 50.0986 113.891 50.0479V51C113.582 51.0846 113.281 51.127 112.989 51.127C112.465 51.127 112.069 50.9683 111.802 50.6509C111.536 50.3335 111.402 49.8828 111.402 49.2988V45.0396H110.152V44.1318H111.402V42.4688H112.577ZM118.086 51.127C117.155 51.127 116.398 50.8223 115.814 50.2129C115.23 49.5993 114.938 48.7804 114.938 47.7563V47.5405C114.938 46.8592 115.067 46.252 115.325 45.7188C115.588 45.1813 115.951 44.7624 116.417 44.4619C116.887 44.1572 117.395 44.0049 117.94 44.0049C118.833 44.0049 119.527 44.299 120.022 44.8872C120.518 45.4754 120.765 46.3175 120.765 47.4136V47.9023H116.112C116.129 48.5794 116.326 49.1274 116.703 49.5464C117.083 49.9611 117.566 50.1685 118.15 50.1685C118.565 50.1685 118.916 50.0838 119.204 49.9146C119.491 49.7453 119.743 49.521 119.959 49.2417L120.676 49.8003C120.101 50.6847 119.237 51.127 118.086 51.127ZM117.94 44.9697C117.466 44.9697 117.069 45.1432 116.747 45.4902C116.425 45.833 116.227 46.3154 116.15 46.9375H119.591V46.8486C119.557 46.252 119.396 45.7907 119.108 45.4648C118.821 45.1348 118.431 44.9697 117.94 44.9697ZM126.129 49.1782C126.129 48.8608 126.008 48.6154 125.767 48.4419C125.53 48.2642 125.113 48.1118 124.517 47.9849C123.924 47.8579 123.452 47.7056 123.101 47.5278C122.754 47.3501 122.496 47.1385 122.327 46.8931C122.162 46.6476 122.079 46.3556 122.079 46.0171C122.079 45.4543 122.316 44.9782 122.79 44.5889C123.268 44.1995 123.878 44.0049 124.618 44.0049C125.397 44.0049 126.027 44.2059 126.51 44.6079C126.996 45.0099 127.24 45.5241 127.24 46.1504H126.059C126.059 45.8288 125.922 45.5516 125.646 45.3188C125.376 45.0861 125.033 44.9697 124.618 44.9697C124.191 44.9697 123.856 45.0628 123.615 45.249C123.374 45.4352 123.253 45.6785 123.253 45.979C123.253 46.2625 123.366 46.4762 123.59 46.6201C123.814 46.764 124.218 46.9015 124.802 47.0327C125.39 47.1639 125.867 47.3205 126.23 47.5024C126.594 47.6844 126.863 47.9045 127.037 48.1626C127.214 48.4165 127.303 48.7275 127.303 49.0957C127.303 49.7093 127.058 50.2023 126.567 50.5747C126.076 50.9429 125.439 51.127 124.656 51.127C124.106 51.127 123.619 51.0296 123.196 50.835C122.773 50.6403 122.441 50.3695 122.2 50.0225C121.963 49.6712 121.844 49.2925 121.844 48.8862H123.019C123.04 49.2798 123.196 49.5929 123.488 49.8257C123.785 50.0542 124.174 50.1685 124.656 50.1685C125.101 50.1685 125.456 50.0796 125.723 49.9019C125.993 49.7199 126.129 49.4787 126.129 49.1782ZM128.795 50.3843C128.795 50.1812 128.854 50.0119 128.973 49.8765C129.095 49.741 129.277 49.6733 129.519 49.6733C129.76 49.6733 129.942 49.741 130.064 49.8765C130.191 50.0119 130.255 50.1812 130.255 50.3843C130.255 50.5789 130.191 50.7419 130.064 50.873C129.942 51.0042 129.76 51.0698 129.519 51.0698C129.277 51.0698 129.095 51.0042 128.973 50.873C128.854 50.7419 128.795 50.5789 128.795 50.3843ZM128.801 44.7793C128.801 44.5762 128.861 44.4069 128.979 44.2715C129.102 44.1361 129.284 44.0684 129.525 44.0684C129.766 44.0684 129.948 44.1361 130.071 44.2715C130.198 44.4069 130.261 44.5762 130.261 44.7793C130.261 44.974 130.198 45.1369 130.071 45.2681C129.948 45.3993 129.766 45.4648 129.525 45.4648C129.284 45.4648 129.102 45.3993 128.979 45.2681C128.861 45.1369 128.801 44.974 128.801 44.7793Z" fill="white"/>
<path d="M13.6274 12H12.4468V4.17334L10.0791 5.04297V3.97656L13.4434 2.71338H13.6274V12ZM23.1235 12H17.0679V11.1558L20.2671 7.60107C20.741 7.06364 21.0669 6.62777 21.2446 6.29346C21.4266 5.95492 21.5176 5.60579 21.5176 5.24609C21.5176 4.76367 21.3716 4.368 21.0796 4.05908C20.7876 3.75016 20.3983 3.5957 19.9116 3.5957C19.3276 3.5957 18.8727 3.76286 18.5469 4.09717C18.2253 4.42725 18.0645 4.88851 18.0645 5.48096H16.8901C16.8901 4.63037 17.1631 3.94271 17.709 3.41797C18.2591 2.89323 18.9933 2.63086 19.9116 2.63086C20.7707 2.63086 21.4499 2.85726 21.9492 3.31006C22.4486 3.75863 22.6982 4.35742 22.6982 5.10645C22.6982 6.01628 22.1185 7.09961 20.959 8.35645L18.4834 11.0415H23.1235V12ZM24.4502 11.3843C24.4502 11.1812 24.5094 11.0119 24.6279 10.8765C24.7507 10.741 24.9326 10.6733 25.1738 10.6733C25.415 10.6733 25.597 10.741 25.7197 10.8765C25.8467 11.0119 25.9102 11.1812 25.9102 11.3843C25.9102 11.5789 25.8467 11.7419 25.7197 11.873C25.597 12.0042 25.415 12.0698 25.1738 12.0698C24.9326 12.0698 24.7507 12.0042 24.6279 11.873C24.5094 11.7419 24.4502 11.5789 24.4502 11.3843ZM24.4565 5.7793C24.4565 5.57617 24.5158 5.4069 24.6343 5.27148C24.757 5.13607 24.939 5.06836 25.1802 5.06836C25.4214 5.06836 25.6034 5.13607 25.7261 5.27148C25.853 5.4069 25.9165 5.57617 25.9165 5.7793C25.9165 5.97396 25.853 6.13688 25.7261 6.26807C25.6034 6.39925 25.4214 6.46484 25.1802 6.46484C24.939 6.46484 24.757 6.39925 24.6343 6.26807C24.5158 6.13688 24.4565 5.97396 24.4565 5.7793ZM32.4736 8.896H33.7559V9.85449H32.4736V12H31.293V9.85449H27.0845V9.1626L31.2231 2.75781H32.4736V8.896ZM28.4175 8.896H31.293V4.36377L31.1533 4.61768L28.4175 8.896ZM40.6113 8.05811C40.6113 9.43343 40.3765 10.4554 39.9067 11.124C39.437 11.7926 38.7028 12.127 37.7041 12.127C36.7181 12.127 35.9881 11.8011 35.5142 11.1494C35.0402 10.4935 34.7948 9.51595 34.7778 8.2168V6.64893C34.7778 5.29053 35.0127 4.28125 35.4824 3.62109C35.9521 2.96094 36.6885 2.63086 37.6914 2.63086C38.6859 2.63086 39.418 2.95036 39.8877 3.58936C40.3574 4.22412 40.5986 5.20589 40.6113 6.53467V8.05811ZM39.437 6.45215C39.437 5.45768 39.2974 4.73405 39.0181 4.28125C38.7388 3.82422 38.2965 3.5957 37.6914 3.5957C37.0905 3.5957 36.6525 3.8221 36.3774 4.2749C36.1024 4.7277 35.9606 5.42383 35.9521 6.36328V8.24219C35.9521 9.24089 36.096 9.97933 36.3838 10.4575C36.6758 10.9315 37.1159 11.1685 37.7041 11.1685C38.2839 11.1685 38.7134 10.9442 38.9927 10.4956C39.2762 10.047 39.4243 9.34033 39.437 8.37549V6.45215Z" fill="white"/>
<defs>
<filter id="filter0_d" x="0" y="12" width="260" height="92" filterUnits="userSpaceOnUse" color-interpolation-filters="sRGB">
<feFlood flood-opacity="0" result="BackgroundImageFix"/>
<feColorMatrix in="SourceAlpha" type="matrix" values="0 0 0 0 0 0 0 0 0 0 0 0 0 0 0 0 0 0 127 0"/>
<feOffset/>
<feGaussianBlur stdDeviation="4.5"/>
<feColorMatrix type="matrix" values="0 0 0 0 0.370833 0 0 0 0 1 0 0 0 0 0.531292 0 0 0 1 0"/>
<feBlend mode="normal" in2="BackgroundImageFix" result="effect1_dropShadow"/>
<feBlend mode="normal" in="SourceGraphic" in2="effect1_dropShadow" result="shape"/>
</filter>
<filter id="filter1_d" x="22" y="86" width="36" height="29" filterUnits="userSpaceOnUse" color-interpolation-filters="sRGB">
<feFlood flood-opacity="0" result="BackgroundImageFix"/>
<feColorMatrix in="SourceAlpha" type="matrix" values="0 0 0 0 0 0 0 0 0 0 0 0 0 0 0 0 0 0 127 0"/>
<feOffset/>
<feGaussianBlur stdDeviation="4.5"/>
<feColorMatrix type="matrix" values="0 0 0 0 0.370833 0 0 0 0 1 0 0 0 0 0.531292 0 0 0 1 0"/>
<feBlend mode="normal" in2="BackgroundImageFix" result="effect1_dropShadow"/>
<feBlend mode="normal" in="SourceGraphic" in2="effect1_dropShadow" result="shape"/>
</filter>
</defs>
</svg>
