<svg width="225" height="197" viewBox="0 0 225 197" fill="none" xmlns="http://www.w3.org/2000/svg">
<g opacity="0.7">
<g filter="url(#filter0_d)">
<rect x="16.2521" y="119.781" width="199.496" height="59.2645" rx="6.26033" stroke="#33FF67" stroke-width="2.50413"/>
</g>
<rect x="15" y="118.529" width="202" height="61.7686" rx="7.5124" fill="#006C1C" fill-opacity="0.28"/>
<g filter="url(#filter1_d)">
<path d="M33 180.298H48.0248L33 189.479V180.298Z" fill="#33FF67"/>
</g>
<path d="M39.2392 155.404H42.9563V157.576H39.2392V161.812H36.9307V157.576H33.1941V155.404H36.9307V151.443H39.2392V155.404ZM51.5056 157.283C50.71 158.124 49.7807 158.544 48.7178 158.544C47.4657 158.544 46.4679 158.108 45.7245 157.234C44.9811 156.353 44.6094 155.199 44.6094 153.771C44.6094 152.832 44.7985 151.981 45.1768 151.218C45.555 150.455 46.093 149.861 46.7907 149.438C47.4885 149.014 48.2971 148.802 49.2166 148.802C50.6513 148.802 51.7892 149.337 52.6305 150.406C53.4717 151.475 53.8923 152.907 53.8923 154.7V155.365C53.8923 157.935 53.3119 159.894 52.1512 161.244C50.9904 162.594 49.259 163.279 46.957 163.298H46.6734V161.332H47.0157C48.4178 161.313 49.4938 160.977 50.2437 160.325C50.9936 159.666 51.4143 158.652 51.5056 157.283ZM49.2166 156.686C49.6927 156.686 50.1394 156.549 50.5567 156.275C50.9741 156.001 51.2969 155.623 51.5251 155.14V154.211C51.5251 153.161 51.3099 152.317 50.8795 151.678C50.4491 151.039 49.8916 150.719 49.2068 150.719C48.5221 150.719 47.9743 151.003 47.5635 151.57C47.1592 152.131 46.957 152.842 46.957 153.702C46.957 154.596 47.1625 155.316 47.5733 155.864C47.9841 156.412 48.5319 156.686 49.2166 156.686ZM65.4348 157.243C65.4348 159.291 65.05 160.837 64.2805 161.88C63.5176 162.917 62.3535 163.435 60.7885 163.435C59.2495 163.435 58.0887 162.93 57.3061 161.919C56.5301 160.902 56.1323 159.399 56.1128 157.41V154.945C56.1128 152.897 56.4943 151.361 57.2572 150.338C58.0267 149.314 59.1973 148.802 60.7689 148.802C62.3275 148.802 63.4882 149.301 64.2512 150.298C65.0207 151.296 65.4152 152.789 65.4348 154.778V157.243ZM63.0578 154.583C63.0578 153.246 62.8752 152.268 62.51 151.648C62.1449 151.022 61.5645 150.709 60.7689 150.709C59.9929 150.709 59.4223 151.006 59.0571 151.599C58.6919 152.186 58.4995 153.106 58.48 154.358V157.586C58.48 158.916 58.6658 159.907 59.0375 160.559C59.4092 161.212 59.9929 161.538 60.7885 161.538C61.5514 161.538 62.1155 161.238 62.4807 160.638C62.8459 160.031 63.0383 159.086 63.0578 157.801V154.583ZM69.1714 160.736C69.6149 160.736 69.9572 160.863 70.1985 161.117C70.4398 161.365 70.5604 161.678 70.5604 162.056C70.5604 162.428 70.4398 162.738 70.1985 162.985C69.9572 163.227 69.6149 163.347 69.1714 163.347C68.7476 163.347 68.4117 163.227 68.1639 162.985C67.9161 162.744 67.7922 162.434 67.7922 162.056C67.7922 161.678 67.9128 161.365 68.1541 161.117C68.3954 160.863 68.7345 160.736 69.1714 160.736ZM82.4159 157.243C82.4159 159.291 82.0312 160.837 81.2617 161.88C80.4987 162.917 79.3347 163.435 77.7696 163.435C76.2306 163.435 75.0698 162.93 74.2873 161.919C73.5113 160.902 73.1135 159.399 73.0939 157.41V154.945C73.0939 152.897 73.4754 151.361 74.2384 150.338C75.0079 149.314 76.1784 148.802 77.75 148.802C79.3086 148.802 80.4694 149.301 81.2323 150.298C82.0018 151.296 82.3964 152.789 82.4159 154.778V157.243ZM80.039 154.583C80.039 153.246 79.8564 152.268 79.4912 151.648C79.126 151.022 78.5456 150.709 77.75 150.709C76.974 150.709 76.4034 151.006 76.0382 151.599C75.673 152.186 75.4807 153.106 75.4611 154.358V157.586C75.4611 158.916 75.647 159.907 76.0187 160.559C76.3904 161.212 76.974 161.538 77.7696 161.538C78.5326 161.538 79.0967 161.238 79.4618 160.638C79.827 160.031 80.0194 159.086 80.039 157.801V154.583ZM94.0954 163.24H84.519V161.606L89.2632 156.432C89.9479 155.669 90.4337 155.033 90.7207 154.524C91.0141 154.009 91.1608 153.494 91.1608 152.979C91.1608 152.3 90.9685 151.753 90.5837 151.335C90.2055 150.918 89.6936 150.709 89.048 150.709C88.2785 150.709 87.6818 150.944 87.2579 151.414C86.834 151.883 86.6221 152.525 86.6221 153.341H84.2451C84.2451 152.473 84.4408 151.694 84.832 151.003C85.2298 150.305 85.7939 149.764 86.5243 149.379C87.2612 148.994 88.1089 148.802 89.0675 148.802C90.45 148.802 91.5391 149.151 92.3347 149.848C93.1368 150.54 93.5378 151.498 93.5378 152.724C93.5378 153.435 93.3357 154.182 92.9313 154.964C92.5335 155.74 91.8782 156.624 90.9652 157.615L87.4829 161.342H94.0954V163.24ZM111.693 148.997V158.515C111.693 160.028 111.207 161.228 110.235 162.115C109.27 162.995 107.982 163.435 106.371 163.435C104.741 163.435 103.447 163.002 102.488 162.134C101.53 161.261 101.05 160.051 101.05 158.505V148.997H103.515V158.525C103.515 159.477 103.756 160.204 104.239 160.706C104.722 161.208 105.432 161.459 106.371 161.459C108.276 161.459 109.228 160.455 109.228 158.447V148.997H111.693ZM121.788 159.572C121.788 158.945 121.566 158.463 121.122 158.124C120.685 157.785 119.893 157.442 118.745 157.097C117.598 156.751 116.685 156.366 116.007 155.942C114.709 155.127 114.06 154.064 114.06 152.754C114.06 151.606 114.526 150.66 115.459 149.917C116.398 149.174 117.614 148.802 119.107 148.802C120.099 148.802 120.982 148.984 121.758 149.35C122.534 149.715 123.144 150.236 123.587 150.915C124.031 151.586 124.253 152.333 124.253 153.155H121.788C121.788 152.411 121.553 151.831 121.083 151.414C120.62 150.99 119.955 150.778 119.088 150.778C118.279 150.778 117.65 150.951 117.2 151.296C116.756 151.642 116.535 152.124 116.535 152.744C116.535 153.266 116.776 153.702 117.259 154.055C117.741 154.4 118.537 154.739 119.645 155.072C120.754 155.398 121.644 155.773 122.316 156.197C122.987 156.614 123.48 157.097 123.793 157.645C124.106 158.186 124.262 158.822 124.262 159.552C124.262 160.739 123.806 161.684 122.893 162.389C121.986 163.086 120.754 163.435 119.195 163.435C118.165 163.435 117.216 163.246 116.349 162.868C115.488 162.483 114.816 161.955 114.334 161.283C113.858 160.612 113.62 159.829 113.62 158.936H116.095C116.095 159.744 116.362 160.37 116.897 160.814C117.431 161.257 118.198 161.479 119.195 161.479C120.056 161.479 120.702 161.306 121.132 160.961C121.569 160.608 121.788 160.145 121.788 159.572ZM126.434 163.24V148.997H130.64C131.899 148.997 133.014 149.278 133.985 149.839C134.964 150.399 135.72 151.195 136.255 152.225C136.79 153.256 137.057 154.436 137.057 155.766V156.48C137.057 157.83 136.786 159.017 136.245 160.041C135.71 161.065 134.944 161.854 133.946 162.408C132.955 162.963 131.817 163.24 130.532 163.24H126.434ZM128.909 150.993V161.264H130.523C131.82 161.264 132.815 160.859 133.506 160.051C134.204 159.236 134.559 158.068 134.572 156.549V155.757C134.572 154.211 134.236 153.031 133.565 152.216C132.893 151.4 131.918 150.993 130.64 150.993H128.909Z" fill="white"/>
<path d="M34.1926 137.821L34.2191 138.457C34.6395 137.962 35.2064 137.715 35.9199 137.715C36.7218 137.715 37.2675 138.022 37.5572 138.637C37.7479 138.361 37.9952 138.139 38.2989 137.969C38.6063 137.8 38.9683 137.715 39.3851 137.715C40.6426 137.715 41.282 138.381 41.3032 139.712V143.554H40.323V139.771C40.323 139.361 40.2294 139.055 40.0421 138.854C39.8549 138.649 39.5406 138.547 39.099 138.547C38.7352 138.547 38.4332 138.656 38.193 138.875C37.9528 139.091 37.8133 139.382 37.7744 139.749V143.554H36.7889V139.797C36.7889 138.963 36.3809 138.547 35.5649 138.547C34.9221 138.547 34.4823 138.82 34.2456 139.368V143.554H33.2654V137.821H34.1926ZM46.3261 143.554C46.2696 143.441 46.2237 143.239 46.1884 142.95C45.7327 143.423 45.1887 143.66 44.5564 143.66C43.9913 143.66 43.5268 143.501 43.1629 143.183C42.8026 142.861 42.6225 142.455 42.6225 141.964C42.6225 141.367 42.8486 140.904 43.3007 140.576C43.7564 140.244 44.3957 140.078 45.2187 140.078H46.1725V139.628C46.1725 139.285 46.07 139.013 45.8651 138.812C45.6603 138.607 45.3583 138.504 44.9591 138.504C44.6094 138.504 44.3162 138.593 44.0796 138.769C43.8429 138.946 43.7246 139.16 43.7246 139.41H42.7391C42.7391 139.124 42.8397 138.849 43.0411 138.584C43.2459 138.315 43.5215 138.103 43.8676 137.948C44.2173 137.793 44.6006 137.715 45.0174 137.715C45.6779 137.715 46.1954 137.881 46.5698 138.213C46.9443 138.541 47.1385 138.995 47.1527 139.575V142.213C47.1527 142.74 47.2198 143.158 47.354 143.469V143.554H46.3261ZM44.6995 142.807C45.0068 142.807 45.2982 142.727 45.5737 142.568C45.8493 142.409 46.0488 142.203 46.1725 141.948V140.772H45.4042C44.2032 140.772 43.6027 141.123 43.6027 141.826C43.6027 142.134 43.7051 142.374 43.91 142.547C44.1149 142.72 44.378 142.807 44.6995 142.807ZM50.6126 139.914L51.8842 137.821H53.0287L51.153 140.655L53.0869 143.554H51.9531L50.6285 141.408L49.3038 143.554H48.1647L50.0986 140.655L48.223 137.821H49.3568L50.6126 139.914ZM55.1374 143.554H54.1572V135.415H55.1374V143.554ZM57.7761 143.554H56.7959V137.821H57.7761V143.554ZM56.7164 136.3C56.7164 136.141 56.7641 136.007 56.8594 135.897C56.9583 135.788 57.1032 135.733 57.2939 135.733C57.4847 135.733 57.6295 135.788 57.7284 135.897C57.8273 136.007 57.8767 136.141 57.8767 136.3C57.8767 136.459 57.8273 136.592 57.7284 136.698C57.6295 136.803 57.4847 136.856 57.2939 136.856C57.1032 136.856 56.9583 136.803 56.8594 136.698C56.7641 136.592 56.7164 136.459 56.7164 136.3ZM60.2769 137.821L60.3087 138.541C60.7467 137.99 61.319 137.715 62.0254 137.715C63.237 137.715 63.8481 138.398 63.8587 139.765V143.554H62.8785V139.76C62.875 139.347 62.7796 139.041 62.5924 138.843C62.4087 138.646 62.1208 138.547 61.7287 138.547C61.4108 138.547 61.1318 138.631 60.8916 138.801C60.6514 138.971 60.4642 139.193 60.3299 139.469V143.554H59.3497V137.821H60.2769ZM67.716 143.66C66.9389 143.66 66.3066 143.405 65.8191 142.897C65.3317 142.385 65.0879 141.701 65.0879 140.846V140.666C65.0879 140.097 65.1957 139.59 65.4112 139.145C65.6302 138.697 65.9339 138.347 66.3225 138.096C66.7146 137.842 67.1385 137.715 67.5941 137.715C68.3394 137.715 68.9187 137.96 69.332 138.451C69.7453 138.942 69.9519 139.645 69.9519 140.56V140.968H66.0682C66.0823 141.533 66.2465 141.991 66.5609 142.34C66.8788 142.687 67.2815 142.86 67.769 142.86C68.1151 142.86 68.4083 142.789 68.6485 142.648C68.8887 142.506 69.0989 142.319 69.279 142.086L69.8778 142.552C69.3974 143.291 68.6768 143.66 67.716 143.66ZM67.5941 138.52C67.1985 138.52 66.8665 138.665 66.598 138.955C66.3296 139.241 66.1635 139.643 66.1 140.163H68.9717V140.089C68.9435 139.59 68.8092 139.205 68.569 138.933C68.3288 138.658 68.0039 138.52 67.5941 138.52ZM77.3221 143.554C77.2656 143.441 77.2196 143.239 77.1843 142.95C76.7287 143.423 76.1847 143.66 75.5524 143.66C74.9872 143.66 74.5227 143.501 74.1589 143.183C73.7986 142.861 73.6185 142.455 73.6185 141.964C73.6185 141.367 73.8445 140.904 74.2967 140.576C74.7523 140.244 75.3917 140.078 76.2147 140.078H77.1684V139.628C77.1684 139.285 77.066 139.013 76.8611 138.812C76.6562 138.607 76.3542 138.504 75.9551 138.504C75.6054 138.504 75.3122 138.593 75.0755 138.769C74.8389 138.946 74.7205 139.16 74.7205 139.41H73.735C73.735 139.124 73.8357 138.849 74.037 138.584C74.2419 138.315 74.5174 138.103 74.8636 137.948C75.2133 137.793 75.5966 137.715 76.0134 137.715C76.6739 137.715 77.1914 137.881 77.5658 138.213C77.9402 138.541 78.1345 138.995 78.1486 139.575V142.213C78.1486 142.74 78.2158 143.158 78.35 143.469V143.554H77.3221ZM75.6955 142.807C76.0028 142.807 76.2942 142.727 76.5697 142.568C76.8452 142.409 77.0448 142.203 77.1684 141.948V140.772H76.4002C75.1992 140.772 74.5987 141.123 74.5987 141.826C74.5987 142.134 74.7011 142.374 74.906 142.547C75.1109 142.72 75.374 142.807 75.6955 142.807ZM80.1674 143.554V138.578H79.2613V137.821H80.1674V137.233C80.1674 136.618 80.3316 136.143 80.6601 135.807C80.9886 135.472 81.4531 135.304 82.0536 135.304C82.2797 135.304 82.504 135.334 82.7265 135.394L82.6735 136.189C82.5075 136.157 82.3309 136.141 82.1437 136.141C81.8258 136.141 81.5803 136.235 81.4072 136.422C81.2341 136.606 81.1476 136.871 81.1476 137.217V137.821H83.267V137.333C83.267 136.694 83.4489 136.196 83.8127 135.839C84.1801 135.482 84.6975 135.304 85.3651 135.304C85.7608 135.304 86.2606 135.412 86.8646 135.627L86.7004 136.454C86.2588 136.277 85.8367 136.189 85.434 136.189C85.0137 136.189 84.7099 136.282 84.5227 136.47C84.339 136.657 84.2472 136.941 84.2472 137.323V137.821H85.4234V138.578H84.2472V143.554H83.267V138.578H81.1476V143.554H80.1674ZM87.3468 143.554H86.3666V137.821H87.3468V143.554ZM90.0119 143.554H89.0317V135.415H90.0119V143.554ZM92.6505 143.554H91.6703V137.821H92.6505V143.554ZM91.5908 136.3C91.5908 136.141 91.6385 136.007 91.7339 135.897C91.8328 135.788 91.9776 135.733 92.1684 135.733C92.3591 135.733 92.5039 135.788 92.6028 135.897C92.7017 136.007 92.7512 136.141 92.7512 136.3C92.7512 136.459 92.7017 136.592 92.6028 136.698C92.5039 136.803 92.3591 136.856 92.1684 136.856C91.9776 136.856 91.8328 136.803 91.7339 136.698C91.6385 136.592 91.5908 136.459 91.5908 136.3ZM97.7635 143.554C97.707 143.441 97.6611 143.239 97.6258 142.95C97.1701 143.423 96.6261 143.66 95.9938 143.66C95.4287 143.66 94.9642 143.501 94.6004 143.183C94.2401 142.861 94.0599 142.455 94.0599 141.964C94.0599 141.367 94.286 140.904 94.7381 140.576C95.1938 140.244 95.8331 140.078 96.6562 140.078H97.6099V139.628C97.6099 139.285 97.5074 139.013 97.3026 138.812C97.0977 138.607 96.7957 138.504 96.3965 138.504C96.0468 138.504 95.7536 138.593 95.517 138.769C95.2803 138.946 95.162 139.16 95.162 139.41H94.1765C94.1765 139.124 94.2771 138.849 94.4785 138.584C94.6834 138.315 94.9589 138.103 95.305 137.948C95.6547 137.793 96.038 137.715 96.4548 137.715C97.1154 137.715 97.6328 137.881 98.0073 138.213C98.3817 138.541 98.576 138.995 98.5901 139.575V142.213C98.5901 142.74 98.6572 143.158 98.7914 143.469V143.554H97.7635ZM96.1369 142.807C96.4442 142.807 96.7356 142.727 97.0111 142.568C97.2867 142.409 97.4862 142.203 97.6099 141.948V140.772H96.8416C95.6406 140.772 95.0401 141.123 95.0401 141.826C95.0401 142.134 95.1426 142.374 95.3474 142.547C95.5523 142.72 95.8155 142.807 96.1369 142.807ZM101.457 136.433V137.821H102.527V138.578H101.457V142.134C101.457 142.363 101.504 142.536 101.6 142.653C101.695 142.766 101.857 142.823 102.087 142.823C102.2 142.823 102.356 142.801 102.553 142.759V143.554C102.295 143.624 102.045 143.66 101.801 143.66C101.363 143.66 101.033 143.527 100.81 143.262C100.588 142.997 100.476 142.621 100.476 142.134V138.578H99.4325V137.821H100.476V136.433H101.457ZM106.056 143.66C105.279 143.66 104.646 143.405 104.159 142.897C103.671 142.385 103.428 141.701 103.428 140.846V140.666C103.428 140.097 103.535 139.59 103.751 139.145C103.97 138.697 104.274 138.347 104.662 138.096C105.054 137.842 105.478 137.715 105.934 137.715C106.679 137.715 107.258 137.96 107.672 138.451C108.085 138.942 108.292 139.645 108.292 140.56V140.968H104.408C104.422 141.533 104.586 141.991 104.901 142.34C105.218 142.687 105.621 142.86 106.109 142.86C106.455 142.86 106.748 142.789 106.988 142.648C107.228 142.506 107.439 142.319 107.619 142.086L108.217 142.552C107.737 143.291 107.016 143.66 106.056 143.66ZM105.934 138.52C105.538 138.52 105.206 138.665 104.938 138.955C104.669 139.241 104.503 139.643 104.44 140.163H107.311V140.089C107.283 139.59 107.149 139.205 106.909 138.933C106.668 138.658 106.343 138.52 105.934 138.52ZM112.769 142.033C112.769 141.768 112.668 141.563 112.467 141.418C112.269 141.27 111.921 141.143 111.423 141.037C110.928 140.931 110.535 140.804 110.241 140.655C109.952 140.507 109.736 140.33 109.595 140.126C109.457 139.921 109.388 139.677 109.388 139.394C109.388 138.925 109.586 138.527 109.982 138.202C110.381 137.877 110.89 137.715 111.508 137.715C112.158 137.715 112.684 137.883 113.087 138.218C113.493 138.554 113.696 138.983 113.696 139.506H112.71C112.71 139.237 112.596 139.006 112.366 138.812C112.14 138.617 111.854 138.52 111.508 138.52C111.151 138.52 110.872 138.598 110.671 138.753C110.469 138.909 110.369 139.112 110.369 139.363C110.369 139.599 110.462 139.778 110.649 139.898C110.837 140.018 111.174 140.133 111.661 140.242C112.152 140.352 112.55 140.482 112.854 140.634C113.157 140.786 113.382 140.97 113.526 141.185C113.675 141.397 113.749 141.657 113.749 141.964C113.749 142.476 113.544 142.888 113.134 143.199C112.725 143.506 112.193 143.66 111.54 143.66C111.08 143.66 110.674 143.578 110.321 143.416C109.968 143.253 109.69 143.027 109.489 142.738C109.291 142.445 109.192 142.128 109.192 141.789H110.173C110.19 142.118 110.321 142.379 110.565 142.573C110.812 142.764 111.137 142.86 111.54 142.86C111.91 142.86 112.207 142.785 112.43 142.637C112.656 142.485 112.769 142.284 112.769 142.033ZM114.994 143.04C114.994 142.87 115.044 142.729 115.142 142.616C115.245 142.503 115.397 142.446 115.598 142.446C115.799 142.446 115.951 142.503 116.054 142.616C116.16 142.729 116.213 142.87 116.213 143.04C116.213 143.202 116.16 143.338 116.054 143.448C115.951 143.557 115.799 143.612 115.598 143.612C115.397 143.612 115.245 143.557 115.142 143.448C115.044 143.338 114.994 143.202 114.994 143.04ZM114.999 138.361C114.999 138.192 115.049 138.05 115.148 137.937C115.25 137.824 115.402 137.768 115.603 137.768C115.805 137.768 115.957 137.824 116.059 137.937C116.165 138.05 116.218 138.192 116.218 138.361C116.218 138.524 116.165 138.66 116.059 138.769C115.957 138.879 115.805 138.933 115.603 138.933C115.402 138.933 115.25 138.879 115.148 138.769C115.049 138.66 114.999 138.524 114.999 138.361Z" fill="white"/>
<path d="M18.8626 111H17.8771V104.467L15.9007 105.193V104.303L18.7089 103.248H18.8626V111ZM26.7891 111H21.7343V110.295L24.4048 107.328C24.8004 106.88 25.0724 106.516 25.2207 106.237C25.3726 105.954 25.4486 105.663 25.4486 105.362C25.4486 104.96 25.3267 104.629 25.083 104.372C24.8392 104.114 24.5143 103.985 24.108 103.985C23.6206 103.985 23.2409 104.124 22.9689 104.403C22.7004 104.679 22.5662 105.064 22.5662 105.558H21.586C21.586 104.848 21.8138 104.274 22.2695 103.836C22.7287 103.398 23.3415 103.179 24.108 103.179C24.8251 103.179 25.392 103.368 25.8089 103.746C26.2257 104.121 26.4341 104.621 26.4341 105.246C26.4341 106.005 25.9501 106.91 24.9823 107.959L22.9159 110.2H26.7891V111ZM27.8964 110.486C27.8964 110.316 27.9459 110.175 28.0448 110.062C28.1472 109.949 28.2991 109.893 28.5005 109.893C28.7018 109.893 28.8537 109.949 28.9561 110.062C29.0621 110.175 29.1151 110.316 29.1151 110.486C29.1151 110.649 29.0621 110.785 28.9561 110.894C28.8537 111.004 28.7018 111.058 28.5005 111.058C28.2991 111.058 28.1472 111.004 28.0448 110.894C27.9459 110.785 27.8964 110.649 27.8964 110.486ZM27.9017 105.808C27.9017 105.638 27.9512 105.497 28.0501 105.384C28.1525 105.271 28.3044 105.214 28.5058 105.214C28.7071 105.214 28.859 105.271 28.9614 105.384C29.0674 105.497 29.1204 105.638 29.1204 105.808C29.1204 105.97 29.0674 106.106 28.9614 106.215C28.859 106.325 28.7071 106.38 28.5058 106.38C28.3044 106.38 28.1525 106.325 28.0501 106.215C27.9512 106.106 27.9017 105.97 27.9017 105.808ZM35.5103 111H30.4556V110.295L33.126 107.328C33.5216 106.88 33.7936 106.516 33.942 106.237C34.0939 105.954 34.1698 105.663 34.1698 105.362C34.1698 104.96 34.048 104.629 33.8042 104.372C33.5605 104.114 33.2355 103.985 32.8293 103.985C32.3418 103.985 31.9621 104.124 31.6901 104.403C31.4217 104.679 31.2875 105.064 31.2875 105.558H30.3072C30.3072 104.848 30.5351 104.274 30.9907 103.836C31.4499 103.398 32.0628 103.179 32.8293 103.179C33.5464 103.179 34.1133 103.368 34.5301 103.746C34.9469 104.121 35.1553 104.621 35.1553 105.246C35.1553 106.005 34.6714 106.91 33.7036 107.959L31.6372 110.2H35.5103V111ZM40.6869 108.409H41.7572V109.209H40.6869V111H39.7014V109.209H36.1885V108.632L39.6431 103.285H40.6869V108.409ZM37.3012 108.409H39.7014V104.626L39.5848 104.838L37.3012 108.409Z" fill="white"/>
</g>
<g opacity="0.4">
<g filter="url(#filter2_d)">
<rect x="33.8228" y="55.1725" width="161.166" height="47.8777" rx="5.0575" stroke="#33FF67" stroke-width="2.023"/>
</g>
<rect x="32.8113" y="54.161" width="163.189" height="49.9007" rx="6.069" fill="#006C1C" fill-opacity="0.28"/>
<g filter="url(#filter3_d)">
<path d="M47 104.062H59.138L47 111.479V104.062Z" fill="#33FF67"/>
</g>
<path d="M52.3933 84.4099H55.3962V86.1642H52.3933V89.5859H50.5283V86.1642H47.5096V84.4099H50.5283V81.2095H52.3933V84.4099ZM64.5945 90.7397H56.8581V89.42L60.6908 85.2397C61.2439 84.6233 61.6364 84.1096 61.8682 83.6987C62.1053 83.2825 62.2238 82.8663 62.2238 82.4501C62.2238 81.9022 62.0684 81.4597 61.7576 81.1225C61.452 80.7854 61.0385 80.6168 60.5169 80.6168C59.8953 80.6168 59.4132 80.8064 59.0708 81.1858C58.7283 81.5651 58.5571 82.084 58.5571 82.7425H56.6369C56.6369 82.0418 56.7949 81.4123 57.111 80.8539C57.4324 80.2902 57.8881 79.8529 58.4781 79.5421C59.0734 79.2312 59.7583 79.0758 60.5327 79.0758C61.6496 79.0758 62.5294 79.3577 63.1721 79.9214C63.8201 80.4798 64.1441 81.2542 64.1441 82.2447C64.1441 82.8189 63.9808 83.4221 63.6541 84.0543C63.3328 84.6812 62.8033 85.3951 62.0658 86.1958L59.2525 89.2066H64.5945V90.7397ZM73.7928 90.7397H66.0565V89.42L69.8891 85.2397C70.4423 84.6233 70.8347 84.1096 71.0665 83.6987C71.3036 83.2825 71.4221 82.8663 71.4221 82.4501C71.4221 81.9022 71.2667 81.4597 70.9559 81.1225C70.6503 80.7854 70.2368 80.6168 69.7152 80.6168C69.0936 80.6168 68.6115 80.8064 68.2691 81.1858C67.9267 81.5651 67.7555 82.084 67.7555 82.7425H65.8352C65.8352 82.0418 65.9932 81.4123 66.3093 80.8539C66.6307 80.2902 67.0864 79.8529 67.6764 79.5421C68.2717 79.2312 68.9566 79.0758 69.731 79.0758C70.8479 79.0758 71.7277 79.3577 72.3704 79.9214C73.0184 80.4798 73.3424 81.2542 73.3424 82.2447C73.3424 82.8189 73.1791 83.4221 72.8525 84.0543C72.5311 84.6812 72.0016 85.3951 71.2641 86.1958L68.4509 89.2066H73.7928V90.7397ZM82.7541 85.8955C82.7541 87.5498 82.4433 88.7983 81.8216 89.6413C81.2052 90.4789 80.2649 90.8977 79.0005 90.8977C77.7572 90.8977 76.8194 90.4894 76.1873 89.6729C75.5603 88.851 75.239 87.6367 75.2232 86.0299V84.0385C75.2232 82.3843 75.5314 81.1436 76.1477 80.3165C76.7694 79.4894 77.715 79.0758 78.9847 79.0758C80.2438 79.0758 81.1815 79.4788 81.7979 80.2849C82.4196 81.0909 82.7383 82.2973 82.7541 83.9042V85.8955ZM80.8338 83.7461C80.8338 82.6661 80.6863 81.8759 80.3913 81.3754C80.0963 80.8697 79.6274 80.6168 78.9847 80.6168C78.3578 80.6168 77.8968 80.8565 77.6018 81.3359C77.3068 81.81 77.1513 82.5529 77.1355 83.5644V86.1721C77.1355 87.2468 77.2857 88.0476 77.586 88.5744C77.8863 89.1013 78.3578 89.3647 79.0005 89.3647C79.6169 89.3647 80.0726 89.1223 80.3676 88.6377C80.6626 88.1477 80.818 87.3838 80.8338 86.346V83.7461ZM85.7728 88.7167C86.131 88.7167 86.4076 88.8194 86.6025 89.0249C86.7975 89.2251 86.8949 89.4779 86.8949 89.7835C86.8949 90.0838 86.7975 90.334 86.6025 90.5342C86.4076 90.7291 86.131 90.8266 85.7728 90.8266C85.4304 90.8266 85.1591 90.7291 84.9589 90.5342C84.7587 90.3393 84.6586 90.0891 84.6586 89.7835C84.6586 89.4779 84.756 89.2251 84.951 89.0249C85.1459 88.8194 85.4198 88.7167 85.7728 88.7167ZM94.173 90.7397H92.2606V81.5018L89.4395 82.4659V80.8459L93.928 79.1944H94.173V90.7397ZM103.616 85.9272C102.974 86.6068 102.223 86.9466 101.364 86.9466C100.353 86.9466 99.5466 86.5936 98.946 85.8876C98.3454 85.1764 98.0451 84.244 98.0451 83.0902C98.0451 82.3316 98.1979 81.6441 98.5035 81.0277C98.809 80.4113 99.2437 79.9319 99.8074 79.5895C100.371 79.247 101.024 79.0758 101.767 79.0758C102.926 79.0758 103.845 79.5078 104.525 80.3718C105.205 81.2358 105.544 82.3922 105.544 83.8409V84.3783C105.544 86.454 105.076 88.0371 104.138 89.1276C103.2 90.2181 101.801 90.7713 99.9417 90.7871H99.7125V89.1987H99.9891C101.122 89.1829 101.991 88.9116 102.597 88.3848C103.203 87.8527 103.543 87.0335 103.616 85.9272ZM101.767 85.4451C102.152 85.4451 102.513 85.3345 102.85 85.1132C103.187 84.8919 103.448 84.5864 103.632 84.1965V83.4458C103.632 82.5976 103.458 81.9154 103.111 81.3991C102.763 80.8828 102.312 80.6247 101.759 80.6247C101.206 80.6247 100.764 80.8539 100.432 81.3122C100.105 81.7653 99.9417 82.3395 99.9417 83.0349C99.9417 83.7566 100.108 84.3388 100.44 84.7813C100.771 85.2238 101.214 85.4451 101.767 85.4451ZM120.124 79.2339V86.9229C120.124 88.1451 119.732 89.1144 118.947 89.8309C118.167 90.5421 117.127 90.8977 115.825 90.8977C114.508 90.8977 113.463 90.5474 112.688 89.8467C111.914 89.1408 111.527 88.1635 111.527 86.915V79.2339H113.518V86.9308C113.518 87.6999 113.713 88.2873 114.103 88.693C114.493 89.0986 115.067 89.3015 115.825 89.3015C117.364 89.3015 118.133 88.4902 118.133 86.8675V79.2339H120.124ZM128.28 87.7763C128.28 87.2706 128.1 86.8807 127.742 86.6068C127.389 86.3328 126.749 86.0562 125.822 85.777C124.895 85.4978 124.157 85.187 123.609 84.8445C122.561 84.186 122.037 83.3273 122.037 82.2684C122.037 81.3412 122.413 80.5773 123.167 79.9767C123.925 79.3761 124.908 79.0758 126.114 79.0758C126.915 79.0758 127.629 79.2233 128.256 79.5184C128.883 79.8134 129.375 80.2348 129.734 80.7827C130.092 81.3254 130.271 81.9286 130.271 82.5924H128.28C128.28 81.9918 128.09 81.5229 127.711 81.1858C127.337 80.8433 126.799 80.6721 126.098 80.6721C125.445 80.6721 124.937 80.8117 124.573 81.0909C124.215 81.3701 124.036 81.76 124.036 82.2605C124.036 82.6819 124.231 83.0349 124.621 83.3194C125.011 83.5986 125.653 83.8725 126.549 84.1412C127.444 84.4046 128.164 84.7076 128.706 85.05C129.249 85.3872 129.647 85.777 129.899 86.2195C130.152 86.6568 130.279 87.1705 130.279 87.7605C130.279 88.7193 129.91 89.4832 129.172 90.0522C128.44 90.6159 127.444 90.8977 126.185 90.8977C125.353 90.8977 124.586 90.745 123.886 90.4394C123.19 90.1286 122.648 89.7018 122.258 89.1592C121.873 88.6166 121.681 87.9844 121.681 87.2627H123.68C123.68 87.9159 123.896 88.4217 124.328 88.7799C124.76 89.1381 125.379 89.3173 126.185 89.3173C126.881 89.3173 127.402 89.1777 127.75 88.8984C128.103 88.614 128.28 88.2399 128.28 87.7763ZM132.033 90.7397V79.2339H135.431C136.448 79.2339 137.349 79.4604 138.134 79.9135C138.924 80.3665 139.535 81.0093 139.967 81.8416C140.399 82.674 140.615 83.6276 140.615 84.7023V85.2792C140.615 86.3697 140.396 87.3285 139.959 88.1556C139.527 88.9827 138.908 89.6202 138.102 90.068C137.301 90.5158 136.382 90.7397 135.344 90.7397H132.033ZM134.032 80.8459V89.1434H135.336C136.385 89.1434 137.188 88.8168 137.747 88.1635C138.31 87.505 138.597 86.562 138.608 85.3345V84.6944C138.608 83.4458 138.337 82.4923 137.794 81.8337C137.251 81.1752 136.464 80.8459 135.431 80.8459H134.032Z" fill="white"/>
<path d="M48.3163 69.6676L48.3377 70.1812C48.6773 69.7817 49.1353 69.582 49.7118 69.582C50.3595 69.582 50.8004 69.8302 51.0344 70.3268C51.1885 70.1042 51.3883 69.9244 51.6337 69.7874C51.882 69.6505 52.1744 69.582 52.5112 69.582C53.5271 69.582 54.0436 70.1199 54.0607 71.1957V74.299H53.2688V71.2428C53.2688 70.9118 53.1932 70.6649 53.0419 70.5023C52.8907 70.3368 52.6367 70.254 52.28 70.254C51.9861 70.254 51.7421 70.3425 51.5481 70.5194C51.354 70.6935 51.2413 70.9289 51.2099 71.2257V74.299H50.4138V71.2642C50.4138 70.5907 50.0842 70.254 49.425 70.254C48.9056 70.254 48.5503 70.4752 48.3592 70.9175V74.299H47.5673V69.6676H48.3163ZM58.1185 74.299C58.0729 74.2077 58.0358 74.045 58.0073 73.811C57.6391 74.1934 57.1997 74.3846 56.6889 74.3846C56.2323 74.3846 55.857 74.2562 55.5631 73.9994C55.2721 73.7397 55.1265 73.4115 55.1265 73.0149C55.1265 72.5326 55.3092 72.1588 55.6744 71.8934C56.0425 71.6252 56.559 71.491 57.2239 71.491H57.9944V71.1272C57.9944 70.8504 57.9117 70.6307 57.7461 70.468C57.5806 70.3025 57.3367 70.2198 57.0142 70.2198C56.7317 70.2198 56.4948 70.2911 56.3036 70.4338C56.1124 70.5765 56.0169 70.7491 56.0169 70.9517H55.2207C55.2207 70.7206 55.302 70.498 55.4647 70.284C55.6302 70.0671 55.8528 69.8959 56.1324 69.7703C56.4149 69.6448 56.7246 69.582 57.0613 69.582C57.5949 69.582 58.013 69.7161 58.3154 69.9843C58.6179 70.2497 58.7749 70.6164 58.7863 71.0844V73.2161C58.7863 73.6413 58.8405 73.9794 58.949 74.2305V74.299H58.1185ZM56.8045 73.6955C57.0527 73.6955 57.2881 73.6313 57.5107 73.5029C57.7333 73.3744 57.8945 73.2075 57.9944 73.002V72.0518H57.3738C56.4035 72.0518 55.9184 72.3357 55.9184 72.9036C55.9184 73.1519 56.0012 73.3459 56.1667 73.4857C56.3322 73.6256 56.5448 73.6955 56.8045 73.6955ZM61.5814 71.3584L62.6087 69.6676H63.5333L62.018 71.9576L63.5804 74.299H62.6644L61.5943 72.5654L60.5242 74.299H59.6039L61.1662 71.9576L59.6509 69.6676H60.567L61.5814 71.3584ZM65.2369 74.299H64.445V67.7243H65.2369V74.299ZM67.3686 74.299H66.5767V69.6676H67.3686V74.299ZM66.5125 68.4391C66.5125 68.3107 66.551 68.2022 66.6281 68.1138C66.708 68.0253 66.825 67.9811 66.979 67.9811C67.1331 67.9811 67.2501 68.0253 67.33 68.1138C67.4099 68.2022 67.4499 68.3107 67.4499 68.4391C67.4499 68.5675 67.4099 68.6745 67.33 68.7601C67.2501 68.8457 67.1331 68.8885 66.979 68.8885C66.825 68.8885 66.708 68.8457 66.6281 68.7601C66.551 68.6745 66.5125 68.5675 66.5125 68.4391ZM69.3889 69.6676L69.4146 70.2497C69.7685 69.8046 70.2308 69.582 70.8015 69.582C71.7803 69.582 72.2739 70.1341 72.2825 71.2385V74.299H71.4906V71.2342C71.4878 70.9003 71.4107 70.6535 71.2595 70.4937C71.1111 70.3339 70.8785 70.254 70.5618 70.254C70.3049 70.254 70.0795 70.3225 69.8855 70.4595C69.6914 70.5964 69.5402 70.7762 69.4317 70.9988V74.299H68.6399V69.6676H69.3889ZM75.3987 74.3846C74.7709 74.3846 74.2601 74.1792 73.8663 73.7682C73.4725 73.3545 73.2756 72.8023 73.2756 72.1117V71.9662C73.2756 71.5067 73.3626 71.0972 73.5367 70.7377C73.7136 70.3753 73.959 70.0928 74.2729 69.8902C74.5897 69.6847 74.9321 69.582 75.3002 69.582C75.9023 69.582 76.3703 69.7803 76.7042 70.177C77.0381 70.5736 77.205 71.1415 77.205 71.8806V72.2102H74.0675C74.0789 72.6667 74.2116 73.0363 74.4655 73.3188C74.7224 73.5984 75.0477 73.7383 75.4415 73.7383C75.7211 73.7383 75.958 73.6812 76.152 73.5671C76.3461 73.4529 76.5159 73.3017 76.6614 73.1133L77.1451 73.49C76.757 74.0864 76.1749 74.3846 75.3987 74.3846ZM75.3002 70.2326C74.9806 70.2326 74.7124 70.3496 74.4955 70.5836C74.2786 70.8147 74.1445 71.14 74.0931 71.5595H76.4131V71.4996C76.3903 71.0972 76.2819 70.7862 76.0878 70.5665C75.8938 70.3439 75.6312 70.2326 75.3002 70.2326ZM83.1591 74.299C83.1134 74.2077 83.0763 74.045 83.0478 73.811C82.6797 74.1934 82.2402 74.3846 81.7294 74.3846C81.2729 74.3846 80.8976 74.2562 80.6037 73.9994C80.3126 73.7397 80.1671 73.4115 80.1671 73.0149C80.1671 72.5326 80.3497 72.1588 80.715 71.8934C81.0831 71.6252 81.5996 71.491 82.2645 71.491H83.035V71.1272C83.035 70.8504 82.9522 70.6307 82.7867 70.468C82.6212 70.3025 82.3772 70.2198 82.0547 70.2198C81.7722 70.2198 81.5354 70.2911 81.3442 70.4338C81.153 70.5765 81.0574 70.7491 81.0574 70.9517H80.2612C80.2612 70.7206 80.3426 70.498 80.5052 70.284C80.6707 70.0671 80.8933 69.8959 81.173 69.7703C81.4555 69.6448 81.7651 69.582 82.1018 69.582C82.6355 69.582 83.0535 69.7161 83.356 69.9843C83.6585 70.2497 83.8154 70.6164 83.8268 71.0844V73.2161C83.8268 73.6413 83.8811 73.9794 83.9895 74.2305V74.299H83.1591ZM81.845 73.6955C82.0933 73.6955 82.3287 73.6313 82.5513 73.5029C82.7739 73.3744 82.9351 73.2075 83.035 73.002V72.0518H82.4143C81.4441 72.0518 80.959 72.3357 80.959 72.9036C80.959 73.1519 81.0417 73.3459 81.2072 73.4857C81.3727 73.6256 81.5853 73.6955 81.845 73.6955ZM85.4577 74.299V70.2797H84.7257V69.6676H85.4577V69.1925C85.4577 68.6959 85.5904 68.3121 85.8558 68.041C86.1212 67.7699 86.4964 67.6344 86.9815 67.6344C87.1642 67.6344 87.3454 67.6586 87.5251 67.7071L87.4823 68.3492C87.3482 68.3235 87.2055 68.3107 87.0543 68.3107C86.7975 68.3107 86.5991 68.3863 86.4593 68.5375C86.3195 68.6859 86.2496 68.9 86.2496 69.1796V69.6676H87.9617V69.2738C87.9617 68.7573 88.1087 68.3549 88.4026 68.0667C88.6994 67.7785 89.1175 67.6344 89.6568 67.6344C89.9764 67.6344 90.3802 67.7214 90.8682 67.8955L90.7355 68.5632C90.3788 68.4205 90.0378 68.3492 89.7124 68.3492C89.3729 68.3492 89.1275 68.4248 88.9762 68.5761C88.8278 68.7273 88.7536 68.957 88.7536 69.2652V69.6676H89.7039V70.2797H88.7536V74.299H87.9617V70.2797H86.2496V74.299H85.4577ZM91.2577 74.299H90.4658V69.6676H91.2577V74.299ZM93.4107 74.299H92.6189V67.7243H93.4107V74.299ZM95.5424 74.299H94.7505V69.6676H95.5424V74.299ZM94.6863 68.4391C94.6863 68.3107 94.7248 68.2022 94.8019 68.1138C94.8818 68.0253 94.9988 67.9811 95.1529 67.9811C95.307 67.9811 95.424 68.0253 95.5039 68.1138C95.5838 68.2022 95.6237 68.3107 95.6237 68.4391C95.6237 68.5675 95.5838 68.6745 95.5039 68.7601C95.424 68.8457 95.307 68.8885 95.1529 68.8885C94.9988 68.8885 94.8818 68.8457 94.8019 68.7601C94.7248 68.6745 94.6863 68.5675 94.6863 68.4391ZM99.673 74.299C99.6274 74.2077 99.5903 74.045 99.5617 73.811C99.1936 74.1934 98.7542 74.3846 98.2434 74.3846C97.7868 74.3846 97.4115 74.2562 97.1176 73.9994C96.8265 73.7397 96.681 73.4115 96.681 73.0149C96.681 72.5326 96.8636 72.1588 97.2289 71.8934C97.597 71.6252 98.1135 71.491 98.7784 71.491H99.5489V71.1272C99.5489 70.8504 99.4661 70.6307 99.3006 70.468C99.1351 70.3025 98.8911 70.2198 98.5687 70.2198C98.2862 70.2198 98.0493 70.2911 97.8581 70.4338C97.6669 70.5765 97.5713 70.7491 97.5713 70.9517H96.7752C96.7752 70.7206 96.8565 70.498 97.0191 70.284C97.1847 70.0671 97.4072 69.8959 97.6869 69.7703C97.9694 69.6448 98.279 69.582 98.6158 69.582C99.1494 69.582 99.5674 69.7161 99.8699 69.9843C100.172 70.2497 100.329 70.6164 100.341 71.0844V73.2161C100.341 73.6413 100.395 73.9794 100.503 74.2305V74.299H99.673ZM98.3589 73.6955C98.6072 73.6955 98.8426 73.6313 99.0652 73.5029C99.2878 73.3744 99.449 73.2075 99.5489 73.002V72.0518H98.9282C97.958 72.0518 97.4729 72.3357 97.4729 72.9036C97.4729 73.1519 97.5556 73.3459 97.7211 73.4857C97.8867 73.6256 98.0992 73.6955 98.3589 73.6955ZM102.656 68.5461V69.6676H103.521V70.2797H102.656V73.1519C102.656 73.3373 102.695 73.4772 102.772 73.5713C102.849 73.6627 102.98 73.7083 103.166 73.7083C103.257 73.7083 103.383 73.6912 103.543 73.6569V74.299C103.334 74.3561 103.132 74.3846 102.935 74.3846C102.581 74.3846 102.314 74.2776 102.134 74.0636C101.954 73.8496 101.865 73.5457 101.865 73.1519V70.2797H101.021V69.6676H101.865V68.5461H102.656ZM106.372 74.3846C105.744 74.3846 105.233 74.1792 104.84 73.7682C104.446 73.3545 104.249 72.8023 104.249 72.1117V71.9662C104.249 71.5067 104.336 71.0972 104.51 70.7377C104.687 70.3753 104.932 70.0928 105.246 69.8902C105.563 69.6847 105.905 69.582 106.273 69.582C106.876 69.582 107.344 69.7803 107.677 70.177C108.011 70.5736 108.178 71.1415 108.178 71.8806V72.2102H105.041C105.052 72.6667 105.185 73.0363 105.439 73.3188C105.696 73.5984 106.021 73.7383 106.415 73.7383C106.694 73.7383 106.931 73.6812 107.125 73.5671C107.319 73.4529 107.489 73.3017 107.635 73.1133L108.118 73.49C107.73 74.0864 107.148 74.3846 106.372 74.3846ZM106.273 70.2326C105.954 70.2326 105.686 70.3496 105.469 70.5836C105.252 70.8147 105.118 71.14 105.066 71.5595H107.386V71.4996C107.364 71.0972 107.255 70.7862 107.061 70.5665C106.867 70.3439 106.604 70.2326 106.273 70.2326ZM111.795 73.0705C111.795 72.8565 111.714 72.691 111.551 72.574C111.391 72.4541 111.11 72.3514 110.708 72.2658C110.308 72.1802 109.99 72.0775 109.753 71.9576C109.519 71.8378 109.345 71.6951 109.231 71.5296C109.12 71.3641 109.064 71.1672 109.064 70.9389C109.064 70.5593 109.224 70.2383 109.544 69.9758C109.866 69.7132 110.277 69.582 110.776 69.582C111.302 69.582 111.727 69.7175 112.052 69.9886C112.38 70.2597 112.544 70.6064 112.544 71.0288H111.748C111.748 70.8119 111.655 70.625 111.47 70.468C111.287 70.3111 111.056 70.2326 110.776 70.2326C110.488 70.2326 110.263 70.2954 110.1 70.4209C109.938 70.5465 109.856 70.7106 109.856 70.9132C109.856 71.1044 109.932 71.2485 110.083 71.3455C110.234 71.4425 110.507 71.5353 110.901 71.6237C111.297 71.7122 111.618 71.8178 111.864 71.9405C112.109 72.0632 112.29 72.2116 112.407 72.3857C112.527 72.5569 112.587 72.7666 112.587 73.0149C112.587 73.4287 112.422 73.7611 112.091 74.0122C111.76 74.2605 111.33 74.3846 110.802 74.3846C110.431 74.3846 110.103 74.319 109.818 74.1877C109.532 74.0565 109.308 73.8738 109.146 73.6398C108.986 73.403 108.906 73.1476 108.906 72.8736H109.698C109.712 73.139 109.818 73.3502 110.015 73.5071C110.214 73.6612 110.477 73.7383 110.802 73.7383C111.102 73.7383 111.341 73.6783 111.521 73.5585C111.704 73.4358 111.795 73.2731 111.795 73.0705ZM113.593 73.8838C113.593 73.7468 113.633 73.6327 113.713 73.5414C113.796 73.4501 113.918 73.4044 114.081 73.4044C114.244 73.4044 114.366 73.4501 114.449 73.5414C114.535 73.6327 114.578 73.7468 114.578 73.8838C114.578 74.0151 114.535 74.1249 114.449 74.2134C114.366 74.3019 114.244 74.3461 114.081 74.3461C113.918 74.3461 113.796 74.3019 113.713 74.2134C113.633 74.1249 113.593 74.0151 113.593 73.8838ZM113.597 70.1042C113.597 69.9672 113.637 69.8531 113.717 69.7617C113.8 69.6704 113.923 69.6248 114.085 69.6248C114.248 69.6248 114.371 69.6704 114.453 69.7617C114.539 69.8531 114.582 69.9672 114.582 70.1042C114.582 70.2355 114.539 70.3453 114.453 70.4338C114.371 70.5222 114.248 70.5665 114.085 70.5665C113.923 70.5665 113.8 70.5222 113.717 70.4338C113.637 70.3453 113.597 70.2355 113.597 70.1042Z" fill="white"/>
<path d="M35.9317 48H35.1356V42.7222L33.539 43.3086V42.5895L35.8076 41.7377H35.9317V48ZM40.8542 48H40.0581V42.7222L38.4615 43.3086V42.5895L40.7301 41.7377H40.8542V48ZM43.2299 47.5848C43.2299 47.4478 43.2698 47.3337 43.3497 47.2424C43.4325 47.151 43.5552 47.1054 43.7178 47.1054C43.8805 47.1054 44.0032 47.151 44.0859 47.2424C44.1716 47.3337 44.2144 47.4478 44.2144 47.5848C44.2144 47.7161 44.1716 47.8259 44.0859 47.9144C44.0032 48.0029 43.8805 48.0471 43.7178 48.0471C43.5552 48.0471 43.4325 48.0029 43.3497 47.9144C43.2698 47.8259 43.2299 47.7161 43.2299 47.5848ZM43.2341 43.8052C43.2341 43.6682 43.2741 43.5541 43.354 43.4627C43.4367 43.3714 43.5595 43.3258 43.7221 43.3258C43.8848 43.3258 44.0075 43.3714 44.0902 43.4627C44.1758 43.5541 44.2186 43.6682 44.2186 43.8052C44.2186 43.9364 44.1758 44.0463 44.0902 44.1348C44.0075 44.2232 43.8848 44.2675 43.7221 44.2675C43.5595 44.2675 43.4367 44.2232 43.354 44.1348C43.2741 44.0463 43.2341 43.9364 43.2341 43.8052ZM47.8998 48H47.1037V42.7222L45.5071 43.3086V42.5895L47.7757 41.7377H47.8998V48ZM53.2546 45.2605C53.0891 45.4574 52.8908 45.6158 52.6597 45.7356C52.4314 45.8555 52.1803 45.9154 51.9063 45.9154C51.5467 45.9154 51.2329 45.827 50.9646 45.65C50.6992 45.4731 50.4938 45.2249 50.3482 44.9052C50.2027 44.5828 50.1299 44.2275 50.1299 43.8394C50.1299 43.4228 50.2084 43.0475 50.3653 42.7137C50.5252 42.3798 50.7506 42.1244 51.0417 41.9475C51.3327 41.7705 51.6723 41.6821 52.0604 41.6821C52.6768 41.6821 53.1619 41.9132 53.5158 42.3755C53.8725 42.8349 54.0508 43.4627 54.0508 44.2589V44.49C54.0508 45.7028 53.8111 46.5889 53.3317 47.1482C52.8523 47.7046 52.1289 47.99 51.1615 48.0043H51.0074V47.3365H51.1744C51.8278 47.3251 52.3301 47.1553 52.6811 46.8272C53.0321 46.4961 53.2233 45.9739 53.2546 45.2605ZM52.0347 45.2605C52.3001 45.2605 52.5441 45.1792 52.7667 45.0165C52.9921 44.8539 53.1562 44.6527 53.2589 44.413V44.0962C53.2589 43.5769 53.1462 43.1545 52.9208 42.8292C52.6953 42.5039 52.41 42.3413 52.0647 42.3413C51.7165 42.3413 51.4369 42.4754 51.2257 42.7436C51.0145 43.009 50.909 43.36 50.909 43.7966C50.909 44.2218 51.0103 44.5728 51.2129 44.8496C51.4183 45.1235 51.6923 45.2605 52.0347 45.2605Z" fill="white"/>
</g>
<g opacity="0.2">
<g filter="url(#filter4_d)">
<rect x="4.64358" y="9.65365" width="102.543" height="30.4626" rx="3.21788" stroke="#33FF67" stroke-width="1.28715"/>
</g>
<rect x="4" y="9.01007" width="103.83" height="31.7497" rx="3.86145" fill="#006C1C" fill-opacity="0.28"/>
<g filter="url(#filter5_d)">
<path d="M13 40.7598H20.7229L13 45.4793V40.7598Z" fill="#33FF67"/>
</g>
<path d="M16.4593 28.7123H18.3699V29.8285H16.4593V32.0056H15.2727V29.8285H13.352V28.7123H15.2727V26.676H16.4593V28.7123ZM19.6269 29.1095L20.0241 25.419H23.9559V26.4749H21.0397L20.8386 28.2246C21.1772 28.0302 21.5593 27.933 21.985 27.933C22.6822 27.933 23.2235 28.1559 23.609 28.6017C23.9978 29.0475 24.1923 29.6475 24.1923 30.4017C24.1923 31.1458 23.9777 31.7391 23.5487 32.1816C23.1196 32.6207 22.5314 32.8402 21.7839 32.8402C21.1135 32.8402 20.5571 32.6509 20.1146 32.2721C19.6755 31.89 19.4375 31.3872 19.4006 30.7637H20.5822C20.6291 31.119 20.7565 31.3922 20.9643 31.5833C21.1721 31.771 21.4437 31.8648 21.7788 31.8648C22.1543 31.8648 22.4459 31.7307 22.6537 31.4626C22.8649 31.1944 22.9705 30.8291 22.9705 30.3665C22.9705 29.9207 22.8548 29.5687 22.6235 29.3106C22.3923 29.0492 22.0738 28.9185 21.6682 28.9185C21.447 28.9185 21.2593 28.9486 21.1051 29.009C20.9509 29.0659 20.7833 29.1799 20.6023 29.3509L19.6269 29.1095ZM28.9537 25.3838V26.3944H28.8029C28.1191 26.4045 27.5727 26.5922 27.1638 26.9576C26.7548 27.3229 26.5118 27.8408 26.4347 28.5112C26.8269 28.0989 27.328 27.8928 27.9381 27.8928C28.585 27.8928 29.0945 28.1207 29.4666 28.5766C29.842 29.0324 30.0297 29.6207 30.0297 30.3414C30.0297 31.0855 29.8101 31.6888 29.371 32.1514C28.9353 32.6106 28.3621 32.8402 27.6515 32.8402C26.9208 32.8402 26.3275 32.5704 25.8716 32.0307C25.4191 31.4911 25.1928 30.7838 25.1928 29.909V29.4916C25.1928 28.2078 25.5045 27.2023 26.128 26.4749C26.7548 25.7475 27.6548 25.3838 28.828 25.3838H28.9537ZM27.6414 28.8782C27.3733 28.8782 27.1269 28.9537 26.9023 29.1045C26.6811 29.2553 26.5185 29.4564 26.4146 29.7078V30.0799C26.4146 30.6229 26.5286 31.0553 26.7565 31.3771C26.9844 31.6956 27.2794 31.8548 27.6414 31.8548C28.0034 31.8548 28.29 31.719 28.5012 31.4475C28.7124 31.176 28.818 30.819 28.818 30.3766C28.818 29.9341 28.7107 29.5738 28.4962 29.2955C28.2816 29.0173 27.9967 28.8782 27.6414 28.8782ZM31.8448 31.4525C32.0727 31.4525 32.2487 31.5179 32.3727 31.6486C32.4967 31.776 32.5587 31.9369 32.5587 32.1313C32.5587 32.3224 32.4967 32.4816 32.3727 32.609C32.2487 32.733 32.0727 32.795 31.8448 32.795C31.6269 32.795 31.4543 32.733 31.3269 32.609C31.1995 32.4849 31.1358 32.3257 31.1358 32.1313C31.1358 31.9369 31.1978 31.776 31.3219 31.6486C31.4459 31.5179 31.6202 31.4525 31.8448 31.4525ZM38.8034 32.7397H33.8811V31.9L36.3196 29.2402C36.6716 28.8481 36.9213 28.5212 37.0688 28.2598C37.2196 27.995 37.2951 27.7302 37.2951 27.4654C37.2951 27.1168 37.1962 26.8352 36.9984 26.6207C36.804 26.4062 36.5409 26.2989 36.209 26.2989C35.8135 26.2989 35.5068 26.4196 35.2889 26.6609C35.071 26.9023 34.9621 27.2324 34.9621 27.6514H33.7403C33.7403 27.2056 33.8409 26.805 34.042 26.4497C34.2465 26.0911 34.5364 25.8129 34.9118 25.6151C35.2906 25.4173 35.7263 25.3185 36.2191 25.3185C36.9297 25.3185 37.4895 25.4978 37.8984 25.8564C38.3107 26.2118 38.5168 26.7045 38.5168 27.3347C38.5168 27.7 38.4129 28.0838 38.2051 28.4861C38.0006 28.8849 37.6638 29.3391 37.1945 29.8486L35.4046 31.7643H38.8034V32.7397ZM43.8666 30.1302H44.7766V31.1106H43.8666V32.7397H42.6448V31.1106H39.4822L39.447 30.3665L42.6046 25.419H43.8666V30.1302ZM40.7291 30.1302H42.6448V27.0732L42.5543 27.2341L40.7291 30.1302ZM53.7012 25.419V30.3112C53.7012 31.0888 53.4515 31.7056 52.952 32.1615C52.456 32.614 51.7939 32.8402 50.966 32.8402C50.128 32.8402 49.4627 32.6173 48.9699 32.1715C48.4772 31.7224 48.2308 31.1006 48.2308 30.3062V25.419H49.4979V30.3162C49.4979 30.8056 49.6219 31.1793 49.8699 31.4375C50.118 31.6956 50.4833 31.8246 50.966 31.8246C51.9448 31.8246 52.4342 31.3084 52.4342 30.276V25.419H53.7012ZM58.89 30.8542C58.89 30.5324 58.7761 30.2844 58.5481 30.1101C58.3236 29.9358 57.9163 29.7598 57.3263 29.5821C56.7364 29.4045 56.2671 29.2067 55.9185 28.9888C55.2515 28.5699 54.918 28.0235 54.918 27.3497C54.918 26.7598 55.1576 26.2738 55.637 25.8916C56.1196 25.5095 56.7448 25.3185 57.5124 25.3185C58.0219 25.3185 58.4761 25.4123 58.8749 25.6C59.2738 25.7877 59.5872 26.0559 59.8152 26.4045C60.0431 26.7497 60.1571 27.1335 60.1571 27.5559H58.89C58.89 27.1738 58.7694 26.8754 58.528 26.6609C58.29 26.443 57.9481 26.3341 57.5023 26.3341C57.0867 26.3341 56.7632 26.4229 56.5319 26.6006C56.304 26.7782 56.19 27.0263 56.19 27.3447C56.19 27.6129 56.3141 27.8374 56.5621 28.0185C56.8101 28.1961 57.2191 28.3704 57.7889 28.5414C58.3587 28.709 58.8163 28.9017 59.1615 29.1196C59.5068 29.3341 59.7599 29.5821 59.9208 29.8637C60.0817 30.1419 60.1621 30.4687 60.1621 30.8442C60.1621 31.4542 59.9275 31.9402 59.4582 32.3023C58.9923 32.6609 58.3587 32.8402 57.5576 32.8402C57.028 32.8402 56.5403 32.743 56.0945 32.5486C55.652 32.3509 55.3068 32.0793 55.0587 31.7341C54.8141 31.3888 54.6917 30.9866 54.6917 30.5274H55.9638C55.9638 30.943 56.1012 31.2648 56.3761 31.4928C56.6509 31.7207 57.0448 31.8347 57.5576 31.8347C58.0001 31.8347 58.3319 31.7458 58.5532 31.5682C58.7777 31.3872 58.89 31.1492 58.89 30.8542ZM61.2783 32.7397V25.419H63.4403C64.0872 25.419 64.6604 25.5631 65.1599 25.8514C65.6627 26.1397 66.0515 26.5486 66.3263 27.0782C66.6012 27.6078 66.7386 28.2145 66.7386 28.8983V29.2654C66.7386 29.9592 66.5995 30.5693 66.3213 31.0956C66.0465 31.6218 65.6526 32.0274 65.1398 32.3123C64.6303 32.5972 64.0453 32.7397 63.385 32.7397H61.2783ZM62.5504 26.4447V31.724H63.38C64.047 31.724 64.5582 31.5162 64.9135 31.1006C65.2722 30.6816 65.4548 30.0816 65.4615 29.3006V28.8933C65.4615 28.0989 65.2889 27.4922 64.9437 27.0732C64.5984 26.6542 64.0973 26.4447 63.4403 26.4447H62.5504Z" fill="white"/>
<path d="M13.8653 18.7862L13.8789 19.113C14.095 18.8588 14.3864 18.7317 14.7531 18.7317C15.1653 18.7317 15.4458 18.8897 15.5947 19.2056C15.6927 19.064 15.8198 18.9496 15.976 18.8624C16.1339 18.7753 16.32 18.7317 16.5343 18.7317C17.1807 18.7317 17.5093 19.074 17.5202 19.7585V21.733H17.0163V19.7884C17.0163 19.5778 16.9682 19.4208 16.872 19.3173C16.7758 19.212 16.6142 19.1593 16.3872 19.1593C16.2002 19.1593 16.045 19.2156 15.9215 19.3282C15.7981 19.4389 15.7263 19.5887 15.7064 19.7775V21.733H15.1998V19.802C15.1998 19.3735 14.9901 19.1593 14.5707 19.1593C14.2402 19.1593 14.0142 19.3 13.8925 19.5814V21.733H13.3887V18.7862H13.8653ZM20.102 21.733C20.073 21.6749 20.0494 21.5714 20.0312 21.4225C19.797 21.6658 19.5174 21.7874 19.1924 21.7874C18.9019 21.7874 18.6631 21.7057 18.4761 21.5423C18.2909 21.3771 18.1983 21.1683 18.1983 20.9159C18.1983 20.6091 18.3145 20.3712 18.5469 20.2024C18.7812 20.0317 19.1098 19.9464 19.5328 19.9464H20.0231V19.7149C20.0231 19.5388 19.9704 19.399 19.8651 19.2955C19.7598 19.1902 19.6045 19.1375 19.3994 19.1375C19.2196 19.1375 19.0689 19.1829 18.9473 19.2737C18.8256 19.3645 18.7648 19.4743 18.7648 19.6032H18.2582C18.2582 19.4562 18.31 19.3145 18.4135 19.1784C18.5188 19.0404 18.6604 18.9314 18.8383 18.8515C19.0181 18.7717 19.2151 18.7317 19.4293 18.7317C19.7689 18.7317 20.0349 18.817 20.2273 18.9877C20.4198 19.1566 20.5196 19.3899 20.5269 19.6876V21.0439C20.5269 21.3145 20.5614 21.5296 20.6304 21.6894V21.733H20.102ZM19.2659 21.349C19.4239 21.349 19.5737 21.3081 19.7153 21.2264C19.8569 21.1447 19.9595 21.0385 20.0231 20.9078V20.3032H19.6281C19.0108 20.3032 18.7022 20.4838 18.7022 20.8451C18.7022 21.0031 18.7548 21.1265 18.8601 21.2155C18.9654 21.3045 19.1007 21.349 19.2659 21.349ZM22.3053 19.862L22.9589 18.7862H23.5472L22.5831 20.2432L23.5772 21.733H22.9944L22.3135 20.63L21.6326 21.733H21.0471L22.0411 20.2432L21.077 18.7862H21.6599L22.3053 19.862ZM24.6312 21.733H24.1273V17.5497H24.6312V21.733ZM25.9874 21.733H25.4836V18.7862H25.9874V21.733ZM25.4427 18.0045C25.4427 17.9228 25.4673 17.8539 25.5163 17.7976C25.5671 17.7413 25.6416 17.7131 25.7396 17.7131C25.8376 17.7131 25.9121 17.7413 25.9629 17.7976C26.0138 17.8539 26.0392 17.9228 26.0392 18.0045C26.0392 18.0863 26.0138 18.1543 25.9629 18.2088C25.9121 18.2633 25.8376 18.2905 25.7396 18.2905C25.6416 18.2905 25.5671 18.2633 25.5163 18.2088C25.4673 18.1543 25.4427 18.0863 25.4427 18.0045ZM27.2729 18.7862L27.2893 19.1566C27.5144 18.8733 27.8085 18.7317 28.1717 18.7317C28.7944 18.7317 29.1085 19.083 29.114 19.7857V21.733H28.6101V19.783C28.6083 19.5705 28.5593 19.4135 28.4631 19.3118C28.3687 19.2101 28.2207 19.1593 28.0191 19.1593C27.8557 19.1593 27.7123 19.2029 27.5888 19.29C27.4654 19.3772 27.3691 19.4916 27.3001 19.6332V21.733H26.7963V18.7862H27.2729ZM31.0967 21.7874C30.6972 21.7874 30.3722 21.6567 30.1217 21.3953C29.8711 21.132 29.7458 20.7807 29.7458 20.3413V20.2487C29.7458 19.9564 29.8012 19.6958 29.912 19.467C30.0245 19.2365 30.1807 19.0567 30.3804 18.9278C30.5819 18.7971 30.7998 18.7317 31.034 18.7317C31.4171 18.7317 31.7149 18.8579 31.9273 19.1103C32.1397 19.3626 32.246 19.724 32.246 20.1942V20.4039H30.2497C30.2569 20.6944 30.3414 20.9295 30.5029 21.1093C30.6664 21.2872 30.8733 21.3762 31.1239 21.3762C31.3018 21.3762 31.4525 21.3399 31.576 21.2673C31.6995 21.1946 31.8075 21.0984 31.9001 20.9786L32.2078 21.2182C31.9609 21.5977 31.5905 21.7874 31.0967 21.7874ZM31.034 19.1457C30.8307 19.1457 30.66 19.2201 30.522 19.369C30.384 19.5161 30.2987 19.7231 30.266 19.99H31.7421V19.9518C31.7276 19.6958 31.6586 19.4979 31.5351 19.3581C31.4117 19.2165 31.2446 19.1457 31.034 19.1457ZM36.0343 21.733C36.0052 21.6749 35.9816 21.5714 35.9635 21.4225C35.7293 21.6658 35.4497 21.7874 35.1247 21.7874C34.8342 21.7874 34.5954 21.7057 34.4084 21.5423C34.2232 21.3771 34.1306 21.1683 34.1306 20.9159C34.1306 20.6091 34.2468 20.3712 34.4792 20.2024C34.7134 20.0317 35.0421 19.9464 35.4651 19.9464H35.9553V19.7149C35.9553 19.5388 35.9027 19.399 35.7974 19.2955C35.6921 19.1902 35.5368 19.1375 35.3316 19.1375C35.1519 19.1375 35.0012 19.1829 34.8796 19.2737C34.7579 19.3645 34.6971 19.4743 34.6971 19.6032H34.1905C34.1905 19.4562 34.2423 19.3145 34.3458 19.1784C34.4511 19.0404 34.5927 18.9314 34.7706 18.8515C34.9504 18.7717 35.1474 18.7317 35.3616 18.7317C35.7011 18.7317 35.9671 18.817 36.1596 18.9877C36.352 19.1566 36.4519 19.3899 36.4592 19.6876V21.0439C36.4592 21.3145 36.4937 21.5296 36.5627 21.6894V21.733H36.0343ZM35.1982 21.349C35.3562 21.349 35.5059 21.3081 35.6476 21.2264C35.7892 21.1447 35.8918 21.0385 35.9553 20.9078V20.3032H35.5604C34.9431 20.3032 34.6344 20.4838 34.6344 20.8451C34.6344 21.0031 34.6871 21.1265 34.7924 21.2155C34.8977 21.3045 35.033 21.349 35.1982 21.349ZM37.4968 21.733V19.1756H37.0311V18.7862H37.4968V18.4839C37.4968 18.168 37.5812 17.9238 37.7501 17.7513C37.9189 17.5788 38.1577 17.4925 38.4664 17.4925C38.5826 17.4925 38.6978 17.508 38.8122 17.5388L38.785 17.9474C38.6997 17.931 38.6089 17.9228 38.5127 17.9228C38.3492 17.9228 38.2231 17.971 38.1341 18.0672C38.0451 18.1616 38.0006 18.2978 38.0006 18.4757V18.7862H39.09V18.5356C39.09 18.207 39.1835 17.951 39.3705 17.7676C39.5594 17.5842 39.8254 17.4925 40.1685 17.4925C40.3719 17.4925 40.6288 17.5479 40.9393 17.6587L40.8548 18.0835C40.6279 17.9927 40.4109 17.9474 40.2039 17.9474C39.9879 17.9474 39.8317 17.9955 39.7355 18.0917C39.6411 18.1879 39.5939 18.3341 39.5939 18.5302V18.7862H40.1985V19.1756H39.5939V21.733H39.09V19.1756H38.0006V21.733H37.4968ZM41.1871 21.733H40.6833V18.7862H41.1871V21.733ZM42.557 21.733H42.0532V17.5497H42.557V21.733ZM43.9133 21.733H43.4094V18.7862H43.9133V21.733ZM43.3686 18.0045C43.3686 17.9228 43.3931 17.8539 43.4421 17.7976C43.493 17.7413 43.5674 17.7131 43.6654 17.7131C43.7635 17.7131 43.8379 17.7413 43.8888 17.7976C43.9396 17.8539 43.965 17.9228 43.965 18.0045C43.965 18.0863 43.9396 18.1543 43.8888 18.2088C43.8379 18.2633 43.7635 18.2905 43.6654 18.2905C43.5674 18.2905 43.493 18.2633 43.4421 18.2088C43.3931 18.1543 43.3686 18.0863 43.3686 18.0045ZM46.5414 21.733C46.5124 21.6749 46.4888 21.5714 46.4706 21.4225C46.2364 21.6658 45.9568 21.7874 45.6318 21.7874C45.3413 21.7874 45.1025 21.7057 44.9155 21.5423C44.7303 21.3771 44.6377 21.1683 44.6377 20.9159C44.6377 20.6091 44.7539 20.3712 44.9863 20.2024C45.2205 20.0317 45.5492 19.9464 45.9722 19.9464H46.4624V19.7149C46.4624 19.5388 46.4098 19.399 46.3045 19.2955C46.1992 19.1902 46.0439 19.1375 45.8388 19.1375C45.659 19.1375 45.5083 19.1829 45.3867 19.2737C45.265 19.3645 45.2042 19.4743 45.2042 19.6032H44.6976C44.6976 19.4562 44.7494 19.3145 44.8529 19.1784C44.9582 19.0404 45.0998 18.9314 45.2777 18.8515C45.4575 18.7717 45.6545 18.7317 45.8687 18.7317C46.2083 18.7317 46.4742 18.817 46.6667 18.9877C46.8592 19.1566 46.959 19.3899 46.9663 19.6876V21.0439C46.9663 21.3145 47.0008 21.5296 47.0698 21.6894V21.733H46.5414ZM45.7053 21.349C45.8633 21.349 46.0131 21.3081 46.1547 21.2264C46.2963 21.1447 46.3989 21.0385 46.4624 20.9078V20.3032H46.0675C45.4502 20.3032 45.1416 20.4838 45.1416 20.8451C45.1416 21.0031 45.1942 21.1265 45.2995 21.2155C45.4048 21.3045 45.5401 21.349 45.7053 21.349ZM48.4397 18.0726V18.7862H48.9898V19.1756H48.4397V21.0031C48.4397 21.1211 48.4642 21.2101 48.5132 21.27C48.5622 21.3281 48.6458 21.3571 48.7638 21.3571C48.8219 21.3571 48.9018 21.3462 49.0034 21.3245V21.733C48.8709 21.7693 48.742 21.7874 48.6167 21.7874C48.3916 21.7874 48.2218 21.7194 48.1074 21.5832C47.993 21.447 47.9358 21.2536 47.9358 21.0031V19.1756H47.3993V18.7862H47.9358V18.0726H48.4397ZM50.8036 21.7874C50.4042 21.7874 50.0792 21.6567 49.8286 21.3953C49.5781 21.132 49.4528 20.7807 49.4528 20.3413V20.2487C49.4528 19.9564 49.5082 19.6958 49.6189 19.467C49.7315 19.2365 49.8877 19.0567 50.0874 18.9278C50.2889 18.7971 50.5068 18.7317 50.741 18.7317C51.1241 18.7317 51.4219 18.8579 51.6343 19.1103C51.8467 19.3626 51.9529 19.724 51.9529 20.1942V20.4039H49.9566C49.9639 20.6944 50.0483 20.9295 50.2099 21.1093C50.3733 21.2872 50.5803 21.3762 50.8309 21.3762C51.0088 21.3762 51.1595 21.3399 51.283 21.2673C51.4064 21.1946 51.5145 21.0984 51.6071 20.9786L51.9148 21.2182C51.6679 21.5977 51.2975 21.7874 50.8036 21.7874ZM50.741 19.1457C50.5377 19.1457 50.367 19.2201 50.229 19.369C50.091 19.5161 50.0057 19.7231 49.973 19.99H51.4491V19.9518C51.4346 19.6958 51.3656 19.4979 51.2421 19.3581C51.1187 19.2165 50.9516 19.1457 50.741 19.1457ZM54.2543 20.9513C54.2543 20.8152 54.2025 20.7099 54.099 20.6354C53.9974 20.5592 53.8185 20.4938 53.5625 20.4393C53.3083 20.3849 53.1059 20.3195 52.9552 20.2432C52.8063 20.167 52.6955 20.0762 52.6229 19.9709C52.5521 19.8656 52.5167 19.7403 52.5167 19.5951C52.5167 19.3536 52.6184 19.1493 52.8217 18.9823C53.0269 18.8152 53.2884 18.7317 53.6061 18.7317C53.9402 18.7317 54.2107 18.818 54.4177 18.9904C54.6265 19.1629 54.7309 19.3835 54.7309 19.6522H54.2243C54.2243 19.5143 54.1653 19.3953 54.0473 19.2955C53.9311 19.1956 53.784 19.1457 53.6061 19.1457C53.4227 19.1457 53.2793 19.1856 53.1758 19.2655C53.0723 19.3454 53.0205 19.4498 53.0205 19.5787C53.0205 19.7004 53.0687 19.792 53.1649 19.8538C53.2611 19.9155 53.4345 19.9745 53.6851 20.0308C53.9374 20.0871 54.1417 20.1543 54.2979 20.2323C54.454 20.3104 54.5693 20.4048 54.6437 20.5156C54.72 20.6245 54.7581 20.758 54.7581 20.9159C54.7581 21.1792 54.6528 21.3907 54.4422 21.5505C54.2316 21.7085 53.9583 21.7874 53.6224 21.7874C53.3864 21.7874 53.1776 21.7457 52.996 21.6622C52.8145 21.5786 52.6719 21.4624 52.5685 21.3136C52.4668 21.1629 52.4159 21.0004 52.4159 20.8261H52.9198C52.9289 20.9949 52.996 21.1293 53.1213 21.2291C53.2484 21.3272 53.4154 21.3762 53.6224 21.3762C53.8131 21.3762 53.9656 21.3381 54.08 21.2618C54.1962 21.1837 54.2543 21.0802 54.2543 20.9513ZM55.3981 21.4688C55.3981 21.3816 55.4235 21.309 55.4744 21.2509C55.527 21.1928 55.6051 21.1638 55.7086 21.1638C55.8121 21.1638 55.8902 21.1928 55.9428 21.2509C55.9973 21.309 56.0245 21.3816 56.0245 21.4688C56.0245 21.5523 55.9973 21.6222 55.9428 21.6785C55.8902 21.7348 55.8121 21.7629 55.7086 21.7629C55.6051 21.7629 55.527 21.7348 55.4744 21.6785C55.4235 21.6222 55.3981 21.5523 55.3981 21.4688ZM55.4009 19.064C55.4009 18.9768 55.4263 18.9042 55.4771 18.8461C55.5298 18.788 55.6078 18.7589 55.7113 18.7589C55.8148 18.7589 55.8929 18.788 55.9455 18.8461C56 18.9042 56.0272 18.9768 56.0272 19.064C56.0272 19.1475 56 19.2174 55.9455 19.2737C55.8929 19.33 55.8148 19.3581 55.7113 19.3581C55.6078 19.3581 55.5298 19.33 55.4771 19.2737C55.4263 19.2174 55.4009 19.1475 55.4009 19.064Z" fill="white"/>
<path d="M6.81606 3.30873C6.81606 3.89881 6.71529 4.33729 6.51376 4.62416C6.31222 4.91103 5.99721 5.05447 5.56872 5.05447C5.14567 5.05447 4.83247 4.91466 4.62912 4.63506C4.42577 4.35363 4.32046 3.93422 4.3132 3.37682V2.70412C4.3132 2.1213 4.41397 1.68827 4.6155 1.40503C4.81704 1.12179 5.13296 0.980167 5.56327 0.980167C5.98994 0.980167 6.30405 1.11725 6.50559 1.39141C6.70712 1.66376 6.81062 2.08499 6.81606 2.6551V3.30873ZM6.31222 2.61969C6.31222 2.19302 6.2523 1.88254 6.13247 1.68827C6.01264 1.49218 5.82291 1.39413 5.56327 1.39413C5.30545 1.39413 5.11753 1.49127 4.99951 1.68554C4.88149 1.87982 4.82067 2.17849 4.81704 2.58156V3.38771C4.81704 3.8162 4.87877 4.13303 5.00223 4.3382C5.12751 4.54155 5.31634 4.64323 5.56872 4.64323C5.81746 4.64323 6.00175 4.547 6.12158 4.35454C6.24323 4.16208 6.30677 3.85887 6.31222 3.4449V2.61969ZM9.39246 3.25698C9.28715 3.38226 9.16096 3.48303 9.0139 3.55929C8.86865 3.63554 8.70887 3.67367 8.53457 3.67367C8.3058 3.67367 8.10608 3.61739 7.93541 3.50482C7.76655 3.39225 7.63582 3.23429 7.54323 3.03094C7.45063 2.82577 7.40433 2.59972 7.40433 2.35279C7.40433 2.08771 7.45426 1.84895 7.55412 1.63652C7.6558 1.42409 7.79923 1.26159 7.98443 1.14902C8.16962 1.03645 8.38569 0.980167 8.63261 0.980167C9.02479 0.980167 9.33345 1.12723 9.55859 1.42137C9.78555 1.71369 9.89902 2.11313 9.89902 2.61969V2.76676C9.89902 3.53841 9.74651 4.10216 9.44148 4.45803C9.13645 4.81208 8.67619 4.99365 8.06069 5.00272H7.96264V4.57786H8.06886C8.48464 4.5706 8.80419 4.46257 9.02752 4.25377C9.25084 4.04316 9.37249 3.71089 9.39246 3.25698ZM8.61627 3.25698C8.78513 3.25698 8.94036 3.20524 9.08198 3.10175C9.22542 2.99825 9.32982 2.87025 9.39518 2.71774V2.5162C9.39518 2.18575 9.32346 1.91704 9.18003 1.71006C9.03659 1.50307 8.85503 1.39958 8.63534 1.39958C8.41383 1.39958 8.23589 1.48492 8.10154 1.65559C7.96718 1.82444 7.9 2.04776 7.9 2.32556C7.9 2.59609 7.96446 2.81941 8.09337 2.99553C8.22409 3.16983 8.39839 3.25698 8.61627 3.25698ZM10.6289 4.73582C10.6289 4.64867 10.6543 4.57605 10.7052 4.51795C10.7578 4.45985 10.8359 4.4308 10.9394 4.4308C11.0429 4.4308 11.121 4.45985 11.1736 4.51795C11.2281 4.57605 11.2553 4.64867 11.2553 4.73582C11.2553 4.81934 11.2281 4.88925 11.1736 4.94553C11.121 5.00182 11.0429 5.02996 10.9394 5.02996C10.8359 5.02996 10.7578 5.00182 10.7052 4.94553C10.6543 4.88925 10.6289 4.81934 10.6289 4.73582ZM10.6316 2.33101C10.6316 2.24385 10.6571 2.17123 10.7079 2.11313C10.7605 2.05503 10.8386 2.02598 10.9421 2.02598C11.0456 2.02598 11.1237 2.05503 11.1763 2.11313C11.2308 2.17123 11.258 2.24385 11.258 2.33101C11.258 2.41452 11.2308 2.48443 11.1763 2.54071C11.1237 2.597 11.0456 2.62514 10.9421 2.62514C10.8386 2.62514 10.7605 2.597 10.7079 2.54071C10.6571 2.48443 10.6316 2.41452 10.6316 2.33101ZM12.677 2.77221H13.0555C13.2934 2.76857 13.4804 2.70594 13.6166 2.58429C13.7527 2.46264 13.8208 2.29832 13.8208 2.09134C13.8208 1.62654 13.5893 1.39413 13.1263 1.39413C12.9085 1.39413 12.7341 1.45677 12.6034 1.58205C12.4745 1.70552 12.4101 1.86983 12.4101 2.075H11.9062C11.9062 1.76089 12.0206 1.50035 12.2494 1.29337C12.48 1.08457 12.7723 0.980167 13.1263 0.980167C13.5004 0.980167 13.7936 1.07912 14.006 1.27702C14.2184 1.47493 14.3247 1.75 14.3247 2.10223C14.3247 2.27472 14.2684 2.44176 14.1558 2.60335C14.045 2.76494 13.8934 2.88568 13.701 2.96557C13.9189 3.03457 14.0868 3.14895 14.2048 3.30873C14.3247 3.46851 14.3846 3.66369 14.3846 3.89427C14.3846 4.25014 14.2684 4.53247 14.036 4.74127C13.8036 4.95007 13.5013 5.05447 13.1291 5.05447C12.7568 5.05447 12.4536 4.9537 12.2194 4.75216C11.987 4.55063 11.8708 4.28464 11.8708 3.95419H12.3774C12.3774 4.16299 12.4455 4.33003 12.5816 4.45531C12.7178 4.58059 12.9003 4.64323 13.1291 4.64323C13.3723 4.64323 13.5585 4.57968 13.6874 4.45258C13.8163 4.32549 13.8807 4.14302 13.8807 3.90517C13.8807 3.67458 13.8099 3.49756 13.6683 3.37409C13.5267 3.25063 13.3224 3.18708 13.0555 3.18345H12.677V2.77221ZM17.6745 5H15.0763V4.63778L16.449 3.11264C16.6523 2.88205 16.7921 2.69504 16.8684 2.55161C16.9464 2.40635 16.9855 2.25656 16.9855 2.10223C16.9855 1.89525 16.9228 1.72549 16.7976 1.59295C16.6723 1.4604 16.5052 1.39413 16.2964 1.39413C16.0459 1.39413 15.8507 1.46585 15.7109 1.60929C15.5729 1.75091 15.5039 1.94881 15.5039 2.203H15.0001C15.0001 1.83806 15.1172 1.54302 15.3514 1.31788C15.5874 1.09274 15.9024 0.980167 16.2964 0.980167C16.665 0.980167 16.9564 1.0773 17.1707 1.27158C17.3849 1.46404 17.492 1.72095 17.492 2.04232C17.492 2.43268 17.2433 2.89749 16.7458 3.43673L15.6837 4.58876H17.6745V5Z" fill="white"/>
</g>
<defs>
<filter id="filter0_d" x="7.4876" y="111.017" width="217.025" height="76.7934" filterUnits="userSpaceOnUse" color-interpolation-filters="sRGB">
<feFlood flood-opacity="0" result="BackgroundImageFix"/>
<feColorMatrix in="SourceAlpha" type="matrix" values="0 0 0 0 0 0 0 0 0 0 0 0 0 0 0 0 0 0 127 0"/>
<feOffset/>
<feGaussianBlur stdDeviation="3.7562"/>
<feColorMatrix type="matrix" values="0 0 0 0 0.370833 0 0 0 0 1 0 0 0 0 0.531292 0 0 0 1 0"/>
<feBlend mode="normal" in2="BackgroundImageFix" result="effect1_dropShadow"/>
<feBlend mode="normal" in="SourceGraphic" in2="effect1_dropShadow" result="shape"/>
</filter>
<filter id="filter1_d" x="25.4876" y="172.785" width="30.0496" height="24.2066" filterUnits="userSpaceOnUse" color-interpolation-filters="sRGB">
<feFlood flood-opacity="0" result="BackgroundImageFix"/>
<feColorMatrix in="SourceAlpha" type="matrix" values="0 0 0 0 0 0 0 0 0 0 0 0 0 0 0 0 0 0 127 0"/>
<feOffset/>
<feGaussianBlur stdDeviation="3.7562"/>
<feColorMatrix type="matrix" values="0 0 0 0 0.370833 0 0 0 0 1 0 0 0 0 0.531292 0 0 0 1 0"/>
<feBlend mode="normal" in2="BackgroundImageFix" result="effect1_dropShadow"/>
<feBlend mode="normal" in="SourceGraphic" in2="effect1_dropShadow" result="shape"/>
</filter>
<filter id="filter2_d" x="26.7423" y="48.092" width="175.327" height="62.0387" filterUnits="userSpaceOnUse" color-interpolation-filters="sRGB">
<feFlood flood-opacity="0" result="BackgroundImageFix"/>
<feColorMatrix in="SourceAlpha" type="matrix" values="0 0 0 0 0 0 0 0 0 0 0 0 0 0 0 0 0 0 127 0"/>
<feOffset/>
<feGaussianBlur stdDeviation="3.0345"/>
<feColorMatrix type="matrix" values="0 0 0 0 0.370833 0 0 0 0 1 0 0 0 0 0.531292 0 0 0 1 0"/>
<feBlend mode="normal" in2="BackgroundImageFix" result="effect1_dropShadow"/>
<feBlend mode="normal" in="SourceGraphic" in2="effect1_dropShadow" result="shape"/>
</filter>
<filter id="filter3_d" x="40.931" y="97.9926" width="24.276" height="19.5557" filterUnits="userSpaceOnUse" color-interpolation-filters="sRGB">
<feFlood flood-opacity="0" result="BackgroundImageFix"/>
<feColorMatrix in="SourceAlpha" type="matrix" values="0 0 0 0 0 0 0 0 0 0 0 0 0 0 0 0 0 0 127 0"/>
<feOffset/>
<feGaussianBlur stdDeviation="3.0345"/>
<feColorMatrix type="matrix" values="0 0 0 0 0.370833 0 0 0 0 1 0 0 0 0 0.531292 0 0 0 1 0"/>
<feBlend mode="normal" in2="BackgroundImageFix" result="effect1_dropShadow"/>
<feBlend mode="normal" in="SourceGraphic" in2="effect1_dropShadow" result="shape"/>
</filter>
<filter id="filter4_d" x="0.138547" y="5.14862" width="111.553" height="39.4726" filterUnits="userSpaceOnUse" color-interpolation-filters="sRGB">
<feFlood flood-opacity="0" result="BackgroundImageFix"/>
<feColorMatrix in="SourceAlpha" type="matrix" values="0 0 0 0 0 0 0 0 0 0 0 0 0 0 0 0 0 0 127 0"/>
<feOffset/>
<feGaussianBlur stdDeviation="1.93073"/>
<feColorMatrix type="matrix" values="0 0 0 0 0.370833 0 0 0 0 1 0 0 0 0 0.531292 0 0 0 1 0"/>
<feBlend mode="normal" in2="BackgroundImageFix" result="effect1_dropShadow"/>
<feBlend mode="normal" in="SourceGraphic" in2="effect1_dropShadow" result="shape"/>
</filter>
<filter id="filter5_d" x="9.13855" y="36.8983" width="15.4458" height="12.4425" filterUnits="userSpaceOnUse" color-interpolation-filters="sRGB">
<feFlood flood-opacity="0" result="BackgroundImageFix"/>
<feColorMatrix in="SourceAlpha" type="matrix" values="0 0 0 0 0 0 0 0 0 0 0 0 0 0 0 0 0 0 127 0"/>
<feOffset/>
<feGaussianBlur stdDeviation="1.93073"/>
<feColorMatrix type="matrix" values="0 0 0 0 0.370833 0 0 0 0 1 0 0 0 0 0.531292 0 0 0 1 0"/>
<feBlend mode="normal" in2="BackgroundImageFix" result="effect1_dropShadow"/>
<feBlend mode="normal" in="SourceGraphic" in2="effect1_dropShadow" result="shape"/>
</filter>
</defs>
</svg>
