<svg width="23" height="22" viewBox="0 0 23 22" fill="none" xmlns="http://www.w3.org/2000/svg">
<g clip-path="url(#clip0)">
<g clip-path="url(#clip1)">
<path d="M15.4896 0.335602H7.47724C3.79023 0.335602 0.800293 3.32554 0.800293 7.01255V15.0249C0.800293 18.7119 3.79023 21.7018 7.47724 21.7018H15.4896C19.1766 21.7018 22.1665 18.7119 22.1665 15.0249V7.01255C22.1665 3.32554 19.1766 0.335602 15.4896 0.335602ZM20.1634 15.0249C20.1634 17.6022 18.0669 19.6988 15.4896 19.6988H7.47724C4.89994 19.6988 2.80338 17.6022 2.80338 15.0249V7.01255C2.80338 4.43525 4.89994 2.33869 7.47724 2.33869H15.4896C18.0669 2.33869 20.1634 4.43525 20.1634 7.01255V15.0249Z" fill="white"/>
<path d="M11.4834 5.67708C8.53353 5.67708 6.14185 8.06876 6.14185 11.0186C6.14185 13.9685 8.53353 16.3602 11.4834 16.3602C14.4333 16.3602 16.825 13.9685 16.825 11.0186C16.825 8.06876 14.4333 5.67708 11.4834 5.67708ZM11.4834 14.3571C9.64324 14.3571 8.14493 12.8588 8.14493 11.0186C8.14493 9.17714 9.64324 7.68016 11.4834 7.68016C13.3236 7.68016 14.8219 9.17714 14.8219 11.0186C14.8219 12.8588 13.3236 14.3571 11.4834 14.3571Z" fill="white"/>
<path d="M17.4926 5.67705C17.8614 5.67705 18.1603 5.37811 18.1603 5.00935C18.1603 4.6406 17.8614 4.34166 17.4926 4.34166C17.1239 4.34166 16.825 4.6406 16.825 5.00935C16.825 5.37811 17.1239 5.67705 17.4926 5.67705Z" fill="white"/>
</g>
</g>
<defs>
<clipPath id="clip0">
<rect width="21.3662" height="21.3662" fill="white" transform="translate(0.800293 0.335602)"/>
</clipPath>
<clipPath id="clip1">
<rect width="21.3662" height="21.3662" fill="white" transform="translate(0.800293 0.335602)"/>
</clipPath>
</defs>
</svg>
