<svg width="22" height="22" viewBox="0 0 22 22" fill="none" xmlns="http://www.w3.org/2000/svg">
<g clip-path="url(#clip0)">
<path d="M21.2437 15.0614C21.1862 14.9666 20.831 14.2056 19.1216 12.6415C17.332 11.0037 17.5724 11.2696 19.7279 8.43767C21.0407 6.71294 21.5655 5.65967 21.4013 5.2094C21.245 4.78019 20.2794 4.89342 20.2794 4.89342L17.0689 4.91185C17.0689 4.91185 16.8312 4.88025 16.6536 4.98427C16.4813 5.08696 16.3705 5.32394 16.3705 5.32394C16.3705 5.32394 15.8617 6.65896 15.1832 7.79386C13.7529 10.1887 13.18 10.3151 12.9463 10.1663C12.4027 9.82009 12.539 8.7734 12.539 8.03084C12.539 5.7097 12.8955 4.74201 11.8432 4.49186C11.4933 4.40892 11.2369 4.35362 10.3434 4.3444C9.19757 4.33255 8.22667 4.34835 7.67778 4.61299C7.31186 4.78941 7.03007 5.18307 7.20235 5.20545C7.41469 5.2331 7.89546 5.33316 8.15054 5.67547C8.48041 6.11653 8.46839 7.10923 8.46839 7.10923C8.46839 7.10923 8.65803 9.84115 8.02634 10.1808C7.59231 10.4139 6.99802 9.93858 5.72263 7.76489C5.06957 6.65238 4.57544 5.42137 4.57544 5.42137C4.57544 5.42137 4.48062 5.19229 4.31101 5.06984C4.10535 4.92107 3.81688 4.87367 3.81688 4.87367L0.763959 4.8921C0.763959 4.8921 0.305886 4.90527 0.137615 5.10144C-0.01196 5.27655 0.125595 5.63729 0.125595 5.63729C0.125595 5.63729 2.51612 11.1498 5.22182 13.9291C7.70449 16.4767 10.5224 16.3095 10.5224 16.3095H11.7991C11.7991 16.3095 12.1851 16.2674 12.3814 16.0581C12.563 15.8658 12.5563 15.5051 12.5563 15.5051C12.5563 15.5051 12.5309 13.8159 13.3269 13.5671C14.1108 13.3222 15.1178 15.1997 16.1848 15.9225C16.9915 16.4688 17.6045 16.349 17.6045 16.349L20.4584 16.3095C20.4584 16.3095 21.9515 16.2187 21.2437 15.0614Z" fill="white"/>
</g>
<defs>
<clipPath id="clip0">
<rect width="21.3662" height="21.3662" fill="white" transform="translate(0.0678711 0.335602)"/>
</clipPath>
</defs>
</svg>
