<svg width="22" height="22" viewBox="0 0 22 22" fill="none" xmlns="http://www.w3.org/2000/svg">
<g clip-path="url(#clip0)">
<path d="M20.4582 5.75746C19.8786 4.72654 19.2496 4.53692 17.969 4.46481C16.6897 4.37801 13.4727 4.34195 10.6858 4.34195C7.89349 4.34195 4.6752 4.37801 3.39723 4.46347C2.11926 4.53692 1.48896 4.72521 0.904059 5.75746C0.30714 6.78705 0 8.56045 0 11.6826C0 11.6853 0 11.6866 0 11.6866C0 11.6893 0 11.6906 0 11.6906V11.6933C0 14.8021 0.30714 16.5888 0.904059 17.6077C1.48896 18.6386 2.11793 18.8256 3.3959 18.9124C4.6752 18.9872 7.89349 19.0312 10.6858 19.0312C13.4727 19.0312 16.6897 18.9872 17.9703 18.9137C19.251 18.8269 19.88 18.64 20.4595 17.609C21.0618 16.5901 21.3662 14.8034 21.3662 11.6946C21.3662 11.6946 21.3662 11.6906 21.3662 11.6879C21.3662 11.6879 21.3662 11.6853 21.3662 11.6839C21.3662 8.56045 21.0618 6.78705 20.4582 5.75746ZM8.01234 15.6928V7.68042L14.6893 11.6866L8.01234 15.6928Z" fill="white"/>
</g>
<defs>
<clipPath id="clip0">
<rect width="21.3662" height="21.3662" fill="white" transform="translate(0 0.335831)"/>
</clipPath>
</defs>
</svg>
