<svg width="56" height="20" fill="none" xmlns="http://www.w3.org/2000/svg"><g clip-path="url(#clip0)"><path d="M26.456 12.515c0-.387.11-.657.33-.809.22-.152.607-.227 1.162-.227h.524c.55 0 .938.065 1.16.196.223.13.334.353.334.666v.131h-.511v-.083c0-.229-.07-.385-.207-.47-.139-.083-.41-.125-.812-.125h-.346a3.77 3.77 0 00-.591.033.855.855 0 00-.31.108.417.417 0 00-.172.202 1.425 1.425 0 00-.05.456v.863c-.008.153.009.307.05.454a.417.417 0 00.173.202.85.85 0 00.3.108c.198.028.4.039.6.034h.346c.413 0 .687-.044.823-.132.137-.089.206-.257.206-.506v-.145h.508v.207c0 .336-.108.569-.325.7-.216.132-.606.198-1.171.198h-.523c-.556 0-.943-.076-1.163-.228-.22-.151-.33-.421-.33-.809l-.005-1.024zm4.308-.995h.499v1.986c-.008.137.008.275.046.408a.387.387 0 00.161.187.845.845 0 00.288.103c.19.024.383.034.576.029h.469c.194.005.388-.005.58-.03a.843.843 0 00.289-.102.373.373 0 00.157-.185c.037-.133.052-.272.045-.41V11.52h.5v2.026c0 .386-.114.656-.34.808-.224.152-.624.229-1.195.229h-.54c-.571 0-.97-.077-1.196-.23-.226-.152-.34-.421-.338-.807l-.002-2.025zm4.65 3.021v-3.02h2.021c.504 0 .85.05 1.04.15.19.1.284.282.284.54v.457a.487.487 0 01-.144.374.757.757 0 01-.432.17.786.786 0 01.449.184c.096.119.142.27.13.423v.722h-.518v-.623c0-.216-.051-.363-.153-.44-.1-.077-.3-.115-.593-.115h-1.589v1.178h-.495zm1.922-2.703h-1.429v1.21h1.429c.373 0 .617-.031.733-.094a.346.346 0 00.172-.334v-.355a.351.351 0 00-.167-.338c-.108-.06-.354-.09-.738-.09zm1.913 2.703l1.654-3.02h.815l1.663 3.02h-.51l-.428-.774h-2.262l-.421.774h-.511zm1.094-1.072h1.946l-.894-1.631h-.159l-.893 1.631zm3.499-.954c0-.387.11-.657.33-.809.219-.152.607-.227 1.162-.227h.523c.551 0 .938.065 1.16.196.223.13.335.353.335.666v.131h-.511v-.083c0-.229-.07-.385-.208-.47-.138-.083-.409-.125-.812-.125h-.344a3.77 3.77 0 00-.591.033.855.855 0 00-.31.108.417.417 0 00-.172.202 1.425 1.425 0 00-.05.456v.863a1.39 1.39 0 00.05.454.417.417 0 00.172.202.85.85 0 00.3.108c.199.028.4.039.6.034h.347c.412 0 .687-.044.823-.132.136-.089.205-.257.205-.506v-.145h.508v.207c0 .336-.108.569-.324.7-.216.132-.606.198-1.171.198h-.523c-.556 0-.944-.076-1.163-.228-.22-.151-.33-.421-.33-.809l-.006-1.024zm3.769 2.026l1.654-3.02h.816l1.664 3.02h-.511l-.433-.774h-2.26l-.419.774h-.51zm1.095-1.072h1.945l-.894-1.631H49.6l-.893 1.631zm3.498-.954c0-.386.118-.655.355-.808.236-.152.656-.229 1.26-.229h.565c.611 0 1.033.076 1.266.226.233.151.35.42.35.811v1.025c0 .388-.12.658-.357.81-.238.151-.657.227-1.259.227h-.565c-.603 0-1.023-.076-1.26-.227-.237-.152-.356-.422-.355-.81v-1.025zm2.033-.721h-.277a4.45 4.45 0 00-.668.034 1.07 1.07 0 00-.337.116.432.432 0 00-.186.208 1.291 1.291 0 00-.051.448v.863c-.01.15.009.301.053.445a.432.432 0 00.184.202c.105.058.22.097.337.116.222.028.445.04.668.034h.277c.224.005.449-.006.671-.034.12-.019.234-.058.34-.116a.422.422 0 00.182-.202c.043-.146.06-.299.052-.45v-.864a1.294 1.294 0 00-.054-.45.423.423 0 00-.186-.208 1.03 1.03 0 00-.334-.108 4.676 4.676 0 00-.671-.034z" fill="#DFDFDF"/><path d="M26.435 8.346c0-.398.119-.676.356-.834.238-.157.66-.236 1.264-.235h.572c.553 0 .962.065 1.225.195a.648.648 0 01.395.612v.133h-.515v-.041a.463.463 0 00-.236-.45c-.156-.086-.456-.128-.9-.128H28.2a4.321 4.321 0 00-.663.038c-.121.02-.238.06-.345.12a.424.424 0 00-.184.204c-.044.152-.062.31-.053.468v.89a1.39 1.39 0 00.053.465c.036.088.1.16.182.207.105.06.22.1.338.12.223.03.447.041.672.036h.396a4.07 4.07 0 00.608-.032.96.96 0 00.308-.107.388.388 0 00.17-.196c.041-.137.058-.28.05-.424v-.193h-1.248v-.316h1.762V9.4c0 .4-.118.678-.356.835-.238.158-.66.234-1.264.234h-.571c-.605 0-1.027-.078-1.264-.234-.237-.157-.356-.431-.356-.835V8.346zm4.236 2.096l1.668-3.129h.818l1.673 3.129h-.515l-.432-.799H31.61l-.42.799h-.519zm1.1-1.107h1.946l-.884-1.689h-.16l-.902 1.689zm3.663 1.107V7.313h.82l1.541 2.782 1.527-2.782h.825v3.129h-.495V7.606l-1.554 2.836h-.618L35.926 7.61v2.83h-.492zm5.801 0V7.313h.503v3.129h-.503zm1.591 0V7.313h.768l2.44 2.787V7.313h.496v3.129h-.769L43.322 7.65v2.79h-.496zm4.626-2.096c0-.398.119-.676.356-.834.238-.157.66-.236 1.264-.235h.571c.554 0 .963.065 1.226.195a.648.648 0 01.394.612v.133h-.513v-.041a.466.466 0 00-.236-.45c-.157-.086-.458-.128-.9-.128h-.398a4.322 4.322 0 00-.664.036c-.121.019-.238.06-.345.12a.432.432 0 00-.183.207 1.4 1.4 0 00-.053.468v.89c-.008.156.01.314.053.465.037.087.101.16.183.207.105.06.22.1.338.12.223.03.447.041.671.036h.397c.203.005.406-.006.607-.031a.973.973 0 00.31-.108.4.4 0 00.17-.196c.04-.137.057-.28.05-.424v-.193H49.5V8.88h1.763v.522c0 .4-.119.678-.356.835-.238.158-.66.234-1.264.234h-.571c-.604 0-1.025-.078-1.264-.234-.237-.157-.356-.431-.356-.835V8.346z" fill="#fff"/><path d="M.02 10.617c0-.693.67-1.89 3.75-4.234A34.056 34.056 0 0116.37.317c2.406-.61 4.568-.367 6.28.971 1.714 1.338 2.202 4.316 1.632 7.984-.571 3.668-1.631 5.617-1.631 5.617s-.714 1.445-1.469 2.158c-.78.731-1.752 1.426-3.63 1.426-1.876 0-4.214-.964-6.563-2.805-1.918-1.51-3.141-2.035-4.363-2.481-1.223-.447-2.732-.774-4.241-1.059-.69-.136-2.366-.372-2.366-1.511z" fill="#FCBB17"/><path d="M17.616 18.494c-2.447 0-4.647-1.251-6.892-3.013-1.845-1.45-3.042-1.925-4.164-2.335-1.214-.444-2.72-.755-4.032-1.005l-.123-.023C1.658 11.981 0 11.902 0 10.637c0-2.064 6.606-6.229 7.503-6.759 0 0 11.78 5.334 13.538 13.312.022.103-1.177 1.303-3.425 1.303z" fill="url(#paint0_linear)"/><path d="M14.784 17.943C16.415 11.47 4.121 7.543 3.428 6.688c-.06-.074 3.466-2.482 4.078-2.769 0 0 11.825 5.293 13.578 13.271.02.103-2.286 2.362-6.3.753z" fill="url(#paint1_linear)"/><path d="M21.082 17.231C19.244 8.968 7.306 3.998 7.503 3.88c1.878-1.14 4.159-2.035 4.159-2.035s9.644.875 11.07 13.046c.013.105-.834 1.527-1.65 2.341z" fill="url(#paint2_linear)"/><path d="M22.713 14.951C21.367 2.82 11.453 1.938 11.663 1.844 13.27 1.11 15.8.44 15.963.44c5.424 0 8.527 7.337 8.278 9.119-.224 1.605-1.08 4.496-1.53 5.391z" fill="url(#paint3_linear)"/><path opacity=".74" d="M1.167 10.46c0-.647.626-1.774 3.5-3.976A31.669 31.669 0 0116.426.786c2.25-.574 4.261-.344 5.859.916 1.597 1.26 2.053 4.054 1.521 7.495-.531 3.442-1.521 5.277-1.521 5.277s-.666 1.357-1.37 2.027c-.723.688-1.636 1.338-3.386 1.338-1.75 0-3.935-.906-6.125-2.638-1.788-1.415-2.93-1.91-4.075-2.331-1.146-.42-2.549-.726-3.957-.994-.639-.123-2.204-.344-2.204-1.415z" fill="url(#paint4_linear)"/><path d="M8.425 9.175c0-.762.191-1.294.573-1.595.382-.301 1.057-.452 2.026-.451h.916c.889 0 1.544.125 1.966.374.421.25.632.64.633 1.17v.258h-.825v-.073c0-.412-.126-.7-.378-.863-.252-.163-.734-.244-1.445-.242h-.634a5.836 5.836 0 00-1.067.067 1.471 1.471 0 00-.552.23.793.793 0 00-.294.396c-.056.166-.085.465-.085.896v1.701c0 .432.029.729.085.891.053.16.156.3.294.398.163.111.346.19.54.228.357.056.72.08 1.08.068h.635c.326.01.651-.01.973-.06a1.37 1.37 0 00.495-.204.732.732 0 00.273-.373 2.86 2.86 0 00.08-.812v-.371h-2.001v-.606h2.826v1c0 .764-.191 1.297-.573 1.597-.382.3-1.057.449-2.026.447h-.916c-.97 0-1.646-.15-2.026-.448-.38-.3-.571-.832-.573-1.597V9.175zm7.332 0c0-.765.177-1.297.53-1.597.354-.3.979-.45 1.874-.45h.843c.89 0 1.514.13 1.872.387.358.258.538.696.54 1.314v.261h-.824v-.16c0-.451-.108-.761-.334-.926-.226-.165-.66-.25-1.31-.25h-.556a4.836 4.836 0 00-.954.067 1.21 1.21 0 00-.497.223.799.799 0 00-.277.399c-.055.164-.082.465-.082.9v1.702c0 .432.027.73.081.897a.799.799 0 00.278.4c.143.108.308.185.483.223.32.054.644.076.968.065h.556c.666 0 1.109-.087 1.328-.26.22-.175.328-.508.325-1v-.172c0-.04 0-.078-.007-.108h.82v.393c0 .664-.175 1.125-.523 1.385-.348.26-.976.386-1.883.378h-.843c-.896 0-1.52-.15-1.874-.448-.354-.3-.532-.832-.534-1.596V9.175zm6.507-1.83v-.484h.147l.275.431.272-.431h.148v.484h-.089v-.44l-.276.44h-.108l-.283-.44v.44h-.086z" fill="#fff"/><path d="M21.693 6.912V6.86h.601v.05h-.256v.432h-.09v-.431h-.255z" fill="#fff"/><path d="M18.385 16.954c0-.268.258-.733 1.444-1.641a13.076 13.076 0 014.851-2.351c.927-.236 1.759-.142 2.418.379.66.52.847 1.672.628 3.093-.22 1.42-.628 2.177-.628 2.177s-.274.56-.565.836a1.836 1.836 0 01-1.398.553c-.722 0-1.62-.375-2.527-1.089a5.472 5.472 0 00-1.68-.962 10.782 10.782 0 00-1.633-.412c-.265-.05-.91-.14-.91-.583z" fill="#4CC516"/><path d="M22.088 15.512s-.117-.406.553.087c.305.225.67.727.67.727s2.561-2.878 3.056-2.5c0 0-2.358 2.732-2.853 3.982l-1.426-2.296z" fill="#fff"/></g><defs><linearGradient id="paint0_linear" x1="10.521" y1="18.494" x2="10.521" y2="3.878" gradientUnits="userSpaceOnUse"><stop offset=".03" stop-color="#91084A"/><stop offset=".09" stop-color="#A00952"/><stop offset=".2" stop-color="#BB0C60"/></linearGradient><linearGradient id="paint1_linear" x1="12.253" y1="19.741" x2="12.253" y2="1.945" gradientUnits="userSpaceOnUse"><stop offset=".03" stop-color="#4E1444"/><stop offset=".2" stop-color="#691A5B"/></linearGradient><linearGradient id="paint2_linear" x1="21.31" y1="18.52" x2="14.54" y2="6.774" gradientUnits="userSpaceOnUse"><stop stop-color="#C90210"/><stop offset=".07" stop-color="#D80211"/><stop offset=".2" stop-color="#F30213"/></linearGradient><linearGradient id="paint3_linear" x1="13.699" y1="-.018" x2="25.253" y2="12.632" gradientUnits="userSpaceOnUse"><stop offset=".09" stop-color="#429FE2"/><stop offset=".36" stop-color="#399AE1"/><stop offset=".57" stop-color="#2E95DF"/><stop offset=".99" stop-color="#2A93DE"/></linearGradient><linearGradient id="paint4_linear" x1="12.594" y1=".488" x2="12.594" y2="21.75" gradientUnits="userSpaceOnUse"><stop stop-color="#fff"/><stop offset=".1" stop-color="#fff" stop-opacity=".66"/><stop offset=".19" stop-color="#fff" stop-opacity=".4"/><stop offset=".23" stop-color="#fff" stop-opacity=".3"/><stop offset=".6" stop-color="#fff" stop-opacity="0"/></linearGradient><clipPath id="clip0"><path fill="#fff" d="M0 0h56v20H0z"/></clipPath></defs></svg>