<svg width="41" height="18" fill="none" xmlns="http://www.w3.org/2000/svg"><path d="M16.728 17.37c-.076-.22-.214-.37-.314-.565-.242-.334-.528-.624-.813-.913-.1-.035-.143-.135-.238-.175-.062-.085-.162-.13-.243-.194a4.796 4.796 0 00-.518-.35c-.343-.23-.766-.374-1.185-.524a13.42 13.42 0 00-1.422-.27c-.49-.074-.98-.144-1.351-.349-.214-.065-.371-.19-.557-.29-.171-.12-.357-.219-.5-.369-.175-.11-.285-.294-.423-.444-.047-.1-.128-.16-.166-.27-.048-.02-.062-.08-.09-.114-.034-.04-.034-.12-.091-.135a3.05 3.05 0 000 .659c.024.09.033.2.057.29.014.08.086.209.057.269-1.484-.08-2.569-.574-3.51-1.223-.467-.325-.867-.719-1.238-1.143-.162-.235-.338-.46-.48-.719-.148-.254-.271-.544-.405-.813-.219-.584-.423-1.183-.5-1.917-.1-.684-.075-1.557.072-2.191.052-.35.162-.644.257-.949.062-.14.128-.28.186-.424.08-.12.123-.284.223-.39.271-.533.676-.933 1.09-1.317a4.504 4.504 0 011.57-.794c.59-.14 1.393-.164 2.03-.02 1.295.28 2.27.889 3.088 1.668.828.763 1.466 1.732 1.903 2.91.452 1.118.61 2.86.205 4.127-.167-.1-.333-.194-.5-.29-.2-.059-.394-.129-.628-.154-.28-.005-.556 0-.737.095.366-.04.661.065.89.155.133.055.21.09.314.154.204.125.385.24.537.41.433.399.742.928.89 1.627 0 .02.024.015.019-.02.019-.005.028-.02.038-.04.024-.03.052-.06.076-.095a.936.936 0 00.129-.194c.1-.125.18-.265.257-.41.175-.27.309-.579.46-.873a9.616 9.616 0 00.61-2.077c.266-1.707-.052-3.324-.61-4.517-.57-1.203-1.37-2.166-2.402-2.89C11.724.593 10.505.064 8.831.014c-.01-.034-.024.005-.057 0-.885-.03-1.598.1-2.307.29-.329.115-.671.215-.961.37-.333.114-.6.304-.904.444-.11.11-.276.164-.39.27-.148.074-.257.194-.405.269-.238.22-.49.414-.723.639-.228.22-.428.469-.647.698-.033.08-.09.135-.147.195a.647.647 0 01-.148.195c-.024.09-.1.124-.128.214-.062.05-.076.15-.148.195-.062.16-.17.274-.242.424-.086.145-.153.305-.238.444-.133.325-.276.64-.386.989-.114.34-.209.698-.275 1.088-.072.364-.138.838-.129 1.223-.047.14-.01.399 0 .564 0 .03-.019.04-.019.06 0 .184.048.409.057.524.038.424.11.818.224 1.163.071.384.223.683.333 1.028.166.29.28.634.48.893.148.305.357.544.557.794.214.24.428.484.685.679.47.429 1.023.773 1.627 1.068 1.127.574 2.812.948 4.324.853.386-.054.776-.104 1.128-.194.323-.125.7-.2 1.09-.25.889-.06 1.66.025 2.345.235a5.5 5.5 0 011.812.873c.276.17.505.39.738.6.238.214.428.478.647.718.028.09.085.155.128.235.057.064.029.214.167.194.085-.09-.015-.22-.02-.33-.085-.094-.104-.219-.17-.299z" fill="#FCB316"/><path d="M13.274 12.059c-.019 0-.023.015-.038.02-.033.075-.019.194 0 .27.1.214.134.493.352.583.105-.035.096-.194.09-.35-.047-.189-.113-.359-.223-.483-.076-.03-.128-.08-.18-.04zm-1.294.544c0-.01-.014-.02-.019 0-.18-.025-.242.08-.333.155-.157.434.095.858.538.853.176-.045.285-.165.314-.37-.024-.364-.171-.598-.5-.638z" fill="#FCB316"/><path d="M22.647 11.22c.071.314.223.539.395.748.171.21.37.385.613.515.229.15.476.274.762.359.137.05.27.11.442.13.119.07.262.105.271.284-.005.215-.142.295-.319.335-.176-.04-.394-.035-.542-.105-.371-.045-.67-.17-.985-.285a4.413 4.413 0 01-1.522-1.033c-.086-.15-.205-.27-.295-.414-.09-.145-.152-.32-.247-.464-.733-.1-1.232-.45-1.67-.854a3.786 3.786 0 01-.861-1.832c-.157-.738-.11-1.662.076-2.375.404-1.383 1.251-2.301 2.85-2.426.442.015.827.07 1.18.21.356.134.694.384.96.643.024.02.034.025.048.05.057.085.195.205.271.31.014.02.01.055.024.08.028.044.071.064.1.104.014.025.01.055.023.075.02.03.043.075.072.13.01.02.043.035.047.05.043.085.062.19.1.284.038.1.09.185.124.285.095.294.157.644.195 1.003.095 1.038-.1 1.967-.466 2.655-.171.36-.41.654-.69.904-.257.284-.609.454-.956.634zm-1.18-6.499c-.214.015-.342.12-.518.18-.115.11-.257.194-.343.334-.143.085-.18.275-.295.385a4.97 4.97 0 00-.247.853c-.058.32-.096.679-.1 1.033-.005.889.176 1.772.514 2.296.2.255.442.465.737.62.171.014.304.074.49.08.105-.04.276 0 .342-.08.153.01.186-.096.32-.106a.766.766 0 01.246-.18c.09-.104.177-.209.272-.309.047-.075.076-.18.147-.234.428-.859.476-2.431.195-3.43a3.11 3.11 0 00-.418-.903 2.432 2.432 0 00-.638-.489c-.195-.045-.38-.1-.637-.075-.015 0-.029.005-.024.025h-.043zm5.19-.724c.386.015.838-.035 1.18.025.076.125.048.275.048.415.028 1.891 0 3.923 0 5.854 0 .155.005.315 0 .465-.005.13.028.27-.048.389-.171.045-.418.025-.637.025-.233 0-.462.035-.614-.05a193.163 193.163 0 010-7.043.108.108 0 01.071-.08zm2.95 0h1.156c.105.15.138.375.171.594.348 1.388.69 2.78 1.009 4.203.076.01.052-.085.076-.13.033-.035.014-.12.047-.154.015-.115.081-.175.077-.31.085-.175.114-.414.195-.594.1-.42.233-.808.347-1.213.11-.419.257-.798.342-1.238.162-.354.2-.838.395-1.158h.49c.176.35.243.814.395 1.188.1.42.238.799.343 1.213.242.804.495 1.597.713 2.426.1-.155.1-.414.172-.594.042-.205.08-.414.147-.594.19-.819.371-1.642.59-2.426.08-.409.162-.828.295-1.188a3.791 3.791 0 011.008 0c.024.305-.109.634-.195.904-.047.33-.161.584-.223.903-.176.584-.31 1.203-.49 1.782-.138.619-.324 1.188-.466 1.807-.096.284-.162.599-.248.903-.095.28-.128.624-.271.854h-.69c-.176-.325-.238-.764-.395-1.108-.342-1.138-.723-2.231-1.056-3.38-.114.125-.114.38-.195.54-.052.194-.104.39-.171.569-.095.394-.238.729-.319 1.133-.138.354-.238.748-.342 1.138-.143.34-.195.774-.371 1.083-.181.06-.467.01-.69.025-.171-.205-.19-.574-.295-.854-.081-.29-.138-.609-.243-.878-.133-.629-.333-1.183-.466-1.807-.176-.579-.328-1.183-.49-1.782-.09-.284-.157-.589-.247-.878-.043-.31-.243-.59-.172-.929.01-.025.038-.04.067-.05zm9.71 0c.385.015.832-.035 1.18.025.085.27.047.56.047.849v5.415c0 .295.033.58-.047.854-.267.03-.657.045-.985.025-.095-.005-.21.025-.271-.05-.086-.27-.048-.554-.048-.854v-5.36c0-.325-.029-.64.048-.854a.159.159 0 01.076-.05z" fill="#fff"/></svg>