<svg width="31" height="10" fill="none" xmlns="http://www.w3.org/2000/svg"><path d="M11.054 9.515L12.509.508h2.326L13.38 9.515h-2.326zM21.817.729a5.761 5.761 0 00-2.084-.378c-2.3 0-3.918 1.222-3.932 2.973-.014 1.294 1.155 2.016 2.037 2.447.906.44 1.21.723 1.207 1.117-.006.604-.723.88-1.392.88-.93 0-1.425-.136-2.19-.472l-.3-.144-.325 2.016c.543.251 1.548.47 2.591.48 2.444 0 4.032-1.207 4.05-3.076.009-1.027-.61-1.805-1.953-2.447-.813-.418-1.311-.695-1.306-1.117 0-.375.422-.776 1.332-.776a4.087 4.087 0 011.74.346l.21.104.315-1.953zm3.096 5.593c.193-.518.927-2.518.927-2.518-.014.024.191-.522.308-.86l.157.778s.447 2.15.539 2.6h-1.931zm2.87-5.805h-1.798c-.558 0-.975.16-1.22.747l-3.453 8.254h2.443s.398-1.11.489-1.354l2.979.005c.07.314.283 1.35.283 1.35h2.158L27.782.516zM9.103.515l-2.276 6.14-.244-1.247C6.16 3.969 4.84 2.41 3.362 1.63l2.082 7.877 2.461-.002 3.663-8.99H9.103z" fill="#fff"/><path d="M4.714.51H.964L.933.696c2.918.746 4.849 2.547 5.65 4.712L5.77 1.27C5.628.699 5.219.53 4.714.51zm25.613 8.416h.11c.077 0 .093-.045.093-.082 0-.063-.04-.077-.104-.077h-.1v.16zm-.095-.23h.226c.054 0 .17.014.17.148 0 .035-.011.085-.087.118v.003c.066.01.07.073.073.123.005.08 0 .093.02.121h-.098c-.019-.018-.014-.033-.019-.117 0-.047-.005-.095-.112-.095h-.078v.212h-.095v-.512zm.187.697a.424.424 0 00.417-.436.424.424 0 00-.417-.436.423.423 0 00-.416.436c0 .242.183.436.416.436zm0-.95c.288 0 .514.23.514.514a.511.511 0 01-.514.514.511.511 0 01-.513-.514c0-.283.226-.514.513-.514z" fill="#fff"/></svg>