<svg width="11" height="16" fill="none" xmlns="http://www.w3.org/2000/svg"><path fill-rule="evenodd" clip-rule="evenodd" d="M10.058 6.834c0 1.757-.401 3.063-1.204 3.92-.802.852-2.04 1.278-3.713 1.278-1.561 0-2.746-.426-3.553-1.279C.78 9.9.377 8.614.378 6.894v-5.77A.246.246 0 01.621.878h2.83a.246.246 0 01.246.246V7.02c0 .702.13 1.243.394 1.624a1.431 1.431 0 002.258.034c.259-.358.387-.885.387-1.582V5.992h3.32v.842z" fill="#fff"/><path fill-rule="evenodd" clip-rule="evenodd" d="M9.8 5.347H6.738V1.136a.257.257 0 01.257-.257h.458a2.605 2.605 0 002.605 2.603v1.865h-.256z" fill="#fff"/><path fill-rule="evenodd" clip-rule="evenodd" d="M8.105.879H9.8a.257.257 0 01.256.257v1.698A1.953 1.953 0 018.104.881V.879z" fill="#F4821F"/><path fill-rule="evenodd" clip-rule="evenodd" d="M.932 14.835c.375 0 .556-.21.556-.516v-.738H1.22v.731a.289.289 0 01-.578 0v-.731H.377v.74c0 .303.181.514.556.514zm2.175-.023v-.23h-.593l.581-.79v-.21H2.17v.23h.582l-.582.789v.211h.938zm1.253.023a.568.568 0 00.515-.303l-.225-.11a.331.331 0 01-.29.18.405.405 0 010-.81.333.333 0 01.29.18l.226-.11a.564.564 0 00-.515-.302.637.637 0 00-.038 1.274h.038zm2.29-.023l-.474-1.231h-.328l-.476 1.231h.299l.077-.208h.528l.076.208h.299zm-.446-.44H5.82l.192-.53.192.53zm2.217.75l-.451-.778a.353.353 0 00.27-.366.383.383 0 00-.414-.398h-.577v1.232h.261v-.437h.192l.417.746h.302zm-.635-.978h-.275v-.332h.275a.166.166 0 01.164.086.166.166 0 01-.13.246.17.17 0 01-.034 0zm1.619.668c.386 0 .654-.243.654-.614 0-.372-.269-.617-.654-.617h-.486v1.23l.486.001zm0-.23h-.223v-.77h.223a.36.36 0 01.386.385.369.369 0 01-.387.385zm.972-1.024v.004a.23.23 0 11-.23-.229h.23v.225z" fill="#fff"/></svg>