<svg width="12" height="16" fill="none" xmlns="http://www.w3.org/2000/svg"><path fill-rule="evenodd" clip-rule="evenodd" d="M.577 7.943c0-.813.068-1.328 1.75-2.583C3.72 4.32 8.183.768 8.183.768v5.93h3.394v8.534h-9.94c-.583 0-1.06-.478-1.06-1.06v-6.23z" fill="#FFCF01"/><path fill-rule="evenodd" clip-rule="evenodd" d="M8.183 6.697v3.436l-6.237 4.249 7.886-2.566V6.697H8.183z" fill="#D3AC06"/><path fill-rule="evenodd" clip-rule="evenodd" d="M5.333 6.52c.365-.435.898-.588 1.19-.343.293.246.234.797-.13 1.232-.365.434-.898.588-1.19.342-.293-.245-.234-.796.13-1.231z" fill="#231F20"/></svg>