<svg width="36" height="10" fill="none" xmlns="http://www.w3.org/2000/svg"><path fill-rule="evenodd" clip-rule="evenodd" d="M10.097 0v.004c-.005 0-1.38-.004-1.747 1.31A1431.33 1431.33 0 017.04 5.94h-.262s-.97-3.402-1.31-4.629C5.101-.004 3.721 0 3.721 0H.577v10h3.144V4.061h.262L5.817 10h2.184l1.834-5.934h.262V10h3.144V0h-3.144zm11.485 0s-.922.083-1.354 1.048l-2.227 4.89h-.262V0h-3.144v10h2.97s.964-.087 1.397-1.048l2.183-4.89h.262V10h3.144V0h-2.97zm4.367 4.542V10h3.144V6.812h3.406a3.402 3.402 0 003.21-2.27h-9.76z" fill="#fff"/><path fill-rule="evenodd" clip-rule="evenodd" d="M32.499 0h-6.992a5.023 5.023 0 004.94 4.105h5.388c.048-.227.07-.459.07-.699A3.405 3.405 0 0032.499 0z" fill="url(#paint0_linear)"/><defs><linearGradient id="paint0_linear" x1="25.508" y1="2.052" x2="35.905" y2="2.052" gradientUnits="userSpaceOnUse"><stop offset=".3" stop-color="#00B4E6"/><stop offset="1" stop-color="#088CCB"/></linearGradient></defs></svg>