<svg width="19" height="18" fill="none" xmlns="http://www.w3.org/2000/svg"><g clip-path="url(#clip0)" fill="#fff"><path d="M6.462 12.066V7.179h-1.13V5.926h2.69v6.14h-1.56zm7.418-4.555c0 .534-.29 1.007-.771 1.27.674.28 1.095.867 1.095 1.55 0 1.104-.981 1.804-2.514 1.804s-2.513-.692-2.513-1.778c0-.7.455-1.296 1.164-1.576-.516-.289-.85-.78-.85-1.314 0-.98.86-1.602 2.19-1.602 1.349 0 2.198.639 2.198 1.646zM10.647 10.2c0 .517.368.806 1.042.806s1.05-.28 1.05-.806c0-.508-.376-.797-1.05-.797s-1.042.289-1.042.797zm.158-2.601c0 .438.315.683.884.683.57 0 .885-.245.885-.683 0-.456-.316-.71-.885-.71-.57 0-.884.254-.884.71z"/><path d="M16.799 6.62c.259.764.39 1.564.39 2.38 0 4.091-3.329 7.42-7.42 7.42-4.092 0-7.42-3.329-7.42-7.42 0-4.092 3.328-7.42 7.42-7.42.816 0 1.616.131 2.38.39V.32A8.99 8.99 0 009.77 0c-4.963 0-9 4.037-9 9s4.037 9 9 9 9-4.037 9-9c0-.81-.107-1.608-.32-2.38H16.8z"/><path d="M16.349 2.414V.688h-1.241v1.726h-1.716v1.241h1.716v1.726h1.24V3.655h1.726v-1.24H16.35z"/></g><defs><clipPath id="clip0"><path fill="#fff" transform="translate(.768)" d="M0 0h18v18H0z"/></clipPath></defs></svg>