<svg width="47" height="14" fill="none" xmlns="http://www.w3.org/2000/svg"><path d="M38.833 2.522c.728 0 1.42.167 2.042.465.097.044.196.097.293.15l-.426.377-.64-.658-1.1.965-.649-.693-2.024 1.799 1.296 1.413-.506.439 1.279 1.413-.506.439 1.829 2.01 1.083-.983.941 1.053c-.186.14-.39.282-.612.404a4.682 4.682 0 01-2.291.597c-2.566 0-4.653-2.063-4.653-4.6-.009-2.518 2.078-4.59 4.644-4.59zm-.853 4.31l1.11-.983.995 1.097-1.11.983-.995-1.097zm.79 1.896l1.102-.992 1.003 1.097-1.11.983-.994-1.088zm-1.58-3.766l1.11-.983.995 1.097-1.11.983-.995-1.097zm2.033-.527l.826-.737.746.817-.826.746-.746-.826zm1.474 3.38l.826-.738.746.825-.826.738-.745-.825zm.728 1.659l.826-.738.746.817-.826.746-.745-.825zm.338-3.792l.55-.492.497.545-.55.491-.497-.544zm-.71-1.624l.55-.5.497.553-.55.491-.497-.544zm1.411 3.248l.55-.492.507.545-.56.49-.497-.543zm-2.477-1.22l.826-.738.746.817-.826.737-.746-.816z" fill="#fff"/><mask id="a" maskUnits="userSpaceOnUse" x="3" y="4" width="6" height="5"><path d="M3.434 4.431v4.243h4.853V4.43H3.434z" fill="#fff"/></mask><g mask="url(#a)"><path d="M5.87 5.687h-.042L5.04 8.674H4.4L3.434 4.43h.667l.667 3.166h.041l.774-3.166h.53l.828 3.166h.042L7.59 4.43h.697l-.965 4.243H6.68l-.81-2.987z" fill="#fff"/></g><path d="M9.133 6.867h1.364c-.03-.628-.334-.879-.655-.879-.364 0-.644.281-.709.88zm1.84 1.126v.455a2.091 2.091 0 01-1.054.275c-1 0-1.411-.622-1.411-1.568 0-.91.458-1.568 1.352-1.568.744 0 1.202.485 1.202 1.46v.222h-1.94c0 .717.29 1.035.904 1.035.322 0 .62-.114.947-.311zm1.474.25c.19.084.4.096.548.096.44 0 .774-.275.774-1.244 0-.76-.274-1.006-.673-1.006-.238 0-.41.066-.649.198v1.956zm.006-2.4c.178-.095.482-.22.804-.22.738 0 1.137.514 1.137 1.472 0 1.119-.536 1.663-1.399 1.663-.316 0-.804-.102-1.161-.293V4.288l.62-.15v1.706zm4.621 1.931h.03l1.274-3.345h.739v4.243h-.643V5.596h-.054l-1.215 3.076h-.38l-1.216-3.004h-.053v3.004h-.536V4.429h.72l1.334 3.345zm4.67-.619c0-.808-.327-1.149-.732-1.149-.393 0-.732.341-.732 1.149 0 .82.31 1.149.732 1.149.423 0 .732-.33.732-1.149zm-2.09 0c0-1.048.573-1.568 1.358-1.568.787 0 1.358.52 1.358 1.568 0 1.023-.542 1.568-1.358 1.568-.816 0-1.357-.545-1.357-1.568zm3.187-1.125c.268-.162.834-.443 1.519-.443.714 0 .982.281.982.897v2.167h-.62V6.622c0-.472-.231-.556-.535-.556-.238 0-.542.108-.727.215v2.37h-.619v-2.62zm3.811.837h1.363c-.029-.628-.333-.879-.654-.879-.364 0-.643.281-.709.88zm1.84 1.126v.455a2.09 2.09 0 01-1.054.275c-1 0-1.411-.622-1.411-1.568 0-.91.458-1.568 1.351-1.568.745 0 1.204.485 1.204 1.46v.222H26.64c0 .717.292 1.035.905 1.035.322 0 .62-.114.947-.311zm2.563-2.406h.638l-1.078 2.992c-.298.825-.661 1.256-1.346 1.256v-.49c.405 0 .655-.323.798-.766l-1.143-2.992h.655l.762 2.202h.036l.678-2.202z" fill="#fff"/><path d="M9.866 11.432v-.259c.22.112.43.169.63.169.166 0 .293-.03.382-.092a.285.285 0 00.133-.248c0-.104-.037-.182-.11-.234a2.045 2.045 0 00-.408-.193 8.372 8.372 0 01-.133-.05l-.115-.048a.779.779 0 01-.113-.054 1.179 1.179 0 00-.09-.055.312.312 0 01-.086-.064 1.314 1.314 0 00-.06-.072.237.237 0 01-.052-.087 1.117 1.117 0 01-.025-.101.612.612 0 01-.012-.123c0-.17.062-.307.188-.411.125-.104.298-.156.519-.156.195 0 .39.035.583.108v.273a1.262 1.262 0 00-.563-.138c-.132 0-.23.027-.295.083a.279.279 0 00-.098.223c0 .098.033.172.098.223.065.052.181.108.349.17.288.107.486.203.594.289.109.086.163.214.163.384a.525.525 0 01-.223.437c-.15.113-.354.17-.614.17-.239 0-.453-.048-.642-.144zm3.01.098h-.281l-.02-.174c-.17.14-.34.21-.51.21a.448.448 0 01-.33-.115.394.394 0 01-.116-.293.479.479 0 01.146-.345.555.555 0 01.237-.13c.105-.034.232-.05.38-.05h.183v-.081c0-.134-.024-.226-.074-.275-.049-.05-.132-.074-.248-.074-.142 0-.317.059-.524.178v-.24a1.48 1.48 0 01.627-.148c.2 0 .338.041.414.123.078.082.116.207.116.372v1.043zm-.308-.687h-.157c-.323 0-.485.097-.485.291 0 .069.022.118.065.149a.272.272 0 00.163.046.51.51 0 00.24-.06.505.505 0 00.174-.138v-.288zm.789 1.288v-1.919a1.12 1.12 0 01.657-.22c.41 0 .615.252.615.755 0 .26-.054.46-.16.597-.107.139-.26.207-.459.207a.559.559 0 01-.346-.104v.684h-.307zm.304-1.817v.91c.04.038.09.067.15.086.06.019.113.028.158.028a.3.3 0 00.256-.127c.062-.085.093-.24.093-.464 0-.182-.032-.316-.096-.4a.3.3 0 00-.25-.126.535.535 0 00-.31.093zm1.673-.306v1.523h-.307v-1.448l.307-.075zm-.355-.442c0-.054.02-.101.06-.142a.192.192 0 01.282 0 .197.197 0 010 .285.193.193 0 01-.281 0 .198.198 0 01-.06-.143zm1.507 1.79a.925.925 0 00.47-.156v.229a1.018 1.018 0 01-.523.138c-.24 0-.417-.07-.53-.207-.114-.139-.17-.332-.17-.58 0-.236.057-.427.173-.57.117-.145.283-.217.498-.217.189 0 .336.062.44.186.105.125.157.306.157.547v.111h-.964c0 .178.036.31.11.393.072.085.186.126.34.126zm-.091-1.162a.296.296 0 00-.234.111.603.603 0 00-.118.33h.677c-.008-.147-.042-.258-.104-.33a.279.279 0 00-.221-.11zm.998 1.336v-1.315c.242-.148.494-.222.754-.222.176 0 .301.036.376.108.075.072.113.186.113.342v1.088h-.308v-1.019c0-.11-.023-.184-.068-.222a.303.303 0 00-.198-.057.708.708 0 00-.361.108v1.19h-.308zm2.016-1.465h.467l-.074.205h-.393v.792c0 .2.085.3.254.3a.512.512 0 00.199-.042v.192a.911.911 0 01-.332.055c-.148 0-.256-.043-.325-.128a.514.514 0 01-.104-.335V9.867l.308-.226v.424zm1.07-.057v1.523h-.308v-1.448l.308-.075zm-.355-.442c0-.054.02-.101.06-.142a.192.192 0 01.281 0 .198.198 0 010 .285.192.192 0 01-.281 0 .199.199 0 01-.06-.143zm2.449.547v.24a.796.796 0 00-.45-.15.36.36 0 00-.19.045c-.048.03-.073.078-.073.144 0 .063.027.112.081.149.055.037.14.075.256.112l.147.052c.032.012.075.032.128.06a.462.462 0 01.12.084.42.42 0 01.073.111.354.354 0 01.032.153.392.392 0 01-.164.33.716.716 0 01-.44.124.921.921 0 01-.511-.133V11.2a.944.944 0 00.476.156c.217 0 .326-.072.326-.216a.164.164 0 00-.02-.078.213.213 0 00-.044-.058.41.41 0 00-.082-.052.9.9 0 00-.094-.041 11.323 11.323 0 01-.121-.044 2.675 2.675 0 01-.193-.078.842.842 0 01-.142-.086.317.317 0 01-.103-.124.413.413 0 01-.033-.171c0-.085.02-.156.06-.216a.332.332 0 01.153-.13.883.883 0 01.329-.07c.167 0 .327.04.479.121zm1.634 1.418h-.28l-.021-.175c-.17.14-.34.21-.51.21a.448.448 0 01-.33-.115.394.394 0 01-.116-.293.479.479 0 01.146-.345.557.557 0 01.237-.13 1.25 1.25 0 01.38-.05h.184v-.081c0-.134-.025-.226-.074-.275-.05-.05-.133-.074-.249-.074-.142 0-.316.059-.523.178v-.24a1.48 1.48 0 01.627-.148c.199 0 .337.041.414.123.077.082.115.207.115.372v1.043zm-.307-.688h-.157c-.324 0-.485.097-.485.291 0 .069.021.118.065.149a.272.272 0 00.162.046c.083 0 .163-.02.24-.06a.508.508 0 00.175-.138v-.288zm1.081-.778h.467l-.074.205h-.393v.792c0 .2.085.3.254.3a.512.512 0 00.198-.042v.192a.91.91 0 01-.331.055c-.148 0-.256-.043-.325-.128a.513.513 0 01-.104-.335V9.867l.308-.226v.424z" fill="#B6B6B6"/></svg>