<svg width="41" height="12" fill="none" xmlns="http://www.w3.org/2000/svg"><path fill-rule="evenodd" clip-rule="evenodd" d="M38.746 4.62c-.382.17-.764.297-1.146.382l-.68.17c-.34.085-.594.212-.764.382-.128.212-.213.425-.213.637 0 .255.085.51.255.722.17.17.425.255.765.255.552 0 .977-.17 1.274-.467.297-.298.467-.765.467-1.317V4.62h.042zm.468 3.652c-.425.213-.85.34-1.317.382a11.22 11.22 0 01-1.232.085c-.68 0-1.316-.212-1.826-.594s-.807-1.02-.807-1.911c0-.85.255-1.444.722-1.784.467-.34 1.104-.595 1.826-.722.128 0 .255 0 .34-.043.17-.042.297-.042.467-.085.85-.127 1.274-.382 1.274-.764 0-.297-.17-.51-.467-.595a2.738 2.738 0 00-.85-.127c-.254 0-.509.042-.721.127a.841.841 0 00-.467.467h-1.954c.085-.594.34-1.146.807-1.528.51-.468 1.274-.68 2.25-.68 1.105 0 1.912.17 2.464.552s.85.934.85 1.656v2.719c0 .807-.128 1.401-.425 1.868-.17.425-.51.765-.934.977zm-9.556.34V4.79c0-.765.127-1.444.34-1.954.212-.51.509-.934.934-1.274a3.46 3.46 0 011.316-.637 6.316 6.316 0 011.53-.213h.254v2.124h-.68c-.551 0-.976.127-1.273.425-.255.297-.425.722-.425 1.316v4.077l-1.996-.042zM27.449 4.62c-.382.17-.764.297-1.147.382l-.68.17c-.339.085-.594.212-.764.382-.127.212-.212.425-.212.637 0 .255.085.51.255.722.17.17.425.255.764.255.553 0 .977-.17 1.274-.467.298-.298.468-.765.468-1.317l.042-.764zm.467 3.652a3.59 3.59 0 01-1.316.382c-.383.043-.807.085-1.232.085a3.03 3.03 0 01-1.826-.594c-.51-.382-.807-1.02-.807-1.911 0-.85.255-1.444.722-1.784.467-.34 1.104-.595 1.826-.722.127 0 .255 0 .34-.043.17-.042.297-.042.467-.085.85-.127 1.274-.382 1.274-.764 0-.297-.17-.51-.467-.595a2.738 2.738 0 00-.85-.127c-.254 0-.51.042-.721.127a.841.841 0 00-.468.467H22.99c.085-.594.34-1.146.807-1.528.51-.468 1.274-.68 2.25-.68 1.105 0 1.912.17 2.464.552s.85.934.85 1.656v2.719c0 .807-.128 1.401-.425 1.868-.255.425-.595.765-1.02.977zm-7.305-3.61c0-.764-.127-1.359-.424-1.784-.298-.424-.722-.637-1.275-.637-.51 0-.934.213-1.231.637-.255.383-.425.977-.425 1.784 0 .765.128 1.317.425 1.699.297.425.722.637 1.274.637.467 0 .934-.212 1.19-.637.296-.425.466-.977.466-1.699zm-3.355 5.819c0 .255-.085.51-.297.722-.17.212-.425.297-.722.297h-.977V4.11c0-1.402.382-2.336 1.19-2.846A4.732 4.732 0 0119.04.5c.51 0 1.02.085 1.486.297.468.17.85.425 1.19.807.594.765.891 1.784.891 2.973 0 1.232-.297 2.251-.892 3.016-.594.764-1.316 1.146-2.25 1.146a3.25 3.25 0 01-1.275-.254c-.382-.213-.722-.51-.934-.935v2.93zM13.094 4.62c-.382.17-.765.297-1.147.382l-.68.127c-.34.085-.594.213-.764.383-.127.212-.212.424-.212.637 0 .254.085.51.255.722.17.17.424.254.764.254.552 0 .977-.17 1.274-.467.298-.297.467-.764.467-1.316l.043-.722zm.467 3.652c-.425.213-.85.34-1.316.382a11.22 11.22 0 01-1.232.085 3.03 3.03 0 01-1.826-.594c-.51-.382-.807-1.02-.807-1.911 0-.85.254-1.444.722-1.784.467-.34 1.104-.595 1.826-.722.127 0 .255 0 .34-.043.127-.042.297-.042.467-.085.85-.127 1.274-.382 1.274-.764 0-.297-.17-.51-.467-.595a2.738 2.738 0 00-.85-.127c-.255 0-.51.042-.722.127a.841.841 0 00-.467.467H8.55c.084-.594.34-1.146.806-1.528.51-.468 1.275-.68 2.251-.68 1.105 0 1.912.17 2.464.552s.85.934.85 1.656v2.719c0 .807-.128 1.401-.425 1.868-.17.425-.51.765-.935.977zm-10.66 2.209c0 .255-.085.51-.297.722-.17.212-.425.297-.722.297H.905V4.11c0-1.402.382-2.336 1.189-2.846A4.732 4.732 0 014.684.5c.51 0 1.02.085 1.487.297.467.17.85.425 1.19.807.594.765.891 1.784.891 2.973 0 1.232-.297 2.251-.892 3.016-.594.764-1.316 1.146-2.25 1.146a3.25 3.25 0 01-1.275-.254c-.382-.213-.722-.51-.934-.935v2.93zm3.313-5.819c0-.764-.128-1.359-.425-1.784-.297-.424-.722-.637-1.274-.637-.51 0-.935.213-1.232.637-.255.383-.425.977-.425 1.784 0 .765.128 1.317.425 1.699.297.425.722.637 1.274.637.467 0 .935-.212 1.19-.637.34-.425.467-.977.467-1.699z" fill="#fff"/></svg>